courier-prime_bold-italic.sfdir
StartChar: exclam
Encoding: 33 33 1
Width: 1228
Flags: W
LayerCount: 2
Back
Fore
SplineSet
882 1209 m 2,0,1
 928 1209 928 1209 914 1159 c 2,2,-1
 739 582 l 2,3,4
 728 544 728 544 699.5 524 c 128,-1,5
 671 504 671 504 632 504 c 256,6,7
 593 504 593 504 572 524 c 128,-1,8
 551 544 551 544 553 582 c 2,9,-1
 582 1159 l 2,10,11
 585 1209 585 1209 632 1209 c 2,12,-1
 882 1209 l 2,0,1
564 -22 m 0,13,14
 528 -22 528 -22 497.5 -8.5 c 128,-1,15
 467 5 467 5 445 27.5 c 128,-1,16
 423 50 423 50 410.5 80.5 c 128,-1,17
 398 111 398 111 398 145 c 0,18,19
 398 190 398 190 416 229 c 128,-1,20
 434 268 434 268 463.5 296.5 c 128,-1,21
 493 325 493 325 532 341 c 128,-1,22
 571 357 571 357 613 357 c 0,23,24
 649 357 649 357 679.5 344 c 128,-1,25
 710 331 710 331 732 308.5 c 128,-1,26
 754 286 754 286 766.5 255.5 c 128,-1,27
 779 225 779 225 779 191 c 0,28,29
 779 146 779 146 761.5 107 c 128,-1,30
 744 68 744 68 714 39.5 c 128,-1,31
 684 11 684 11 645 -5.5 c 128,-1,32
 606 -22 606 -22 564 -22 c 0,13,14
EndSplineSet
EndChar
StartChar: quotedbl
Encoding: 34 34 2
Width: 1228
Flags: W
LayerCount: 2
Back
Fore
SplineSet
652 1209 m 2,0,1
 675 1209 675 1209 683.5 1197 c 128,-1,2
 692 1185 692 1185 684 1159 c 2,3,-1
 526 679 l 2,4,5
 516 648 516 648 493 629.5 c 128,-1,6
 470 611 470 611 421 611 c 256,7,8
 372 611 372 611 355.5 629.5 c 128,-1,9
 339 648 339 648 340 679 c 2,10,-1
 352 1159 l 2,11,12
 353 1185 353 1185 366 1197 c 128,-1,13
 379 1209 379 1209 402 1209 c 2,14,-1
 652 1209 l 2,0,1
1112 1209 m 2,15,16
 1135 1209 1135 1209 1143.5 1197 c 128,-1,17
 1152 1185 1152 1185 1144 1159 c 2,18,-1
 986 679 l 2,19,20
 976 648 976 648 953 629.5 c 128,-1,21
 930 611 930 611 881 611 c 256,22,23
 832 611 832 611 815.5 629.5 c 128,-1,24
 799 648 799 648 800 679 c 2,25,-1
 812 1159 l 2,26,27
 813 1185 813 1185 826 1197 c 128,-1,28
 839 1209 839 1209 862 1209 c 2,29,-1
 1112 1209 l 2,15,16
EndSplineSet
EndChar
StartChar: numbersign
Encoding: 35 35 3
Width: 1228
Flags: W
LayerCount: 2
Back
Fore
SplineSet
523 940 m 1,0,-1
 639 1176 l 2,1,2
 647 1193 647 1193 669.5 1201 c 128,-1,3
 692 1209 692 1209 718 1209 c 0,4,5
 739 1209 739 1209 760 1204.5 c 128,-1,6
 781 1200 781 1200 796 1191 c 128,-1,7
 811 1182 811 1182 817.5 1169.5 c 128,-1,8
 824 1157 824 1157 817 1142 c 2,9,-1
 718 940 l 1,10,-1
 917 940 l 1,11,-1
 1033 1176 l 2,12,13
 1041 1193 1041 1193 1063.5 1201 c 128,-1,14
 1086 1209 1086 1209 1112 1209 c 0,15,16
 1133 1209 1133 1209 1154 1204.5 c 128,-1,17
 1175 1200 1175 1200 1190 1191 c 128,-1,18
 1205 1182 1205 1182 1211.5 1169.5 c 128,-1,19
 1218 1157 1218 1157 1211 1142 c 2,20,-1
 1112 940 l 1,21,-1
 1220 940 l 2,22,23
 1237 940 1237 940 1248 935.5 c 128,-1,24
 1259 931 1259 931 1264.5 919 c 128,-1,25
 1270 907 1270 907 1269.5 885 c 128,-1,26
 1269 863 1269 863 1263 827 c 256,27,28
 1257 791 1257 791 1250 769 c 128,-1,29
 1243 747 1243 747 1233 735 c 128,-1,30
 1223 723 1223 723 1210.5 719 c 128,-1,31
 1198 715 1198 715 1181 715 c 2,32,-1
 1001 715 l 1,33,-1
 887 482 l 1,34,-1
 1039 482 l 2,35,36
 1056 482 1056 482 1067 477.5 c 128,-1,37
 1078 473 1078 473 1083.5 461 c 128,-1,38
 1089 449 1089 449 1089 427 c 128,-1,39
 1089 405 1089 405 1083 369 c 256,40,41
 1077 333 1077 333 1069.5 311 c 128,-1,42
 1062 289 1062 289 1052 277 c 128,-1,43
 1042 265 1042 265 1029.5 261 c 128,-1,44
 1017 257 1017 257 1000 257 c 2,45,-1
 777 257 l 1,46,-1
 657 11 l 2,47,48
 649 -6 649 -6 626.5 -14 c 128,-1,49
 604 -22 604 -22 578 -22 c 0,50,51
 557 -22 557 -22 536 -17.5 c 128,-1,52
 515 -13 515 -13 500 -4 c 128,-1,53
 485 5 485 5 478 17.5 c 128,-1,54
 471 30 471 30 479 45 c 2,55,-1
 583 257 l 1,56,-1
 383 257 l 1,57,-1
 263 11 l 2,58,59
 255 -6 255 -6 232.5 -14 c 128,-1,60
 210 -22 210 -22 184 -22 c 0,61,62
 163 -22 163 -22 142 -17.5 c 128,-1,63
 121 -13 121 -13 106 -4 c 128,-1,64
 91 5 91 5 84 17.5 c 128,-1,65
 77 30 77 30 85 45 c 2,66,-1
 189 257 l 1,67,-1
 78 257 l 2,68,69
 61 257 61 257 50 261 c 128,-1,70
 39 265 39 265 33.5 277 c 128,-1,71
 28 289 28 289 28.5 311 c 128,-1,72
 29 333 29 333 35 369 c 256,73,74
 41 405 41 405 48 427 c 128,-1,75
 55 449 55 449 65 461 c 128,-1,76
 75 473 75 473 87.5 477.5 c 128,-1,77
 100 482 100 482 117 482 c 2,78,-1
 299 482 l 1,79,-1
 413 715 l 1,80,-1
 259 715 l 2,81,82
 242 715 242 715 231 719 c 128,-1,83
 220 723 220 723 214.5 735 c 128,-1,84
 209 747 209 747 209 769 c 128,-1,85
 209 791 209 791 215 827 c 256,86,87
 221 863 221 863 228.5 885 c 128,-1,88
 236 907 236 907 246 919 c 128,-1,89
 256 931 256 931 268.5 935.5 c 128,-1,90
 281 940 281 940 298 940 c 2,91,-1
 523 940 l 1,0,-1
493 482 m 1,92,-1
 693 482 l 1,93,-1
 807 715 l 1,94,-1
 607 715 l 1,95,-1
 493 482 l 1,92,-1
EndSplineSet
EndChar
StartChar: dollar
Encoding: 36 36 4
Width: 1228
Flags: W
LayerCount: 2
Back
Fore
SplineSet
376 181 m 2,0,1
 371 147 371 147 339 132.5 c 128,-1,2
 307 118 307 118 243 118 c 256,3,4
 179 118 179 118 154.5 132.5 c 128,-1,5
 130 147 130 147 136 181 c 2,6,-1
 175 404 l 2,7,8
 181 438 181 438 207 452.5 c 128,-1,9
 233 467 233 467 282 467 c 0,10,11
 315 467 315 467 333.5 460 c 128,-1,12
 352 453 352 453 360 439 c 0,13,14
 385 399 385 399 422 374 c 128,-1,15
 459 349 459 349 504 335 c 1,16,-1
 534 506 l 1,17,18
 483 517 483 517 433.5 531.5 c 128,-1,19
 384 546 384 546 342 571 c 0,20,21
 294 600 294 600 263.5 645.5 c 128,-1,22
 233 691 233 691 233 760 c 0,23,24
 233 826 233 826 259.5 887.5 c 128,-1,25
 286 949 286 949 340 994 c 0,26,27
 395 1039 395 1039 471 1061.5 c 128,-1,28
 547 1084 547 1084 636 1086 c 1,29,-1
 665 1249 l 2,30,31
 668 1266 668 1266 674 1278 c 128,-1,32
 680 1290 680 1290 692 1297.5 c 128,-1,33
 704 1305 704 1305 722.5 1308.5 c 128,-1,34
 741 1312 741 1312 769 1312 c 0,35,36
 825 1312 825 1312 841 1297.5 c 128,-1,37
 857 1283 857 1283 851 1249 c 2,38,-1
 816 1054 l 1,39,40
 839 1045 839 1045 860 1033.5 c 128,-1,41
 881 1022 881 1022 901 1008 c 1,42,-1
 904 1023 l 2,43,44
 911 1057 911 1057 937 1071.5 c 128,-1,45
 963 1086 963 1086 1027 1086 c 256,46,47
 1091 1086 1091 1086 1115.5 1071.5 c 128,-1,48
 1140 1057 1140 1057 1134 1023 c 2,49,-1
 1097 812 l 2,50,51
 1091 778 1091 778 1067 763.5 c 128,-1,52
 1043 749 1043 749 994 749 c 0,53,54
 940 749 940 749 925 770 c 0,55,56
 896 807 896 807 861 830 c 128,-1,57
 826 853 826 853 783 866 c 1,58,-1
 756 712 l 1,59,60
 813 703 813 703 867.5 689 c 128,-1,61
 922 675 922 675 967 649 c 0,62,63
 1015 621 1015 621 1045.5 577.5 c 128,-1,64
 1076 534 1076 534 1076 465 c 0,65,66
 1076 402 1076 402 1052.5 340.5 c 128,-1,67
 1029 279 1029 279 981 231 c 0,68,69
 871 126 871 126 652 118 c 1,70,-1
 620 -62 l 2,71,72
 614 -96 614 -96 592.5 -110.5 c 128,-1,73
 571 -125 571 -125 515 -125 c 256,74,75
 459 -125 459 -125 443.5 -110.5 c 128,-1,76
 428 -96 428 -96 434 -62 c 2,77,-1
 470 145 l 1,78,79
 444 155 444 155 421.5 167.5 c 128,-1,80
 399 180 399 180 378 194 c 1,81,-1
 376 181 l 2,0,1
714 474 m 1,82,-1
 687 320 l 1,83,84
 749 326 749 326 782 351 c 0,85,86
 800 365 800 365 807 381.5 c 128,-1,87
 814 398 814 398 814 409 c 0,88,89
 814 434 814 434 791.5 451.5 c 128,-1,90
 769 469 769 469 714 477 c 1,91,-1
 714 474 l 1,82,-1
600 884 m 1,92,93
 575 881 575 881 556 873.5 c 128,-1,94
 537 866 537 866 523 855 c 0,95,96
 493 831 493 831 493 800 c 0,97,98
 493 775 493 775 513 761 c 128,-1,99
 533 747 533 747 575 739 c 1,100,-1
 600 884 l 1,92,93
EndSplineSet
EndChar
StartChar: percent
Encoding: 37 37 5
Width: 1228
Flags: W
LayerCount: 2
Back
Fore
SplineSet
835 -22 m 0,0,1
 784 -22 784 -22 741.5 -3.5 c 128,-1,2
 699 15 699 15 668 47.5 c 128,-1,3
 637 80 637 80 619.5 123 c 128,-1,4
 602 166 602 166 602 215 c 0,5,6
 602 280 602 280 629 336.5 c 128,-1,7
 656 393 656 393 700 435 c 128,-1,8
 744 477 744 477 801.5 501.5 c 128,-1,9
 859 526 859 526 921 526 c 0,10,11
 972 526 972 526 1014.5 507.5 c 128,-1,12
 1057 489 1057 489 1088 456.5 c 128,-1,13
 1119 424 1119 424 1136.5 381 c 128,-1,14
 1154 338 1154 338 1154 289 c 0,15,16
 1154 224 1154 224 1127 167 c 128,-1,17
 1100 110 1100 110 1056 68 c 128,-1,18
 1012 26 1012 26 954 2 c 128,-1,19
 896 -22 896 -22 835 -22 c 0,0,1
863 165 m 0,20,21
 882 165 882 165 901 173 c 128,-1,22
 920 181 920 181 934 195 c 128,-1,23
 948 209 948 209 957 227.5 c 128,-1,24
 966 246 966 246 966 266 c 0,25,26
 966 297 966 297 945.5 318 c 128,-1,27
 925 339 925 339 893 339 c 0,28,29
 873 339 873 339 854 330.5 c 128,-1,30
 835 322 835 322 820.5 308 c 128,-1,31
 806 294 806 294 797.5 275.5 c 128,-1,32
 789 257 789 257 789 236 c 0,33,34
 789 206 789 206 810 185.5 c 128,-1,35
 831 165 831 165 863 165 c 0,20,21
375 661 m 0,36,37
 324 661 324 661 281.5 679.5 c 128,-1,38
 239 698 239 698 208 730.5 c 128,-1,39
 177 763 177 763 159.5 806 c 128,-1,40
 142 849 142 849 142 898 c 0,41,42
 142 963 142 963 169 1019.5 c 128,-1,43
 196 1076 196 1076 240 1118 c 128,-1,44
 284 1160 284 1160 341.5 1184.5 c 128,-1,45
 399 1209 399 1209 461 1209 c 0,46,47
 512 1209 512 1209 554.5 1190.5 c 128,-1,48
 597 1172 597 1172 628 1139.5 c 128,-1,49
 659 1107 659 1107 676.5 1064 c 128,-1,50
 694 1021 694 1021 694 972 c 0,51,52
 694 907 694 907 667 850 c 128,-1,53
 640 793 640 793 596 751 c 128,-1,54
 552 709 552 709 494 685 c 128,-1,55
 436 661 436 661 375 661 c 0,36,37
403 848 m 0,56,57
 422 848 422 848 441 856 c 128,-1,58
 460 864 460 864 474 878 c 128,-1,59
 488 892 488 892 497 910.5 c 128,-1,60
 506 929 506 929 506 949 c 0,61,62
 506 980 506 980 485.5 1001 c 128,-1,63
 465 1022 465 1022 433 1022 c 0,64,65
 413 1022 413 1022 394 1013.5 c 128,-1,66
 375 1005 375 1005 360.5 991 c 128,-1,67
 346 977 346 977 337.5 958.5 c 128,-1,68
 329 940 329 940 329 919 c 0,69,70
 329 889 329 889 350 868.5 c 128,-1,71
 371 848 371 848 403 848 c 0,56,57
1105 1083 m 2,72,73
 1133 1106 1133 1106 1156 1101.5 c 128,-1,74
 1179 1097 1179 1097 1213 1054 c 0,75,76
 1230 1032 1230 1032 1238 1016 c 128,-1,77
 1246 1000 1246 1000 1245.5 987 c 128,-1,78
 1245 974 1245 974 1237 963 c 128,-1,79
 1229 952 1229 952 1215 940 c 2,80,-1
 191 106 l 2,81,82
 177 94 177 94 164.5 89 c 128,-1,83
 152 84 152 84 139.5 86.5 c 128,-1,84
 127 89 127 89 113.5 100.5 c 128,-1,85
 100 112 100 112 83 134 c 0,86,87
 50 178 50 178 51 202 c 128,-1,88
 52 226 52 226 81 249 c 2,89,-1
 1105 1083 l 2,72,73
EndSplineSet
EndChar
StartChar: ampersand
Encoding: 38 38 6
Width: 1228
Flags: W
LayerCount: 2
Back
Fore
SplineSet
990 440 m 1,0,1
 944 353 944 353 899 286 c 1,2,-1
 963 205 l 1,3,-1
 1050 205 l 2,4,5
 1067 205 1067 205 1078 201 c 128,-1,6
 1089 197 1089 197 1094.5 185.5 c 128,-1,7
 1100 174 1100 174 1100 154 c 128,-1,8
 1100 134 1100 134 1094 102 c 256,9,10
 1088 70 1088 70 1081.5 50 c 128,-1,11
 1075 30 1075 30 1065.5 19 c 128,-1,12
 1056 8 1056 8 1043.5 4 c 128,-1,13
 1031 0 1031 0 1014 0 c 2,14,-1
 853 0 l 2,15,16
 812 0 812 0 786 33 c 2,17,-1
 735 98 l 1,18,19
 588 -22 588 -22 402 -22 c 0,20,21
 331 -22 331 -22 273.5 0 c 128,-1,22
 216 22 216 22 175 60.5 c 128,-1,23
 134 99 134 99 112 152.5 c 128,-1,24
 90 206 90 206 90 269 c 0,25,26
 90 387 90 387 152 477.5 c 128,-1,27
 214 568 214 568 329 635 c 1,28,29
 307 678 307 678 294 724 c 128,-1,30
 281 770 281 770 281 819 c 0,31,32
 281 887 281 887 307.5 956.5 c 128,-1,33
 334 1026 334 1026 387.5 1082 c 128,-1,34
 441 1138 441 1138 523 1173.5 c 128,-1,35
 605 1209 605 1209 716 1209 c 0,36,37
 793 1209 793 1209 875 1184.5 c 128,-1,38
 957 1160 957 1160 1035 1109 c 0,39,40
 1055 1096 1055 1096 1064 1081.5 c 128,-1,41
 1073 1067 1073 1067 1069 1046 c 2,42,-1
 1035 854 l 2,43,44
 1029 820 1029 820 997.5 805.5 c 128,-1,45
 966 791 966 791 902 791 c 256,46,47
 838 791 838 791 818.5 805.5 c 128,-1,48
 799 820 799 820 805 854 c 2,49,-1
 824 961 l 1,50,51
 760 992 760 992 686 992 c 0,52,53
 653 992 653 992 625 979.5 c 128,-1,54
 597 967 597 967 576.5 944.5 c 128,-1,55
 556 922 556 922 545 892 c 128,-1,56
 534 862 534 862 534 827 c 0,57,58
 534 785 534 785 551.5 746 c 128,-1,59
 569 707 569 707 601 666 c 2,60,-1
 755 470 l 1,61,62
 773 501 773 501 791 534 c 128,-1,63
 809 567 809 567 828 603 c 0,64,65
 837 622 837 622 850.5 633.5 c 128,-1,66
 864 645 864 645 887 645 c 2,67,-1
 1107 645 l 2,68,69
 1124 645 1124 645 1135 641 c 128,-1,70
 1146 637 1146 637 1152 626 c 128,-1,71
 1158 615 1158 615 1158 595 c 128,-1,72
 1158 575 1158 575 1152 543 c 256,73,74
 1146 511 1146 511 1139 491 c 128,-1,75
 1132 471 1132 471 1122.5 459.5 c 128,-1,76
 1113 448 1113 448 1100.5 444 c 128,-1,77
 1088 440 1088 440 1071 440 c 2,78,-1
 990 440 l 1,0,1
442 205 m 0,79,80
 484 205 484 205 523 222 c 128,-1,81
 562 239 562 239 600 271 c 1,82,-1
 441 474 l 1,83,84
 392 437 392 437 366 394.5 c 128,-1,85
 340 352 340 352 340 301 c 0,86,87
 340 256 340 256 367 230.5 c 128,-1,88
 394 205 394 205 442 205 c 0,79,80
EndSplineSet
EndChar
StartChar: quotesingle
Encoding: 39 39 7
Width: 1228
Flags: W
LayerCount: 2
Back
Fore
SplineSet
882 1209 m 2,0,1
 905 1209 905 1209 913.5 1197 c 128,-1,2
 922 1185 922 1185 914 1159 c 2,3,-1
 756 679 l 2,4,5
 746 648 746 648 723 629.5 c 128,-1,6
 700 611 700 611 651 611 c 256,7,8
 602 611 602 611 585.5 629.5 c 128,-1,9
 569 648 569 648 570 679 c 2,10,-1
 582 1159 l 2,11,12
 583 1185 583 1185 596 1197 c 128,-1,13
 609 1209 609 1209 632 1209 c 2,14,-1
 882 1209 l 2,0,1
EndSplineSet
EndChar
StartChar: parenleft
Encoding: 40 40 8
Width: 1228
Flags: W
LayerCount: 2
Back
Fore
SplineSet
932 1315 m 0,0,1
 949 1324 949 1324 965.5 1321 c 128,-1,2
 982 1318 982 1318 997 1307 c 128,-1,3
 1012 1296 1012 1296 1025 1279 c 128,-1,4
 1038 1262 1038 1262 1048 1242 c 0,5,6
 1058 1221 1058 1221 1064 1199 c 128,-1,7
 1070 1177 1070 1177 1070.5 1157.5 c 128,-1,8
 1071 1138 1071 1138 1065 1123 c 128,-1,9
 1059 1108 1059 1108 1046 1101 c 0,10,11
 918 1031 918 1031 816.5 949.5 c 128,-1,12
 715 868 715 868 645 770.5 c 128,-1,13
 575 673 575 673 538 557.5 c 128,-1,14
 501 442 501 442 501 306 c 0,15,16
 501 142 501 142 571.5 14.5 c 128,-1,17
 642 -113 642 -113 783 -213 c 0,18,19
 793 -221 793 -221 795 -235 c 128,-1,20
 797 -249 797 -249 792.5 -266.5 c 128,-1,21
 788 -284 788 -284 777.5 -303 c 128,-1,22
 767 -322 767 -322 753 -340 c 0,23,24
 739 -357 739 -357 723.5 -371.5 c 128,-1,25
 708 -386 708 -386 692 -394.5 c 128,-1,26
 676 -403 676 -403 660 -404.5 c 128,-1,27
 644 -406 644 -406 630 -397 c 0,28,29
 557 -351 557 -351 489 -283.5 c 128,-1,30
 421 -216 421 -216 369 -128.5 c 128,-1,31
 317 -41 317 -41 286 67 c 128,-1,32
 255 175 255 175 255 301 c 0,33,34
 255 455 255 455 298.5 601 c 128,-1,35
 342 747 342 747 427.5 877.5 c 128,-1,36
 513 1008 513 1008 639.5 1119 c 128,-1,37
 766 1230 766 1230 932 1315 c 0,0,1
EndSplineSet
EndChar
StartChar: parenright
Encoding: 41 41 9
Width: 1228
Flags: W
LayerCount: 2
Back
Fore
SplineSet
316 -397 m 0,0,1
 299 -406 299 -406 282.5 -403 c 128,-1,2
 266 -400 266 -400 251 -389 c 128,-1,3
 236 -378 236 -378 223 -361 c 128,-1,4
 210 -344 210 -344 200 -324 c 0,5,6
 190 -303 190 -303 184 -281.5 c 128,-1,7
 178 -260 178 -260 177.5 -240.5 c 128,-1,8
 177 -221 177 -221 183 -205.5 c 128,-1,9
 189 -190 189 -190 202 -183 c 0,10,11
 330 -113 330 -113 431.5 -31.5 c 128,-1,12
 533 50 533 50 603 147.5 c 128,-1,13
 673 245 673 245 710 360 c 128,-1,14
 747 475 747 475 747 612 c 0,15,16
 747 775 747 775 676.5 903 c 128,-1,17
 606 1031 606 1031 465 1131 c 0,18,19
 454 1138 454 1138 452.5 1152.5 c 128,-1,20
 451 1167 451 1167 455.5 1184.5 c 128,-1,21
 460 1202 460 1202 470.5 1221 c 128,-1,22
 481 1240 481 1240 495 1258 c 0,23,24
 508 1275 508 1275 524 1289.5 c 128,-1,25
 540 1304 540 1304 556 1312.5 c 128,-1,26
 572 1321 572 1321 588 1322.5 c 128,-1,27
 604 1324 604 1324 618 1315 c 0,28,29
 691 1269 691 1269 759 1201.5 c 128,-1,30
 827 1134 827 1134 879 1046 c 128,-1,31
 931 958 931 958 962 850.5 c 128,-1,32
 993 743 993 743 993 617 c 0,33,34
 993 462 993 462 949.5 316.5 c 128,-1,35
 906 171 906 171 820.5 40.5 c 128,-1,36
 735 -90 735 -90 608.5 -201 c 128,-1,37
 482 -312 482 -312 316 -397 c 0,0,1
EndSplineSet
EndChar
StartChar: asterisk
Encoding: 42 42 10
Width: 1228
Flags: W
LayerCount: 2
Back
Fore
SplineSet
747 1209 m 0,0,1
 781 1209 781 1209 805 1196.5 c 128,-1,2
 829 1184 829 1184 841.5 1163.5 c 128,-1,3
 854 1143 854 1143 855 1116.5 c 128,-1,4
 856 1090 856 1090 845 1062 c 2,5,-1
 763 859 l 1,6,-1
 955 964 l 2,7,8
 1009 993 1009 993 1054 978.5 c 128,-1,9
 1099 964 1099 964 1115 899 c 0,10,11
 1123 866 1123 866 1117 839.5 c 128,-1,12
 1111 813 1111 813 1094.5 793.5 c 128,-1,13
 1078 774 1078 774 1052.5 762.5 c 128,-1,14
 1027 751 1027 751 996 748 c 2,15,-1
 784 729 l 1,16,-1
 924 587 l 2,17,18
 942 568 942 568 951 544.5 c 128,-1,19
 960 521 960 521 956.5 496.5 c 128,-1,20
 953 472 953 472 936.5 449 c 128,-1,21
 920 426 920 426 887 409 c 0,22,23
 824 376 824 376 781 392 c 128,-1,24
 738 408 738 408 723 460 c 2,25,-1
 665 658 l 1,26,-1
 554 466 l 2,27,28
 538 439 538 439 516.5 421.5 c 128,-1,29
 495 404 495 404 470.5 398 c 128,-1,30
 446 392 446 392 420 398 c 128,-1,31
 394 404 394 404 369 425 c 0,32,33
 344 445 344 445 334 469 c 128,-1,34
 324 493 324 493 327 517.5 c 128,-1,35
 330 542 330 542 344.5 565 c 128,-1,36
 359 588 359 588 384 607 c 2,37,-1
 559 739 l 1,38,-1
 366 757 l 2,39,40
 309 762 309 762 284.5 802 c 128,-1,41
 260 842 260 842 286 911 c 0,42,43
 299 944 299 944 320.5 964 c 128,-1,44
 342 984 342 984 367.5 992 c 128,-1,45
 393 1000 393 1000 419 996.5 c 128,-1,46
 445 993 445 993 467 978 c 2,47,-1
 627 870 l 1,48,-1
 616 1075 l 2,49,50
 614 1103 614 1103 621.5 1127.5 c 128,-1,51
 629 1152 629 1152 645.5 1170 c 128,-1,52
 662 1188 662 1188 687 1198.5 c 128,-1,53
 712 1209 712 1209 747 1209 c 0,0,1
EndSplineSet
EndChar
StartChar: plus
Encoding: 43 43 11
Width: 1228
Flags: W
LayerCount: 2
Back
Fore
SplineSet
501 470 m 1,0,-1
 233 470 l 2,1,2
 216 470 216 470 204 474 c 128,-1,3
 192 478 192 478 184.5 490 c 128,-1,4
 177 502 177 502 173.5 524 c 128,-1,5
 170 546 170 546 170 582 c 256,6,7
 170 618 170 618 173.5 640 c 128,-1,8
 177 662 177 662 184.5 674 c 128,-1,9
 192 686 192 686 204 690.5 c 128,-1,10
 216 695 216 695 233 695 c 2,11,-1
 501 695 l 1,12,-1
 501 963 l 2,13,14
 501 980 501 980 505.5 992 c 128,-1,15
 510 1004 510 1004 522 1011.5 c 128,-1,16
 534 1019 534 1019 556 1022.5 c 128,-1,17
 578 1026 578 1026 614 1026 c 256,18,19
 650 1026 650 1026 672 1022.5 c 128,-1,20
 694 1019 694 1019 706 1011.5 c 128,-1,21
 718 1004 718 1004 722 992 c 128,-1,22
 726 980 726 980 726 963 c 2,23,-1
 726 695 l 1,24,-1
 995 695 l 2,25,26
 1012 695 1012 695 1024 690.5 c 128,-1,27
 1036 686 1036 686 1043.5 674 c 128,-1,28
 1051 662 1051 662 1054.5 640 c 128,-1,29
 1058 618 1058 618 1058 582 c 256,30,31
 1058 546 1058 546 1054.5 524 c 128,-1,32
 1051 502 1051 502 1043.5 490 c 128,-1,33
 1036 478 1036 478 1024 474 c 128,-1,34
 1012 470 1012 470 995 470 c 2,35,-1
 726 470 l 1,36,-1
 726 201 l 2,37,38
 726 184 726 184 722 172 c 128,-1,39
 718 160 718 160 706 152.5 c 128,-1,40
 694 145 694 145 672 141.5 c 128,-1,41
 650 138 650 138 614 138 c 256,42,43
 578 138 578 138 556 141.5 c 128,-1,44
 534 145 534 145 522 152.5 c 128,-1,45
 510 160 510 160 505.5 172 c 128,-1,46
 501 184 501 184 501 201 c 2,47,-1
 501 470 l 1,0,-1
EndSplineSet
EndChar
StartChar: comma
Encoding: 44 44 12
Width: 1228
Flags: W
LayerCount: 2
Back
Fore
SplineSet
420 -253 m 2,0,1
 392 -294 392 -294 322 -294 c 0,2,3
 280 -294 280 -294 259 -277.5 c 128,-1,4
 238 -261 238 -261 248 -228 c 2,5,-1
 413 314 l 2,6,7
 419 334 419 334 435 344 c 128,-1,8
 451 354 451 354 472 354 c 2,9,-1
 771 354 l 2,10,11
 796 354 796 354 800.5 335.5 c 128,-1,12
 805 317 805 317 788 291 c 2,13,-1
 420 -253 l 2,0,1
EndSplineSet
EndChar
StartChar: period
Encoding: 46 46 14
Width: 1228
Flags: W
LayerCount: 2
Back
Fore
SplineSet
550 -22 m 0,0,1
 510 -22 510 -22 476.5 -7.5 c 128,-1,2
 443 7 443 7 418.5 32 c 128,-1,3
 394 57 394 57 380.5 90 c 128,-1,4
 367 123 367 123 367 161 c 0,5,6
 367 211 367 211 386.5 253.5 c 128,-1,7
 406 296 406 296 439 327.5 c 128,-1,8
 472 359 472 359 514.5 376.5 c 128,-1,9
 557 394 557 394 603 394 c 0,10,11
 643 394 643 394 676.5 379.5 c 128,-1,12
 710 365 710 365 734 340.5 c 128,-1,13
 758 316 758 316 771.5 282.5 c 128,-1,14
 785 249 785 249 785 212 c 0,15,16
 785 162 785 162 765.5 119.5 c 128,-1,17
 746 77 746 77 714 45.5 c 128,-1,18
 682 14 682 14 639 -4 c 128,-1,19
 596 -22 596 -22 550 -22 c 0,0,1
EndSplineSet
EndChar
StartChar: slash
Encoding: 47 47 15
Width: 1228
Flags: W
LayerCount: 2
Back
Fore
SplineSet
297 -267 m 2,0,1
 286 -284 286 -284 263 -292 c 128,-1,2
 240 -300 240 -300 211 -300 c 0,3,4
 180 -300 180 -300 148 -291.5 c 128,-1,5
 116 -283 116 -283 93 -267.5 c 128,-1,6
 70 -252 70 -252 61 -230.5 c 128,-1,7
 52 -209 52 -209 68 -183 c 2,8,-1
 973 1305 l 2,9,10
 984 1322 984 1322 1008 1330.5 c 128,-1,11
 1032 1339 1032 1339 1061 1339 c 0,12,13
 1092 1339 1092 1339 1124 1330.5 c 128,-1,14
 1156 1322 1156 1322 1178.5 1306.5 c 128,-1,15
 1201 1291 1201 1291 1209.5 1269.5 c 128,-1,16
 1218 1248 1218 1248 1202 1221 c 2,17,-1
 297 -267 l 2,0,1
EndSplineSet
EndChar
StartChar: zero
Encoding: 48 48 16
Width: 1228
Flags: W
LayerCount: 2
Back
Fore
SplineSet
580 205 m 0,0,1
 701 205 701 205 778 338 c 0,2,3
 802 380 802 380 820.5 433.5 c 128,-1,4
 839 487 839 487 852 543 c 128,-1,5
 865 599 865 599 871.5 654 c 128,-1,6
 878 709 878 709 878 753 c 0,7,8
 878 868 878 868 837 925 c 128,-1,9
 796 982 796 982 717 982 c 0,10,11
 596 982 596 982 519 849 c 0,12,13
 495 807 495 807 476.5 753.5 c 128,-1,14
 458 700 458 700 445 644 c 128,-1,15
 432 588 432 588 425.5 533 c 128,-1,16
 419 478 419 478 419 434 c 0,17,18
 419 319 419 319 460 262 c 128,-1,19
 501 205 501 205 580 205 c 0,0,1
555 -22 m 0,20,21
 459 -22 459 -22 384.5 12 c 128,-1,22
 310 46 310 46 259 108 c 128,-1,23
 208 170 208 170 181.5 256.5 c 128,-1,24
 155 343 155 343 155 447 c 0,25,26
 155 512 155 512 165.5 582 c 128,-1,27
 176 652 176 652 196 720.5 c 128,-1,28
 216 789 216 789 245 853.5 c 128,-1,29
 274 918 274 918 312 972 c 0,30,31
 390 1084 390 1084 498 1146.5 c 128,-1,32
 606 1209 606 1209 742 1209 c 0,33,34
 838 1209 838 1209 912.5 1175 c 128,-1,35
 987 1141 987 1141 1038 1079 c 128,-1,36
 1089 1017 1089 1017 1115.5 930.5 c 128,-1,37
 1142 844 1142 844 1142 740 c 0,38,39
 1142 675 1142 675 1131.5 605 c 128,-1,40
 1121 535 1121 535 1101 466.5 c 128,-1,41
 1081 398 1081 398 1052 333.5 c 128,-1,42
 1023 269 1023 269 985 215 c 0,43,44
 907 103 907 103 799 40.5 c 128,-1,45
 691 -22 691 -22 555 -22 c 0,20,21
EndSplineSet
EndChar
StartChar: one
Encoding: 49 49 17
Width: 1228
Flags: W
LayerCount: 2
Back
Fore
SplineSet
611 923 m 1,0,-1
 413 856 l 2,1,2
 396 850 396 850 383 851 c 128,-1,3
 370 852 370 852 359.5 861 c 128,-1,4
 349 870 349 870 340.5 888 c 128,-1,5
 332 906 332 906 324 935 c 0,6,7
 308 994 308 994 319.5 1018.5 c 128,-1,8
 331 1043 331 1043 364 1054 c 2,9,-1
 805 1205 l 2,10,11
 854 1222 854 1222 880.5 1201.5 c 128,-1,12
 907 1181 907 1181 897 1128 c 2,13,-1
 735 205 l 1,14,-1
 991 205 l 2,15,16
 1008 205 1008 205 1019 201 c 128,-1,17
 1030 197 1030 197 1035.5 185.5 c 128,-1,18
 1041 174 1041 174 1041 154 c 128,-1,19
 1041 134 1041 134 1035 102 c 256,20,21
 1029 70 1029 70 1022.5 50 c 128,-1,22
 1016 30 1016 30 1006.5 19 c 128,-1,23
 997 8 997 8 984.5 4 c 128,-1,24
 972 0 972 0 955 0 c 2,25,-1
 223 0 l 2,26,27
 206 0 206 0 194.5 4 c 128,-1,28
 183 8 183 8 177.5 19 c 128,-1,29
 172 30 172 30 171.5 50 c 128,-1,30
 171 70 171 70 177 102 c 256,31,32
 183 134 183 134 190 154 c 128,-1,33
 197 174 197 174 206.5 185.5 c 128,-1,34
 216 197 216 197 229 201 c 128,-1,35
 242 205 242 205 259 205 c 2,36,-1
 485 205 l 1,37,-1
 611 923 l 1,0,-1
EndSplineSet
EndChar
StartChar: two
Encoding: 50 50 18
Width: 1228
Flags: W
LayerCount: 2
Back
Fore
SplineSet
797 215 m 1,0,-1
 814 307 l 2,1,2
 817 324 817 324 824 336 c 128,-1,3
 831 348 831 348 844.5 355.5 c 128,-1,4
 858 363 858 363 879.5 366.5 c 128,-1,5
 901 370 901 370 933 370 c 0,6,7
 997 370 997 370 1023.5 355.5 c 128,-1,8
 1050 341 1050 341 1044 307 c 2,9,-1
 1001 65 l 2,10,11
 995 30 995 30 977.5 15 c 128,-1,12
 960 0 960 0 925 0 c 2,13,-1
 151 0 l 2,14,15
 134 0 134 0 123 4 c 128,-1,16
 112 8 112 8 106 19.5 c 128,-1,17
 100 31 100 31 100 51 c 128,-1,18
 100 71 100 71 106 103 c 0,19,20
 113 144 113 144 122.5 168.5 c 128,-1,21
 132 193 132 193 148 206 c 2,22,-1
 650 619 l 2,23,24
 717 674 717 674 755 712 c 128,-1,25
 793 750 793 750 812 784 c 0,26,27
 823 804 823 804 829.5 828 c 128,-1,28
 836 852 836 852 836 878 c 0,29,30
 836 931 836 931 803 961.5 c 128,-1,31
 770 992 770 992 705 992 c 0,32,33
 658 992 658 992 612.5 980.5 c 128,-1,34
 567 969 567 969 525 950 c 1,35,-1
 500 810 l 2,36,37
 497 793 497 793 490 781 c 128,-1,38
 483 769 483 769 469.5 761.5 c 128,-1,39
 456 754 456 754 434.5 750.5 c 128,-1,40
 413 747 413 747 381 747 c 0,41,42
 317 747 317 747 290.5 761.5 c 128,-1,43
 264 776 264 776 270 810 c 2,44,-1
 314 1057 l 2,45,46
 321 1098 321 1098 368 1121 c 0,47,48
 468 1171 468 1171 558 1190 c 128,-1,49
 648 1209 648 1209 733 1209 c 0,50,51
 821 1209 821 1209 888 1186 c 128,-1,52
 955 1163 955 1163 1000.5 1122 c 128,-1,53
 1046 1081 1046 1081 1069 1024.5 c 128,-1,54
 1092 968 1092 968 1092 901 c 0,55,56
 1092 853 1092 853 1080.5 801 c 128,-1,57
 1069 749 1069 749 1044 702 c 0,58,59
 1014 645 1014 645 962 593 c 128,-1,60
 910 541 910 541 835 478 c 2,61,-1
 515 215 l 1,62,-1
 797 215 l 1,0,-1
EndSplineSet
EndChar
StartChar: three
Encoding: 51 51 19
Width: 1228
Flags: W
LayerCount: 2
Back
Fore
SplineSet
530 205 m 0,0,1
 600 205 600 205 647 221.5 c 128,-1,2
 694 238 694 238 722.5 264.5 c 128,-1,3
 751 291 751 291 762.5 324.5 c 128,-1,4
 774 358 774 358 774 391 c 0,5,6
 774 503 774 503 626 503 c 2,7,-1
 523 503 l 2,8,9
 506 503 506 503 495 508 c 128,-1,10
 484 513 484 513 478.5 525 c 128,-1,11
 473 537 473 537 473 557.5 c 128,-1,12
 473 578 473 578 479 610 c 256,13,14
 485 642 485 642 492 663 c 128,-1,15
 499 684 499 684 508.5 696 c 128,-1,16
 518 708 518 708 531 713 c 128,-1,17
 544 718 544 718 561 718 c 2,18,-1
 637 718 l 2,19,20
 700 718 700 718 741.5 734 c 128,-1,21
 783 750 783 750 806 779 c 0,22,23
 823 802 823 802 831.5 829 c 128,-1,24
 840 856 840 856 840 886 c 0,25,26
 840 992 840 992 695 992 c 0,27,28
 650 992 650 992 611.5 985.5 c 128,-1,29
 573 979 573 979 538 969 c 1,30,-1
 524 890 l 2,31,32
 521 873 521 873 514 861 c 128,-1,33
 507 849 507 849 493.5 841.5 c 128,-1,34
 480 834 480 834 458.5 830.5 c 128,-1,35
 437 827 437 827 405 827 c 0,36,37
 341 827 341 827 314.5 841.5 c 128,-1,38
 288 856 288 856 294 890 c 2,39,-1
 329 1087 l 2,40,41
 338 1132 338 1132 390 1151 c 0,42,43
 473 1183 473 1183 555.5 1196 c 128,-1,44
 638 1209 638 1209 723 1209 c 0,45,46
 812 1209 812 1209 881.5 1189 c 128,-1,47
 951 1169 951 1169 999 1132 c 128,-1,48
 1047 1095 1047 1095 1072 1041 c 128,-1,49
 1097 987 1097 987 1097 920 c 0,50,51
 1097 817 1097 817 1051 738.5 c 128,-1,52
 1005 660 1005 660 908 614 c 1,53,54
 970 583 970 583 1004.5 527.5 c 128,-1,55
 1039 472 1039 472 1039 396 c 0,56,57
 1039 362 1039 362 1032.5 325.5 c 128,-1,58
 1026 289 1026 289 1013 253.5 c 128,-1,59
 1000 218 1000 218 980.5 184.5 c 128,-1,60
 961 151 961 151 935 122 c 0,61,62
 874 55 874 55 770.5 16.5 c 128,-1,63
 667 -22 667 -22 510 -22 c 0,64,65
 417 -22 417 -22 333 -2.5 c 128,-1,66
 249 17 249 17 180 55 c 0,67,68
 154 69 154 69 150.5 101 c 128,-1,69
 147 133 147 133 173 191 c 0,70,71
 199 250 199 250 225.5 265.5 c 128,-1,72
 252 281 252 281 273 270 c 0,73,74
 332 240 332 240 398 222.5 c 128,-1,75
 464 205 464 205 530 205 c 0,0,1
EndSplineSet
EndChar
StartChar: four
Encoding: 52 52 20
Width: 1228
Flags: W
LayerCount: 2
Back
Fore
SplineSet
608 370 m 1,0,-1
 178 370 l 2,1,2
 161 370 161 370 150 374 c 128,-1,3
 139 378 139 378 133 389 c 128,-1,4
 127 400 127 400 127 420 c 128,-1,5
 127 440 127 440 133 472 c 0,6,7
 139 508 139 508 148.5 534 c 128,-1,8
 158 560 158 560 169 571 c 2,9,-1
 742 1150 l 2,10,11
 773 1181 773 1181 810.5 1195 c 128,-1,12
 848 1209 848 1209 901 1209 c 0,13,14
 932 1209 932 1209 951 1202.5 c 128,-1,15
 970 1196 970 1196 979.5 1184 c 128,-1,16
 989 1172 989 1172 991 1155.5 c 128,-1,17
 993 1139 993 1139 990 1119 c 2,18,-1
 894 575 l 1,19,-1
 1066 575 l 2,20,21
 1083 575 1083 575 1094 571 c 128,-1,22
 1105 567 1105 567 1111 555.5 c 128,-1,23
 1117 544 1117 544 1117 524 c 128,-1,24
 1117 504 1117 504 1111 472 c 256,25,26
 1105 440 1105 440 1098 420 c 128,-1,27
 1091 400 1091 400 1081.5 389 c 128,-1,28
 1072 378 1072 378 1059.5 374 c 128,-1,29
 1047 370 1047 370 1030 370 c 2,30,-1
 858 370 l 1,31,-1
 829 205 l 1,32,-1
 971 205 l 2,33,34
 988 205 988 205 999 201 c 128,-1,35
 1010 197 1010 197 1015.5 185.5 c 128,-1,36
 1021 174 1021 174 1021 154 c 128,-1,37
 1021 134 1021 134 1015 102 c 256,38,39
 1009 70 1009 70 1002.5 50 c 128,-1,40
 996 30 996 30 986.5 19 c 128,-1,41
 977 8 977 8 964.5 4 c 128,-1,42
 952 0 952 0 935 0 c 2,43,-1
 373 0 l 2,44,45
 356 0 356 0 344.5 4 c 128,-1,46
 333 8 333 8 327.5 19 c 128,-1,47
 322 30 322 30 321.5 50 c 128,-1,48
 321 70 321 70 327 102 c 256,49,50
 333 134 333 134 340 154 c 128,-1,51
 347 174 347 174 356.5 185.5 c 128,-1,52
 366 197 366 197 379 201 c 128,-1,53
 392 205 392 205 409 205 c 2,54,-1
 579 205 l 1,55,-1
 608 370 l 1,0,-1
653 575 m 1,56,-1
 720 867 l 1,57,-1
 434 575 l 1,58,-1
 653 575 l 1,56,-1
EndSplineSet
EndChar
StartChar: five
Encoding: 53 53 21
Width: 1228
Flags: W
LayerCount: 2
Back
Fore
SplineSet
175 67 m 0,0,1
 149 82 149 82 145.5 113.5 c 128,-1,2
 142 145 142 145 168 203 c 0,3,4
 182 234 182 234 195.5 252 c 128,-1,5
 209 270 209 270 221.5 278.5 c 128,-1,6
 234 287 234 287 245.5 287.5 c 128,-1,7
 257 288 257 288 268 282 c 0,8,9
 330 248 330 248 399.5 226.5 c 128,-1,10
 469 205 469 205 540 205 c 0,11,12
 601 205 601 205 646 224 c 128,-1,13
 691 243 691 243 721 274.5 c 128,-1,14
 751 306 751 306 765.5 346 c 128,-1,15
 780 386 780 386 780 428 c 0,16,17
 780 491 780 491 742 525 c 128,-1,18
 704 559 704 559 632 559 c 0,19,20
 581 559 581 559 530 549 c 128,-1,21
 479 539 479 539 434 523 c 0,22,23
 413 515 413 515 390 511 c 128,-1,24
 367 507 367 507 349 507 c 0,25,26
 284 507 284 507 260.5 522 c 128,-1,27
 237 537 237 537 245 572 c 2,28,-1
 375 1122 l 2,29,30
 383 1157 383 1157 400 1172 c 128,-1,31
 417 1187 417 1187 452 1187 c 2,32,-1
 1060 1187 l 2,33,34
 1077 1187 1077 1187 1088 1182 c 128,-1,35
 1099 1177 1099 1177 1104.5 1165 c 128,-1,36
 1110 1153 1110 1153 1110 1132 c 128,-1,37
 1110 1111 1110 1111 1104 1079 c 256,38,39
 1098 1047 1098 1047 1091 1026.5 c 128,-1,40
 1084 1006 1084 1006 1074 994 c 128,-1,41
 1064 982 1064 982 1051.5 977 c 128,-1,42
 1039 972 1039 972 1022 972 c 2,43,-1
 580 972 l 1,44,-1
 527 749 l 1,45,46
 577 767 577 767 621 776.5 c 128,-1,47
 665 786 665 786 715 786 c 0,48,49
 797 786 797 786 859.5 761 c 128,-1,50
 922 736 922 736 964 692.5 c 128,-1,51
 1006 649 1006 649 1027 588.5 c 128,-1,52
 1048 528 1048 528 1048 458 c 0,53,54
 1048 373 1048 373 1022 288 c 128,-1,55
 996 203 996 203 941 136 c 0,56,57
 881 63 881 63 779 20.5 c 128,-1,58
 677 -22 677 -22 520 -22 c 0,59,60
 424 -22 424 -22 334.5 2 c 128,-1,61
 245 26 245 26 175 67 c 0,0,1
EndSplineSet
EndChar
StartChar: six
Encoding: 54 54 22
Width: 1228
Flags: W
LayerCount: 2
Back
Fore
SplineSet
566 -22 m 0,0,1
 432 -22 432 -22 344 35 c 128,-1,2
 256 92 256 92 211 186 c 0,3,4
 191 226 191 226 181 280.5 c 128,-1,5
 171 335 171 335 171 398 c 0,6,7
 171 463 171 463 183.5 540.5 c 128,-1,8
 196 618 196 618 225 697.5 c 128,-1,9
 254 777 254 777 300.5 853.5 c 128,-1,10
 347 930 347 930 416 993 c 0,11,12
 527 1095 527 1095 688 1149.5 c 128,-1,13
 849 1204 849 1204 1069 1209 c 0,14,15
 1096 1210 1096 1210 1107.5 1184.5 c 128,-1,16
 1119 1159 1119 1159 1121 1102 c 0,17,18
 1123 1033 1123 1033 1107 1000.5 c 128,-1,19
 1091 968 1091 968 1068 967 c 0,20,21
 930 964 930 964 828.5 942 c 128,-1,22
 727 920 727 920 655 879 c 128,-1,23
 583 838 583 838 536 777 c 128,-1,24
 489 716 489 716 461 634 c 1,25,26
 522 686 522 686 590 713.5 c 128,-1,27
 658 741 658 741 745 741 c 0,28,29
 820 741 820 741 880.5 717 c 128,-1,30
 941 693 941 693 984.5 650 c 128,-1,31
 1028 607 1028 607 1051.5 548 c 128,-1,32
 1075 489 1075 489 1075 420 c 0,33,34
 1075 334 1075 334 1041.5 254 c 128,-1,35
 1008 174 1008 174 943 112.5 c 128,-1,36
 878 51 878 51 783 14.5 c 128,-1,37
 688 -22 688 -22 566 -22 c 0,0,1
595 201 m 0,38,39
 648 201 648 201 689.5 217.5 c 128,-1,40
 731 234 731 234 759.5 261.5 c 128,-1,41
 788 289 788 289 802.5 325 c 128,-1,42
 817 361 817 361 817 400 c 0,43,44
 817 462 817 462 776 495.5 c 128,-1,45
 735 529 735 529 660 529 c 0,46,47
 607 529 607 529 564.5 513.5 c 128,-1,48
 522 498 522 498 492.5 472 c 128,-1,49
 463 446 463 446 447.5 411.5 c 128,-1,50
 432 377 432 377 432 340 c 0,51,52
 432 311 432 311 442.5 285.5 c 128,-1,53
 453 260 453 260 473.5 241.5 c 128,-1,54
 494 223 494 223 524.5 212 c 128,-1,55
 555 201 555 201 595 201 c 0,38,39
EndSplineSet
EndChar
StartChar: seven
Encoding: 55 55 23
Width: 1228
Flags: W
LayerCount: 2
Back
Fore
SplineSet
870 972 m 1,0,-1
 519 972 l 1,1,-1
 482 760 l 2,2,3
 479 743 479 743 472 731 c 128,-1,4
 465 719 465 719 451 711.5 c 128,-1,5
 437 704 437 704 415.5 700.5 c 128,-1,6
 394 697 394 697 362 697 c 0,7,8
 298 697 298 697 272 711.5 c 128,-1,9
 246 726 246 726 252 760 c 2,10,-1
 315 1122 l 2,11,12
 321 1157 321 1157 339 1172 c 128,-1,13
 357 1187 357 1187 392 1187 c 2,14,-1
 1156 1187 l 2,15,16
 1173 1187 1173 1187 1184 1183 c 128,-1,17
 1195 1179 1195 1179 1201 1167.5 c 128,-1,18
 1207 1156 1207 1156 1207 1136 c 128,-1,19
 1207 1116 1207 1116 1201 1084 c 0,20,21
 1192 1034 1192 1034 1179 1012 c 2,22,-1
 603 24 l 2,23,24
 589 0 589 0 560 -11 c 128,-1,25
 531 -22 531 -22 498 -22 c 0,26,27
 466 -22 466 -22 434.5 -13.5 c 128,-1,28
 403 -5 403 -5 381 11 c 128,-1,29
 359 27 359 27 351.5 49 c 128,-1,30
 344 71 344 71 359 97 c 2,31,-1
 870 972 l 1,0,-1
EndSplineSet
EndChar
StartChar: eight
Encoding: 56 56 24
Width: 1228
Flags: W
LayerCount: 2
Back
Fore
SplineSet
540 -22 m 0,0,1
 451 -22 451 -22 380.5 0 c 128,-1,2
 310 22 310 22 260.5 62.5 c 128,-1,3
 211 103 211 103 184.5 159.5 c 128,-1,4
 158 216 158 216 158 286 c 0,5,6
 158 413 158 413 223.5 500.5 c 128,-1,7
 289 588 289 588 415 625 c 1,8,9
 357 657 357 657 324 708 c 128,-1,10
 291 759 291 759 291 832 c 0,11,12
 291 901 291 901 320.5 969 c 128,-1,13
 350 1037 350 1037 408.5 1090 c 128,-1,14
 467 1143 467 1143 554 1176 c 128,-1,15
 641 1209 641 1209 757 1209 c 0,16,17
 841 1209 841 1209 905.5 1185 c 128,-1,18
 970 1161 970 1161 1013.5 1120 c 128,-1,19
 1057 1079 1057 1079 1079.5 1024.5 c 128,-1,20
 1102 970 1102 970 1102 910 c 0,21,22
 1102 853 1102 853 1086.5 805.5 c 128,-1,23
 1071 758 1071 758 1043 720.5 c 128,-1,24
 1015 683 1015 683 977 656 c 128,-1,25
 939 629 939 629 893 613 c 1,26,27
 965 580 965 580 1006.5 522 c 128,-1,28
 1048 464 1048 464 1048 379 c 0,29,30
 1048 308 1048 308 1021 236.5 c 128,-1,31
 994 165 994 165 933.5 107.5 c 128,-1,32
 873 50 873 50 776 14 c 128,-1,33
 679 -22 679 -22 540 -22 c 0,0,1
578 196 m 0,34,35
 633 196 633 196 672.5 213 c 128,-1,36
 712 230 712 230 737.5 258 c 128,-1,37
 763 286 763 286 775 321 c 128,-1,38
 787 356 787 356 787 391 c 0,39,40
 787 449 787 449 749.5 483.5 c 128,-1,41
 712 518 712 518 635 518 c 0,42,43
 580 518 580 518 540.5 500.5 c 128,-1,44
 501 483 501 483 475.5 455 c 128,-1,45
 450 427 450 427 437.5 392 c 128,-1,46
 425 357 425 357 425 321 c 0,47,48
 425 264 425 264 463 230 c 128,-1,49
 501 196 501 196 578 196 c 0,34,35
669 712 m 0,50,51
 716 712 716 712 750 727 c 128,-1,52
 784 742 784 742 806.5 766 c 128,-1,53
 829 790 829 790 840 819.5 c 128,-1,54
 851 849 851 849 851 878 c 0,55,56
 851 930 851 930 816 960.5 c 128,-1,57
 781 991 781 991 718 991 c 0,58,59
 674 991 674 991 640.5 977 c 128,-1,60
 607 963 607 963 583.5 939.5 c 128,-1,61
 560 916 560 916 548 885.5 c 128,-1,62
 536 855 536 855 536 822 c 0,63,64
 536 771 536 771 570 741.5 c 128,-1,65
 604 712 604 712 669 712 c 0,50,51
EndSplineSet
EndChar
StartChar: nine
Encoding: 57 57 25
Width: 1228
Flags: W
LayerCount: 2
Back
Fore
SplineSet
835 553 m 1,0,1
 774 501 774 501 706 473.5 c 128,-1,2
 638 446 638 446 551 446 c 0,3,4
 476 446 476 446 415.5 470 c 128,-1,5
 355 494 355 494 311.5 537 c 128,-1,6
 268 580 268 580 244.5 639 c 128,-1,7
 221 698 221 698 221 767 c 0,8,9
 221 853 221 853 254.5 933 c 128,-1,10
 288 1013 288 1013 353 1074.5 c 128,-1,11
 418 1136 418 1136 513 1172.5 c 128,-1,12
 608 1209 608 1209 730 1209 c 0,13,14
 864 1209 864 1209 952 1152 c 128,-1,15
 1040 1095 1040 1095 1085 1001 c 0,16,17
 1105 961 1105 961 1115 906.5 c 128,-1,18
 1125 852 1125 852 1125 789 c 0,19,20
 1125 736 1125 736 1114 660 c 128,-1,21
 1103 584 1103 584 1075.5 501 c 128,-1,22
 1048 418 1048 418 1001.5 336 c 128,-1,23
 955 254 955 254 885 189 c 0,24,25
 781 93 781 93 626 39.5 c 128,-1,26
 471 -14 471 -14 257 -22 c 0,27,28
 230 -23 230 -23 218.5 2.5 c 128,-1,29
 207 28 207 28 205 85 c 0,30,31
 203 154 203 154 219 186 c 128,-1,32
 235 218 235 218 258 220 c 0,33,34
 396 227 396 227 493.5 249 c 128,-1,35
 591 271 591 271 658.5 311.5 c 128,-1,36
 726 352 726 352 767.5 411.5 c 128,-1,37
 809 471 809 471 835 553 c 1,0,1
701 986 m 0,38,39
 648 986 648 986 606.5 969.5 c 128,-1,40
 565 953 565 953 536.5 925.5 c 128,-1,41
 508 898 508 898 493.5 862 c 128,-1,42
 479 826 479 826 479 787 c 0,43,44
 479 725 479 725 520 691.5 c 128,-1,45
 561 658 561 658 636 658 c 0,46,47
 689 658 689 658 731.5 673.5 c 128,-1,48
 774 689 774 689 803.5 715 c 128,-1,49
 833 741 833 741 848.5 775 c 128,-1,50
 864 809 864 809 864 847 c 0,51,52
 864 876 864 876 853.5 901.5 c 128,-1,53
 843 927 843 927 822.5 945.5 c 128,-1,54
 802 964 802 964 771.5 975 c 128,-1,55
 741 986 741 986 701 986 c 0,38,39
EndSplineSet
EndChar
StartChar: colon
Encoding: 58 58 26
Width: 1228
Flags: W
LayerCount: 2
Back
Fore
SplineSet
554 -22 m 0,0,1
 516 -22 516 -22 484.5 -8.5 c 128,-1,2
 453 5 453 5 430.5 28.5 c 128,-1,3
 408 52 408 52 395 83.5 c 128,-1,4
 382 115 382 115 382 150 c 0,5,6
 382 197 382 197 400.5 237 c 128,-1,7
 419 277 419 277 449.5 306 c 128,-1,8
 480 335 480 335 520 351.5 c 128,-1,9
 560 368 560 368 604 368 c 0,10,11
 641 368 641 368 672.5 354.5 c 128,-1,12
 704 341 704 341 726.5 318 c 128,-1,13
 749 295 749 295 761.5 264 c 128,-1,14
 774 233 774 233 774 198 c 0,15,16
 774 151 774 151 756 111 c 128,-1,17
 738 71 738 71 707.5 41.5 c 128,-1,18
 677 12 677 12 637 -5 c 128,-1,19
 597 -22 597 -22 554 -22 c 0,0,1
646 556 m 0,20,21
 608 556 608 556 576.5 569.5 c 128,-1,22
 545 583 545 583 522.5 606.5 c 128,-1,23
 500 630 500 630 487 661.5 c 128,-1,24
 474 693 474 693 474 728 c 0,25,26
 474 775 474 775 492.5 815 c 128,-1,27
 511 855 511 855 541.5 884 c 128,-1,28
 572 913 572 913 612 929.5 c 128,-1,29
 652 946 652 946 696 946 c 0,30,31
 733 946 733 946 764.5 932.5 c 128,-1,32
 796 919 796 919 818.5 896 c 128,-1,33
 841 873 841 873 853.5 842 c 128,-1,34
 866 811 866 811 866 776 c 0,35,36
 866 729 866 729 848 689 c 128,-1,37
 830 649 830 649 799.5 619.5 c 128,-1,38
 769 590 769 590 729 573 c 128,-1,39
 689 556 689 556 646 556 c 0,20,21
EndSplineSet
EndChar
StartChar: semicolon
Encoding: 59 59 27
Width: 1228
Flags: W
LayerCount: 2
Back
Fore
SplineSet
646 556 m 0,0,1
 608 556 608 556 576.5 569.5 c 128,-1,2
 545 583 545 583 522.5 606.5 c 128,-1,3
 500 630 500 630 487 661.5 c 128,-1,4
 474 693 474 693 474 728 c 0,5,6
 474 775 474 775 492.5 815 c 128,-1,7
 511 855 511 855 541.5 884 c 128,-1,8
 572 913 572 913 612 929.5 c 128,-1,9
 652 946 652 946 696 946 c 0,10,11
 733 946 733 946 764.5 932.5 c 128,-1,12
 796 919 796 919 818.5 896 c 128,-1,13
 841 873 841 873 853.5 842 c 128,-1,14
 866 811 866 811 866 776 c 0,15,16
 866 729 866 729 848 689 c 128,-1,17
 830 649 830 649 799.5 619.5 c 128,-1,18
 769 590 769 590 729 573 c 128,-1,19
 689 556 689 556 646 556 c 0,0,1
420 -253 m 2,20,21
 392 -294 392 -294 322 -294 c 0,22,23
 280 -294 280 -294 259 -277.5 c 128,-1,24
 238 -261 238 -261 248 -228 c 2,25,-1
 413 314 l 2,26,27
 419 334 419 334 435 344 c 128,-1,28
 451 354 451 354 472 354 c 2,29,-1
 771 354 l 2,30,31
 796 354 796 354 800.5 335.5 c 128,-1,32
 805 317 805 317 788 291 c 2,33,-1
 420 -253 l 2,20,21
EndSplineSet
EndChar
StartChar: less
Encoding: 60 60 28
Width: 1228
Flags: W
LayerCount: 2
Back
Fore
SplineSet
1012 288 m 2,0,1
 1041 272 1041 272 1043.5 243 c 128,-1,2
 1046 214 1046 214 1011 154 c 256,3,4
 976 94 976 94 950 81 c 128,-1,5
 924 68 924 68 896 84 c 2,6,-1
 182 489 l 2,7,8
 160 501 160 501 152 520.5 c 128,-1,9
 144 540 144 540 152 583 c 256,10,11
 160 626 160 626 174.5 645 c 128,-1,12
 189 664 189 664 215 677 c 2,13,-1
 1060 1076 l 2,14,15
 1076 1084 1076 1084 1090 1085.5 c 128,-1,16
 1104 1087 1104 1087 1116.5 1079.5 c 128,-1,17
 1129 1072 1129 1072 1140.5 1054.5 c 128,-1,18
 1152 1037 1152 1037 1164 1007 c 0,19,20
 1188 947 1188 947 1180.5 916.5 c 128,-1,21
 1173 886 1173 886 1139 870 c 2,22,-1
 491 573 l 1,23,-1
 1012 288 l 2,0,1
EndSplineSet
EndChar
StartChar: equal
Encoding: 61 61 29
Width: 1228
Flags: W
LayerCount: 2
Back
Fore
SplineSet
1087 924 m 2,0,1
 1104 924 1104 924 1115 919.5 c 128,-1,2
 1126 915 1126 915 1131.5 903 c 128,-1,3
 1137 891 1137 891 1137 869 c 128,-1,4
 1137 847 1137 847 1131 811 c 256,5,6
 1125 775 1125 775 1117.5 753 c 128,-1,7
 1110 731 1110 731 1100 719 c 128,-1,8
 1090 707 1090 707 1077.5 703 c 128,-1,9
 1065 699 1065 699 1048 699 c 2,10,-1
 286 699 l 2,11,12
 269 699 269 699 258 703 c 128,-1,13
 247 707 247 707 241.5 719 c 128,-1,14
 236 731 236 731 236.5 753 c 128,-1,15
 237 775 237 775 243 811 c 256,16,17
 249 847 249 847 256 869 c 128,-1,18
 263 891 263 891 273 903 c 128,-1,19
 283 915 283 915 295.5 919.5 c 128,-1,20
 308 924 308 924 325 924 c 2,21,-1
 1087 924 l 2,0,1
1007 466 m 2,22,23
 1024 466 1024 466 1035 461.5 c 128,-1,24
 1046 457 1046 457 1051.5 445 c 128,-1,25
 1057 433 1057 433 1056.5 411 c 128,-1,26
 1056 389 1056 389 1050 353 c 256,27,28
 1044 317 1044 317 1036.5 295 c 128,-1,29
 1029 273 1029 273 1019 261 c 128,-1,30
 1009 249 1009 249 996.5 245 c 128,-1,31
 984 241 984 241 967 241 c 2,32,-1
 205 241 l 2,33,34
 188 241 188 241 177 245 c 128,-1,35
 166 249 166 249 160.5 261 c 128,-1,36
 155 273 155 273 155.5 295 c 128,-1,37
 156 317 156 317 162 353 c 256,38,39
 168 389 168 389 175.5 411 c 128,-1,40
 183 433 183 433 192.5 445 c 128,-1,41
 202 457 202 457 215 461.5 c 128,-1,42
 228 466 228 466 245 466 c 2,43,-1
 1007 466 l 2,22,23
EndSplineSet
EndChar
StartChar: greater
Encoding: 62 62 30
Width: 1228
Flags: W
LayerCount: 2
Back
Fore
SplineSet
280 878 m 2,0,1
 251 894 251 894 248.5 923 c 128,-1,2
 246 952 246 952 281 1012 c 256,3,4
 316 1072 316 1072 342 1085 c 128,-1,5
 368 1098 368 1098 396 1082 c 2,6,-1
 1110 677 l 2,7,8
 1132 665 1132 665 1140 645.5 c 128,-1,9
 1148 626 1148 626 1140 583 c 256,10,11
 1132 540 1132 540 1117.5 521 c 128,-1,12
 1103 502 1103 502 1077 489 c 2,13,-1
 232 90 l 2,14,15
 215 82 215 82 201.5 80.5 c 128,-1,16
 188 79 188 79 175.5 86.5 c 128,-1,17
 163 94 163 94 151.5 111.5 c 128,-1,18
 140 129 140 129 128 159 c 0,19,20
 104 219 104 219 111.5 249.5 c 128,-1,21
 119 280 119 280 153 296 c 2,22,-1
 801 593 l 1,23,-1
 280 878 l 2,0,1
EndSplineSet
EndChar
StartChar: question
Encoding: 63 63 31
Width: 1228
Flags: W
LayerCount: 2
Back
Fore
SplineSet
697 467 m 2,0,1
 690 444 690 444 667.5 431.5 c 128,-1,2
 645 419 645 419 587 419 c 256,3,4
 529 419 529 419 511 431.5 c 128,-1,5
 493 444 493 444 495 467 c 2,6,-1
 514 675 l 2,7,8
 516 695 516 695 524.5 709 c 128,-1,9
 533 723 533 723 553 726 c 2,10,-1
 666 744 l 2,11,12
 726 754 726 754 763 774 c 128,-1,13
 800 794 800 794 817 829 c 0,14,15
 824 843 824 843 828 860 c 128,-1,16
 832 877 832 877 832 896 c 0,17,18
 832 943 832 943 798 967.5 c 128,-1,19
 764 992 764 992 695 992 c 0,20,21
 654 992 654 992 614.5 984 c 128,-1,22
 575 976 575 976 537 962 c 1,23,-1
 519 860 l 2,24,25
 516 843 516 843 509 831 c 128,-1,26
 502 819 502 819 488.5 811.5 c 128,-1,27
 475 804 475 804 453.5 800.5 c 128,-1,28
 432 797 432 797 400 797 c 0,29,30
 336 797 336 797 309.5 811.5 c 128,-1,31
 283 826 283 826 289 860 c 2,32,-1
 326 1070 l 2,33,34
 334 1113 334 1113 378 1131 c 0,35,36
 465 1168 465 1168 551.5 1188.5 c 128,-1,37
 638 1209 638 1209 723 1209 c 0,38,39
 812 1209 812 1209 880.5 1189 c 128,-1,40
 949 1169 949 1169 995 1132 c 128,-1,41
 1041 1095 1041 1095 1064.5 1043 c 128,-1,42
 1088 991 1088 991 1088 927 c 0,43,44
 1088 882 1088 882 1077.5 835 c 128,-1,45
 1067 788 1067 788 1046 749 c 0,46,47
 1024 708 1024 708 993 677.5 c 128,-1,48
 962 647 962 647 921.5 623.5 c 128,-1,49
 881 600 881 600 831 581.5 c 128,-1,50
 781 563 781 563 720 548 c 1,51,-1
 697 467 l 2,0,1
532 -22 m 0,52,53
 499 -22 499 -22 471.5 -10 c 128,-1,54
 444 2 444 2 423.5 22.5 c 128,-1,55
 403 43 403 43 392 70.5 c 128,-1,56
 381 98 381 98 381 129 c 0,57,58
 381 170 381 170 397 205 c 128,-1,59
 413 240 413 240 440 266 c 128,-1,60
 467 292 467 292 502.5 306.5 c 128,-1,61
 538 321 538 321 576 321 c 0,62,63
 609 321 609 321 636.5 309 c 128,-1,64
 664 297 664 297 684 276.5 c 128,-1,65
 704 256 704 256 715 229 c 128,-1,66
 726 202 726 202 726 171 c 0,67,68
 726 130 726 130 710 94.5 c 128,-1,69
 694 59 694 59 667 33 c 128,-1,70
 640 7 640 7 605 -7.5 c 128,-1,71
 570 -22 570 -22 532 -22 c 0,52,53
EndSplineSet
EndChar
StartChar: at
Encoding: 64 64 32
Width: 1228
Flags: W
LayerCount: 2
Back
Fore
SplineSet
541 281 m 0,0,1
 557 281 557 281 574.5 291 c 128,-1,2
 592 301 592 301 610 318 c 128,-1,3
 628 335 628 335 645 357 c 128,-1,4
 662 379 662 379 677 404 c 0,5,6
 709 458 709 458 724 500 c 128,-1,7
 739 542 739 542 739 580 c 0,8,9
 739 610 739 610 726.5 626.5 c 128,-1,10
 714 643 714 643 687 643 c 0,11,12
 659 643 659 643 623.5 612 c 128,-1,13
 588 581 588 581 556 533 c 0,14,15
 526 486 526 486 507.5 436 c 128,-1,16
 489 386 489 386 489 348 c 0,17,18
 489 315 489 315 503.5 298 c 128,-1,19
 518 281 518 281 541 281 c 0,0,1
690 261 m 1,20,21
 643 196 643 196 588 156.5 c 128,-1,22
 533 117 533 117 467 117 c 0,23,24
 397 117 397 117 353 166 c 128,-1,25
 309 215 309 215 309 303 c 0,26,27
 309 356 309 356 325 413 c 128,-1,28
 341 470 341 470 369 525 c 128,-1,29
 397 580 397 580 435 630 c 128,-1,30
 473 680 473 680 517 718 c 128,-1,31
 561 756 561 756 609 778 c 128,-1,32
 657 800 657 800 705 800 c 0,33,34
 758 800 758 800 783.5 767.5 c 128,-1,35
 809 735 809 735 816 685 c 1,36,-1
 861 754 l 2,37,38
 867 763 867 763 888.5 763.5 c 128,-1,39
 910 764 910 764 932 757 c 0,40,41
 953 751 953 751 967 740.5 c 128,-1,42
 981 730 981 730 976 716 c 2,43,-1
 849 404 l 2,44,45
 830 360 830 360 830 330 c 0,46,47
 830 304 830 304 843 291 c 128,-1,48
 856 278 856 278 876 278 c 0,49,50
 915 278 915 278 949 309 c 128,-1,51
 983 340 983 340 1008 389.5 c 128,-1,52
 1033 439 1033 439 1047.5 500.5 c 128,-1,53
 1062 562 1062 562 1062 624 c 0,54,55
 1062 693 1062 693 1041.5 748.5 c 128,-1,56
 1021 804 1021 804 981 843.5 c 128,-1,57
 941 883 941 883 882.5 904 c 128,-1,58
 824 925 824 925 748 925 c 0,59,60
 665 925 665 925 591 898 c 128,-1,61
 517 871 517 871 454.5 824.5 c 128,-1,62
 392 778 392 778 342 716.5 c 128,-1,63
 292 655 292 655 257 585 c 128,-1,64
 222 515 222 515 203.5 440.5 c 128,-1,65
 185 366 185 366 185 295 c 0,66,67
 185 228 185 228 204.5 173.5 c 128,-1,68
 224 119 224 119 262 80.5 c 128,-1,69
 300 42 300 42 357.5 21 c 128,-1,70
 415 0 415 0 490 0 c 0,71,72
 570 0 570 0 635.5 11.5 c 128,-1,73
 701 23 701 23 755 40 c 0,74,75
 773 46 773 46 785.5 35 c 128,-1,76
 798 24 798 24 805 -19 c 0,77,78
 811 -57 811 -57 804 -75.5 c 128,-1,79
 797 -94 797 -94 780 -101 c 0,80,81
 751 -113 751 -113 715.5 -122.5 c 128,-1,82
 680 -132 680 -132 640 -138.5 c 128,-1,83
 600 -145 600 -145 558 -149 c 128,-1,84
 516 -153 516 -153 475 -153 c 0,85,86
 367 -153 367 -153 283.5 -121.5 c 128,-1,87
 200 -90 200 -90 142 -32.5 c 128,-1,88
 84 25 84 25 54 105.5 c 128,-1,89
 24 186 24 186 24 285 c 0,90,91
 24 378 24 378 48 473 c 128,-1,92
 72 568 72 568 117 656 c 128,-1,93
 162 744 162 744 227.5 821 c 128,-1,94
 293 898 293 898 376 955 c 128,-1,95
 459 1012 459 1012 558 1045 c 128,-1,96
 657 1078 657 1078 770 1078 c 0,97,98
 875 1078 875 1078 958 1044 c 128,-1,99
 1041 1010 1041 1010 1098 950 c 128,-1,100
 1155 890 1155 890 1185.5 807 c 128,-1,101
 1216 724 1216 724 1216 627 c 0,102,103
 1216 527 1216 527 1189.5 435.5 c 128,-1,104
 1163 344 1163 344 1114 274.5 c 128,-1,105
 1065 205 1065 205 996 163.5 c 128,-1,106
 927 122 927 122 842 122 c 0,107,108
 770 122 770 122 732.5 161 c 128,-1,109
 695 200 695 200 690 261 c 1,20,21
EndSplineSet
EndChar
StartChar: A
Encoding: 65 65 33
Width: 1228
Flags: W
LayerCount: 2
Back
Fore
SplineSet
489 982 m 1,0,-1
 326 982 l 2,1,2
 309 982 309 982 298 986 c 128,-1,3
 287 990 287 990 281 1001.5 c 128,-1,4
 275 1013 275 1013 275 1033 c 128,-1,5
 275 1053 275 1053 281 1085 c 256,6,7
 287 1117 287 1117 294 1137 c 128,-1,8
 301 1157 301 1157 310.5 1168 c 128,-1,9
 320 1179 320 1179 332.5 1183 c 128,-1,10
 345 1187 345 1187 362 1187 c 2,11,-1
 832 1187 l 2,12,13
 872 1187 872 1187 894 1172 c 128,-1,14
 916 1157 916 1157 921 1122 c 2,15,-1
 1050 205 l 1,16,-1
 1141 205 l 2,17,18
 1158 205 1158 205 1169 201 c 128,-1,19
 1180 197 1180 197 1186 186 c 128,-1,20
 1192 175 1192 175 1192 155 c 128,-1,21
 1192 135 1192 135 1186 103 c 256,22,23
 1180 71 1180 71 1173 51 c 128,-1,24
 1166 31 1166 31 1156.5 19.5 c 128,-1,25
 1147 8 1147 8 1134.5 4 c 128,-1,26
 1122 0 1122 0 1105 0 c 2,27,-1
 681 0 l 2,28,29
 664 0 664 0 653 4 c 128,-1,30
 642 8 642 8 636 19.5 c 128,-1,31
 630 31 630 31 630 51 c 128,-1,32
 630 71 630 71 636 103 c 256,33,34
 642 135 642 135 649 155 c 128,-1,35
 656 175 656 175 665.5 186 c 128,-1,36
 675 197 675 197 687.5 201 c 128,-1,37
 700 205 700 205 717 205 c 2,38,-1
 807 205 l 1,39,-1
 787 350 l 1,40,-1
 423 350 l 1,41,-1
 353 205 l 1,42,-1
 423 205 l 2,43,44
 440 205 440 205 451 201 c 128,-1,45
 462 197 462 197 468 186 c 128,-1,46
 474 175 474 175 474 155 c 128,-1,47
 474 135 474 135 468 103 c 256,48,49
 462 71 462 71 455 51 c 128,-1,50
 448 31 448 31 438.5 19.5 c 128,-1,51
 429 8 429 8 416.5 4 c 128,-1,52
 404 0 404 0 387 0 c 2,53,-1
 -17 0 l 2,54,55
 -34 0 -34 0 -45 4 c 128,-1,56
 -56 8 -56 8 -61.5 19.5 c 128,-1,57
 -67 31 -67 31 -67 51 c 128,-1,58
 -67 71 -67 71 -62 103 c 0,59,60
 -56 135 -56 135 -49 155 c 128,-1,61
 -42 175 -42 175 -32.5 186 c 128,-1,62
 -23 197 -23 197 -10.5 201 c 128,-1,63
 2 205 2 205 19 205 c 2,64,-1
 99 205 l 1,65,-1
 489 982 l 1,0,-1
766 555 m 1,66,-1
 722 982 l 1,67,-1
 716 982 l 1,68,-1
 517 555 l 1,69,-1
 766 555 l 1,66,-1
EndSplineSet
EndChar
StartChar: B
Encoding: 66 66 34
Width: 1228
Flags: W
LayerCount: 2
Back
Fore
SplineSet
343 982 m 1,0,-1
 236 982 l 2,1,2
 219 982 219 982 208 986 c 128,-1,3
 197 990 197 990 191 1001 c 128,-1,4
 185 1012 185 1012 185 1032 c 128,-1,5
 185 1052 185 1052 191 1084 c 256,6,7
 197 1116 197 1116 204 1136 c 128,-1,8
 211 1156 211 1156 220.5 1167.5 c 128,-1,9
 230 1179 230 1179 242.5 1183 c 128,-1,10
 255 1187 255 1187 272 1187 c 2,11,-1
 773 1187 l 2,12,13
 869 1187 869 1187 939.5 1167 c 128,-1,14
 1010 1147 1010 1147 1056.5 1110.5 c 128,-1,15
 1103 1074 1103 1074 1126 1023.5 c 128,-1,16
 1149 973 1149 973 1149 913 c 0,17,18
 1149 810 1149 810 1098.5 738.5 c 128,-1,19
 1048 667 1048 667 950 625 c 1,20,21
 1037 600 1037 600 1084.5 542.5 c 128,-1,22
 1132 485 1132 485 1132 394 c 0,23,24
 1132 358 1132 358 1125 321 c 128,-1,25
 1118 284 1118 284 1104.5 248 c 128,-1,26
 1091 212 1091 212 1070 179 c 128,-1,27
 1049 146 1049 146 1021 119 c 0,28,29
 958 58 958 58 862 29 c 128,-1,30
 766 0 766 0 640 0 c 2,31,-1
 63 0 l 2,32,33
 46 0 46 0 34.5 4 c 128,-1,34
 23 8 23 8 17.5 19 c 128,-1,35
 12 30 12 30 11.5 50 c 128,-1,36
 11 70 11 70 17 102 c 256,37,38
 23 134 23 134 30 154 c 128,-1,39
 37 174 37 174 46.5 185.5 c 128,-1,40
 56 197 56 197 69 201 c 128,-1,41
 82 205 82 205 99 205 c 2,42,-1
 206 205 l 1,43,-1
 343 982 l 1,0,-1
650 215 m 2,44,45
 771 215 771 215 824 267 c 0,46,47
 847 289 847 289 859 320 c 128,-1,48
 871 351 871 351 871 386 c 0,49,50
 871 499 871 499 699 499 c 2,51,-1
 507 499 l 1,52,-1
 458 215 l 1,53,-1
 650 215 l 2,44,45
688 714 m 2,54,55
 804 714 804 714 853 767 c 0,56,57
 871 787 871 787 881 816 c 128,-1,58
 891 845 891 845 891 875 c 0,59,60
 891 926 891 926 852.5 949 c 128,-1,61
 814 972 814 972 733 972 c 2,62,-1
 591 972 l 1,63,-1
 546 714 l 1,64,-1
 688 714 l 2,54,55
EndSplineSet
EndChar
StartChar: C
Encoding: 67 67 35
Width: 1228
Flags: W
LayerCount: 2
Back
Fore
SplineSet
1016 1146 m 2,0,1
 1023 1180 1023 1180 1054 1194.5 c 128,-1,2
 1085 1209 1085 1209 1149 1209 c 256,3,4
 1213 1209 1213 1209 1232.5 1194.5 c 128,-1,5
 1252 1180 1252 1180 1246 1146 c 2,6,-1
 1178 762 l 2,7,8
 1172 728 1172 728 1139.5 713.5 c 128,-1,9
 1107 699 1107 699 1035 699 c 0,10,11
 999 699 999 699 977 702.5 c 128,-1,12
 955 706 955 706 943 713.5 c 128,-1,13
 931 721 931 721 928 733 c 128,-1,14
 925 745 925 745 928 762 c 0,15,16
 937 810 937 810 930.5 850.5 c 128,-1,17
 924 891 924 891 903 920.5 c 128,-1,18
 882 950 882 950 845.5 966 c 128,-1,19
 809 982 809 982 757 982 c 0,20,21
 675 982 675 982 611 947.5 c 128,-1,22
 547 913 547 913 500 847 c 0,23,24
 474 810 474 810 454.5 764.5 c 128,-1,25
 435 719 435 719 421.5 669.5 c 128,-1,26
 408 620 408 620 401 570 c 128,-1,27
 394 520 394 520 394 475 c 0,28,29
 394 344 394 344 454 274.5 c 128,-1,30
 514 205 514 205 630 205 c 0,31,32
 676 205 676 205 719 212 c 128,-1,33
 762 219 762 219 805 231.5 c 128,-1,34
 848 244 848 244 891.5 262 c 128,-1,35
 935 280 935 280 982 302 c 0,36,37
 1015 317 1015 317 1040 300 c 128,-1,38
 1065 283 1065 283 1082 225 c 0,39,40
 1099 165 1099 165 1089.5 132.5 c 128,-1,41
 1080 100 1080 100 1045 84 c 0,42,43
 931 32 931 32 819 5 c 128,-1,44
 707 -22 707 -22 600 -22 c 0,45,46
 492 -22 492 -22 405 13 c 128,-1,47
 318 48 318 48 256.5 112 c 128,-1,48
 195 176 195 176 161.5 267 c 128,-1,49
 128 358 128 358 128 471 c 0,50,51
 128 542 128 542 140.5 616.5 c 128,-1,52
 153 691 153 691 178.5 763 c 128,-1,53
 204 835 204 835 241 900.5 c 128,-1,54
 278 966 278 966 328 1020 c 0,55,56
 413 1113 413 1113 522.5 1161 c 128,-1,57
 632 1209 632 1209 757 1209 c 0,58,59
 851 1209 851 1209 912.5 1172.5 c 128,-1,60
 974 1136 974 1136 1003 1078 c 1,61,-1
 1016 1146 l 2,0,1
EndSplineSet
EndChar
StartChar: D
Encoding: 68 68 36
Width: 1228
Flags: W
LayerCount: 2
Back
Fore
SplineSet
323 982 m 1,0,-1
 226 982 l 2,1,2
 209 982 209 982 198 986 c 128,-1,3
 187 990 187 990 181 1001 c 128,-1,4
 175 1012 175 1012 175 1032 c 128,-1,5
 175 1052 175 1052 181 1084 c 256,6,7
 187 1116 187 1116 194 1136 c 128,-1,8
 201 1156 201 1156 210.5 1167.5 c 128,-1,9
 220 1179 220 1179 232.5 1183 c 128,-1,10
 245 1187 245 1187 262 1187 c 2,11,-1
 713 1187 l 2,12,13
 827 1187 827 1187 917 1155 c 128,-1,14
 1007 1123 1007 1123 1069.5 1062.5 c 128,-1,15
 1132 1002 1132 1002 1165 915 c 128,-1,16
 1198 828 1198 828 1198 718 c 0,17,18
 1198 658 1198 658 1187.5 589.5 c 128,-1,19
 1177 521 1177 521 1156 452.5 c 128,-1,20
 1135 384 1135 384 1103 319.5 c 128,-1,21
 1071 255 1071 255 1027 203 c 0,22,23
 942 101 942 101 821.5 50.5 c 128,-1,24
 701 0 701 0 544 0 c 2,25,-1
 53 0 l 2,26,27
 36 0 36 0 24.5 4 c 128,-1,28
 13 8 13 8 7.5 19 c 128,-1,29
 2 30 2 30 1.5 50 c 128,-1,30
 1 70 1 70 7 102 c 256,31,32
 13 134 13 134 20 154 c 128,-1,33
 27 174 27 174 36.5 185.5 c 128,-1,34
 46 197 46 197 59 201 c 128,-1,35
 72 205 72 205 89 205 c 2,36,-1
 186 205 l 1,37,-1
 323 982 l 1,0,-1
542 215 m 2,38,39
 714 215 714 215 814 335 c 0,40,41
 845 372 845 372 867 418.5 c 128,-1,42
 889 465 889 465 903.5 515 c 128,-1,43
 918 565 918 565 925 616 c 128,-1,44
 932 667 932 667 932 712 c 0,45,46
 932 841 932 841 868 906.5 c 128,-1,47
 804 972 804 972 675 972 c 2,48,-1
 571 972 l 1,49,-1
 438 215 l 1,50,-1
 542 215 l 2,38,39
EndSplineSet
EndChar
StartChar: E
Encoding: 69 69 37
Width: 1228
Flags: W
LayerCount: 2
Back
Fore
SplineSet
323 982 m 1,0,-1
 226 982 l 2,1,2
 209 982 209 982 198 986 c 128,-1,3
 187 990 187 990 181 1001 c 128,-1,4
 175 1012 175 1012 175 1032 c 128,-1,5
 175 1052 175 1052 181 1084 c 256,6,7
 187 1116 187 1116 194 1136 c 128,-1,8
 201 1156 201 1156 210.5 1167.5 c 128,-1,9
 220 1179 220 1179 232.5 1183 c 128,-1,10
 245 1187 245 1187 262 1187 c 2,11,-1
 1174 1187 l 2,12,13
 1209 1187 1209 1187 1221 1172 c 128,-1,14
 1233 1157 1233 1157 1227 1122 c 2,15,-1
 1174 820 l 2,16,17
 1168 786 1168 786 1136.5 771.5 c 128,-1,18
 1105 757 1105 757 1041 757 c 256,19,20
 977 757 977 757 957.5 771.5 c 128,-1,21
 938 786 938 786 944 820 c 2,22,-1
 971 972 l 1,23,-1
 571 972 l 1,24,-1
 526 719 l 1,25,-1
 770 719 l 2,26,27
 787 719 787 719 798 714 c 128,-1,28
 809 709 809 709 814.5 697 c 128,-1,29
 820 685 820 685 820 664 c 128,-1,30
 820 643 820 643 814 611 c 256,31,32
 808 579 808 579 801 558.5 c 128,-1,33
 794 538 794 538 784 526 c 128,-1,34
 774 514 774 514 761.5 509 c 128,-1,35
 749 504 749 504 732 504 c 2,36,-1
 488 504 l 1,37,-1
 437 215 l 1,38,-1
 847 215 l 1,39,-1
 883 417 l 2,40,41
 889 451 889 451 920.5 465.5 c 128,-1,42
 952 480 952 480 1020 480 c 0,43,44
 1054 480 1054 480 1075.5 476.5 c 128,-1,45
 1097 473 1097 473 1108.5 465.5 c 128,-1,46
 1120 458 1120 458 1123 446 c 128,-1,47
 1126 434 1126 434 1123 417 c 2,48,-1
 1061 65 l 2,49,50
 1055 30 1055 30 1037.5 15 c 128,-1,51
 1020 0 1020 0 985 0 c 2,52,-1
 53 0 l 2,53,54
 36 0 36 0 24.5 4 c 128,-1,55
 13 8 13 8 7.5 19 c 128,-1,56
 2 30 2 30 1.5 50 c 128,-1,57
 1 70 1 70 7 102 c 256,58,59
 13 134 13 134 20 154 c 128,-1,60
 27 174 27 174 36.5 185.5 c 128,-1,61
 46 197 46 197 59 201 c 128,-1,62
 72 205 72 205 89 205 c 2,63,-1
 186 205 l 1,64,-1
 323 982 l 1,0,-1
EndSplineSet
EndChar
StartChar: F
Encoding: 70 70 38
Width: 1228
Flags: W
LayerCount: 2
Back
Fore
SplineSet
353 982 m 1,0,-1
 226 982 l 2,1,2
 209 982 209 982 198 986 c 128,-1,3
 187 990 187 990 181 1001 c 128,-1,4
 175 1012 175 1012 175 1032 c 128,-1,5
 175 1052 175 1052 181 1084 c 256,6,7
 187 1116 187 1116 194 1136 c 128,-1,8
 201 1156 201 1156 210.5 1167.5 c 128,-1,9
 220 1179 220 1179 232.5 1183 c 128,-1,10
 245 1187 245 1187 262 1187 c 2,11,-1
 1194 1187 l 2,12,13
 1229 1187 1229 1187 1241 1172 c 128,-1,14
 1253 1157 1253 1157 1247 1122 c 2,15,-1
 1194 820 l 2,16,17
 1188 786 1188 786 1156.5 771.5 c 128,-1,18
 1125 757 1125 757 1061 757 c 256,19,20
 997 757 997 757 977.5 771.5 c 128,-1,21
 958 786 958 786 964 820 c 2,22,-1
 991 972 l 1,23,-1
 601 972 l 1,24,-1
 547 667 l 1,25,-1
 851 667 l 2,26,27
 868 667 868 667 879 662 c 128,-1,28
 890 657 890 657 895.5 645 c 128,-1,29
 901 633 901 633 901 612 c 128,-1,30
 901 591 901 591 895 559 c 256,31,32
 889 527 889 527 882 506.5 c 128,-1,33
 875 486 875 486 865 474 c 128,-1,34
 855 462 855 462 842.5 457 c 128,-1,35
 830 452 830 452 813 452 c 2,36,-1
 509 452 l 1,37,-1
 466 205 l 1,38,-1
 683 205 l 2,39,40
 700 205 700 205 711 201 c 128,-1,41
 722 197 722 197 727.5 185.5 c 128,-1,42
 733 174 733 174 733 154 c 128,-1,43
 733 134 733 134 727 102 c 256,44,45
 721 70 721 70 714.5 50 c 128,-1,46
 708 30 708 30 698.5 19 c 128,-1,47
 689 8 689 8 676.5 4 c 128,-1,48
 664 0 664 0 647 0 c 2,49,-1
 53 0 l 2,50,51
 36 0 36 0 24.5 4 c 128,-1,52
 13 8 13 8 7.5 19 c 128,-1,53
 2 30 2 30 1.5 50 c 128,-1,54
 1 70 1 70 7 102 c 256,55,56
 13 134 13 134 20 154 c 128,-1,57
 27 174 27 174 36.5 185.5 c 128,-1,58
 46 197 46 197 59 201 c 128,-1,59
 72 205 72 205 89 205 c 2,60,-1
 216 205 l 1,61,-1
 353 982 l 1,0,-1
EndSplineSet
EndChar
StartChar: G
Encoding: 71 71 39
Width: 1228
Flags: W
LayerCount: 2
Back
Fore
SplineSet
600 205 m 0,0,1
 710 205 710 205 815 235 c 1,2,-1
 844 402 l 1,3,-1
 651 402 l 2,4,5
 634 402 634 402 623 406 c 128,-1,6
 612 410 612 410 606 421 c 128,-1,7
 600 432 600 432 600 452 c 128,-1,8
 600 472 600 472 606 504 c 256,9,10
 612 536 612 536 619 556 c 128,-1,11
 626 576 626 576 635.5 587.5 c 128,-1,12
 645 599 645 599 658 603 c 128,-1,13
 671 607 671 607 688 607 c 2,14,-1
 1162 607 l 2,15,16
 1179 607 1179 607 1190 603 c 128,-1,17
 1201 599 1201 599 1206.5 587.5 c 128,-1,18
 1212 576 1212 576 1212 556 c 128,-1,19
 1212 536 1212 536 1206 504 c 256,20,21
 1200 472 1200 472 1193 452 c 128,-1,22
 1186 432 1186 432 1176.5 421 c 128,-1,23
 1167 410 1167 410 1154.5 406 c 128,-1,24
 1142 402 1142 402 1125 402 c 2,25,-1
 1094 402 l 1,26,-1
 1047 133 l 2,27,28
 1042 109 1042 109 1030 90.5 c 128,-1,29
 1018 72 1018 72 999 64 c 0,30,31
 901 19 901 19 794 -1.5 c 128,-1,32
 687 -22 687 -22 570 -22 c 0,33,34
 462 -22 462 -22 375 13 c 128,-1,35
 288 48 288 48 226.5 112 c 128,-1,36
 165 176 165 176 131.5 267 c 128,-1,37
 98 358 98 358 98 471 c 0,38,39
 98 542 98 542 110.5 616.5 c 128,-1,40
 123 691 123 691 148.5 763 c 128,-1,41
 174 835 174 835 211 900.5 c 128,-1,42
 248 966 248 966 298 1020 c 0,43,44
 383 1113 383 1113 492.5 1161 c 128,-1,45
 602 1209 602 1209 727 1209 c 0,46,47
 821 1209 821 1209 883.5 1175 c 128,-1,48
 946 1141 946 1141 975 1086 c 1,49,-1
 986 1146 l 2,50,51
 992 1180 992 1180 1023.5 1194.5 c 128,-1,52
 1055 1209 1055 1209 1119 1209 c 256,53,54
 1183 1209 1183 1209 1202.5 1194.5 c 128,-1,55
 1222 1180 1222 1180 1216 1146 c 2,56,-1
 1155 802 l 2,57,58
 1149 768 1149 768 1116.5 753.5 c 128,-1,59
 1084 739 1084 739 1012 739 c 0,60,61
 976 739 976 739 954 742.5 c 128,-1,62
 932 746 932 746 920 753.5 c 128,-1,63
 908 761 908 761 905 773 c 128,-1,64
 902 785 902 785 905 802 c 0,65,66
 920 886 920 886 877.5 934 c 128,-1,67
 835 982 835 982 727 982 c 0,68,69
 645 982 645 982 581 947.5 c 128,-1,70
 517 913 517 913 470 847 c 0,71,72
 444 810 444 810 424.5 764.5 c 128,-1,73
 405 719 405 719 391.5 669.5 c 128,-1,74
 378 620 378 620 371 570 c 128,-1,75
 364 520 364 520 364 475 c 0,76,77
 364 344 364 344 424 274.5 c 128,-1,78
 484 205 484 205 600 205 c 0,0,1
EndSplineSet
EndChar
StartChar: H
Encoding: 72 72 40
Width: 1228
Flags: W
LayerCount: 2
Back
Fore
SplineSet
273 982 m 1,0,-1
 216 982 l 2,1,2
 199 982 199 982 188 986 c 128,-1,3
 177 990 177 990 171 1001 c 128,-1,4
 165 1012 165 1012 165 1032 c 128,-1,5
 165 1052 165 1052 171 1084 c 256,6,7
 177 1116 177 1116 184 1136 c 128,-1,8
 191 1156 191 1156 200.5 1167.5 c 128,-1,9
 210 1179 210 1179 222.5 1183 c 128,-1,10
 235 1187 235 1187 252 1187 c 2,11,-1
 626 1187 l 2,12,13
 643 1187 643 1187 654 1183 c 128,-1,14
 665 1179 665 1179 671 1167.5 c 128,-1,15
 677 1156 677 1156 677 1136 c 128,-1,16
 677 1116 677 1116 671 1084 c 256,17,18
 665 1052 665 1052 658 1032 c 128,-1,19
 651 1012 651 1012 641.5 1001 c 128,-1,20
 632 990 632 990 619.5 986 c 128,-1,21
 607 982 607 982 590 982 c 2,22,-1
 523 982 l 1,23,-1
 476 719 l 1,24,-1
 864 719 l 1,25,-1
 911 982 l 1,26,-1
 844 982 l 2,27,28
 827 982 827 982 816 986 c 128,-1,29
 805 990 805 990 799 1001 c 128,-1,30
 793 1012 793 1012 793 1032 c 128,-1,31
 793 1052 793 1052 799 1084 c 256,32,33
 805 1116 805 1116 812 1136 c 128,-1,34
 819 1156 819 1156 828.5 1167.5 c 128,-1,35
 838 1179 838 1179 850.5 1183 c 128,-1,36
 863 1187 863 1187 880 1187 c 2,37,-1
 1254 1187 l 2,38,39
 1271 1187 1271 1187 1282 1183 c 128,-1,40
 1293 1179 1293 1179 1299 1167.5 c 128,-1,41
 1305 1156 1305 1156 1305 1136 c 128,-1,42
 1305 1116 1305 1116 1299 1084 c 256,43,44
 1293 1052 1293 1052 1286 1032 c 128,-1,45
 1279 1012 1279 1012 1269.5 1001 c 128,-1,46
 1260 990 1260 990 1247.5 986 c 128,-1,47
 1235 982 1235 982 1218 982 c 2,48,-1
 1161 982 l 1,49,-1
 1024 205 l 1,50,-1
 1081 205 l 2,51,52
 1098 205 1098 205 1109 201 c 128,-1,53
 1120 197 1120 197 1125.5 185.5 c 128,-1,54
 1131 174 1131 174 1131 154 c 128,-1,55
 1131 134 1131 134 1125 102 c 256,56,57
 1119 70 1119 70 1112.5 50 c 128,-1,58
 1106 30 1106 30 1096.5 19 c 128,-1,59
 1087 8 1087 8 1074.5 4 c 128,-1,60
 1062 0 1062 0 1045 0 c 2,61,-1
 671 0 l 2,62,63
 654 0 654 0 642.5 4 c 128,-1,64
 631 8 631 8 625.5 19 c 128,-1,65
 620 30 620 30 619.5 50 c 128,-1,66
 619 70 619 70 625 102 c 256,67,68
 631 134 631 134 638 154 c 128,-1,69
 645 174 645 174 654.5 185.5 c 128,-1,70
 664 197 664 197 677 201 c 128,-1,71
 690 205 690 205 707 205 c 2,72,-1
 774 205 l 1,73,-1
 826 504 l 1,74,-1
 438 504 l 1,75,-1
 386 205 l 1,76,-1
 453 205 l 2,77,78
 470 205 470 205 481 201 c 128,-1,79
 492 197 492 197 497.5 185.5 c 128,-1,80
 503 174 503 174 503 154 c 128,-1,81
 503 134 503 134 497 102 c 256,82,83
 491 70 491 70 484.5 50 c 128,-1,84
 478 30 478 30 468.5 19 c 128,-1,85
 459 8 459 8 446.5 4 c 128,-1,86
 434 0 434 0 417 0 c 2,87,-1
 43 0 l 2,88,89
 26 0 26 0 14.5 4 c 128,-1,90
 3 8 3 8 -2.5 19 c 128,-1,91
 -8 30 -8 30 -8.5 50 c 128,-1,92
 -9 70 -9 70 -3 102 c 256,93,94
 3 134 3 134 10 154 c 128,-1,95
 17 174 17 174 26.5 185.5 c 128,-1,96
 36 197 36 197 49 201 c 128,-1,97
 62 205 62 205 79 205 c 2,98,-1
 136 205 l 1,99,-1
 273 982 l 1,0,-1
EndSplineSet
EndChar
StartChar: I
Encoding: 73 73 41
Width: 1228
Flags: W
LayerCount: 2
Back
Fore
SplineSet
592 982 m 1,0,-1
 336 982 l 2,1,2
 319 982 319 982 308 986 c 128,-1,3
 297 990 297 990 291 1001 c 128,-1,4
 285 1012 285 1012 285 1032 c 128,-1,5
 285 1052 285 1052 291 1084 c 256,6,7
 297 1116 297 1116 304 1136 c 128,-1,8
 311 1156 311 1156 320.5 1167.5 c 128,-1,9
 330 1179 330 1179 342.5 1183 c 128,-1,10
 355 1187 355 1187 372 1187 c 2,11,-1
 1114 1187 l 2,12,13
 1131 1187 1131 1187 1142 1183 c 128,-1,14
 1153 1179 1153 1179 1159 1167.5 c 128,-1,15
 1165 1156 1165 1156 1165 1136 c 128,-1,16
 1165 1116 1165 1116 1159 1084 c 256,17,18
 1153 1052 1153 1052 1146 1032 c 128,-1,19
 1139 1012 1139 1012 1129.5 1001 c 128,-1,20
 1120 990 1120 990 1107.5 986 c 128,-1,21
 1095 982 1095 982 1078 982 c 2,22,-1
 842 982 l 1,23,-1
 705 205 l 1,24,-1
 961 205 l 2,25,26
 978 205 978 205 989 201 c 128,-1,27
 1000 197 1000 197 1005.5 185.5 c 128,-1,28
 1011 174 1011 174 1011 154 c 128,-1,29
 1011 134 1011 134 1005 102 c 256,30,31
 999 70 999 70 992.5 50 c 128,-1,32
 986 30 986 30 976.5 19 c 128,-1,33
 967 8 967 8 954.5 4 c 128,-1,34
 942 0 942 0 925 0 c 2,35,-1
 183 0 l 2,36,37
 166 0 166 0 154.5 4 c 128,-1,38
 143 8 143 8 137.5 19 c 128,-1,39
 132 30 132 30 131.5 50 c 128,-1,40
 131 70 131 70 137 102 c 256,41,42
 143 134 143 134 150 154 c 128,-1,43
 157 174 157 174 166.5 185.5 c 128,-1,44
 176 197 176 197 189 201 c 128,-1,45
 202 205 202 205 219 205 c 2,46,-1
 455 205 l 1,47,-1
 592 982 l 1,0,-1
EndSplineSet
EndChar
StartChar: J
Encoding: 74 74 42
Width: 1228
Flags: W
LayerCount: 2
Back
Fore
SplineSet
466 982 m 2,0,1
 449 982 449 982 438 986 c 128,-1,2
 427 990 427 990 421 1001 c 128,-1,3
 415 1012 415 1012 415 1032 c 128,-1,4
 415 1052 415 1052 421 1084 c 256,5,6
 427 1116 427 1116 434 1136 c 128,-1,7
 441 1156 441 1156 450.5 1167.5 c 128,-1,8
 460 1179 460 1179 472.5 1183 c 128,-1,9
 485 1187 485 1187 502 1187 c 2,10,-1
 1244 1187 l 2,11,12
 1261 1187 1261 1187 1272 1183 c 128,-1,13
 1283 1179 1283 1179 1289 1167.5 c 128,-1,14
 1295 1156 1295 1156 1295 1136 c 128,-1,15
 1295 1116 1295 1116 1289 1084 c 256,16,17
 1283 1052 1283 1052 1276 1032 c 128,-1,18
 1269 1012 1269 1012 1259.5 1001 c 128,-1,19
 1250 990 1250 990 1237.5 986 c 128,-1,20
 1225 982 1225 982 1208 982 c 2,21,-1
 1032 982 l 1,22,-1
 921 353 l 2,23,24
 904 256 904 256 867 185.5 c 128,-1,25
 830 115 830 115 772 69 c 128,-1,26
 714 23 714 23 634 0.5 c 128,-1,27
 554 -22 554 -22 450 -22 c 0,28,29
 332 -22 332 -22 232.5 19.5 c 128,-1,30
 133 61 133 61 69 135 c 0,31,32
 55 150 55 150 61 185 c 2,33,-1
 116 499 l 2,34,35
 122 533 122 533 155 547.5 c 128,-1,36
 188 562 188 562 260 562 c 0,37,38
 296 562 296 562 318 558.5 c 128,-1,39
 340 555 340 555 351.5 547.5 c 128,-1,40
 363 540 363 540 366 528 c 128,-1,41
 369 516 369 516 366 499 c 2,42,-1
 322 244 l 1,43,44
 385 205 385 205 481 205 c 0,45,46
 562 205 562 205 610.5 247.5 c 128,-1,47
 659 290 659 290 676 383 c 2,48,-1
 782 982 l 1,49,-1
 466 982 l 2,0,1
EndSplineSet
EndChar
StartChar: K
Encoding: 75 75 43
Width: 1228
Flags: W
LayerCount: 2
Back
Fore
SplineSet
323 982 m 1,0,-1
 216 982 l 2,1,2
 199 982 199 982 188 986 c 128,-1,3
 177 990 177 990 171 1001 c 128,-1,4
 165 1012 165 1012 165 1032 c 128,-1,5
 165 1052 165 1052 171 1084 c 256,6,7
 177 1116 177 1116 184 1136 c 128,-1,8
 191 1156 191 1156 200.5 1167.5 c 128,-1,9
 210 1179 210 1179 222.5 1183 c 128,-1,10
 235 1187 235 1187 252 1187 c 2,11,-1
 656 1187 l 2,12,13
 673 1187 673 1187 684 1183 c 128,-1,14
 695 1179 695 1179 701 1167.5 c 128,-1,15
 707 1156 707 1156 707 1136 c 128,-1,16
 707 1116 707 1116 701 1084 c 256,17,18
 695 1052 695 1052 688 1032 c 128,-1,19
 681 1012 681 1012 671.5 1001 c 128,-1,20
 662 990 662 990 649.5 986 c 128,-1,21
 637 982 637 982 620 982 c 2,22,-1
 573 982 l 1,23,-1
 518 672 l 1,24,-1
 887 982 l 1,25,-1
 844 982 l 2,26,27
 827 982 827 982 816 986 c 128,-1,28
 805 990 805 990 799 1001 c 128,-1,29
 793 1012 793 1012 793 1032 c 128,-1,30
 793 1052 793 1052 799 1084 c 256,31,32
 805 1116 805 1116 812 1136 c 128,-1,33
 819 1156 819 1156 828.5 1167.5 c 128,-1,34
 838 1179 838 1179 850.5 1183 c 128,-1,35
 863 1187 863 1187 880 1187 c 2,36,-1
 1269 1187 l 2,37,38
 1286 1187 1286 1187 1297 1183 c 128,-1,39
 1308 1179 1308 1179 1314 1167.5 c 128,-1,40
 1320 1156 1320 1156 1320 1136 c 128,-1,41
 1320 1116 1320 1116 1314 1084 c 256,42,43
 1308 1052 1308 1052 1301 1032 c 128,-1,44
 1294 1012 1294 1012 1284.5 1001 c 128,-1,45
 1275 990 1275 990 1262.5 986 c 128,-1,46
 1250 982 1250 982 1233 982 c 2,47,-1
 1200 982 l 1,48,-1
 790 641 l 1,49,50
 846 638 846 638 879.5 610 c 128,-1,51
 913 582 913 582 938 535 c 0,52,53
 954 504 954 504 966 471 c 128,-1,54
 978 438 978 438 988 405 c 128,-1,55
 998 372 998 372 1007.5 340.5 c 128,-1,56
 1017 309 1017 309 1028 282 c 0,57,58
 1042 247 1042 247 1063 226 c 128,-1,59
 1084 205 1084 205 1116 205 c 2,60,-1
 1131 205 l 2,61,62
 1148 205 1148 205 1159 201 c 128,-1,63
 1170 197 1170 197 1175.5 185.5 c 128,-1,64
 1181 174 1181 174 1181 154 c 128,-1,65
 1181 134 1181 134 1175 102 c 256,66,67
 1169 70 1169 70 1162.5 50 c 128,-1,68
 1156 30 1156 30 1146.5 19 c 128,-1,69
 1137 8 1137 8 1124.5 4 c 128,-1,70
 1112 0 1112 0 1095 0 c 2,71,-1
 966 0 l 2,72,73
 933 0 933 0 907.5 11.5 c 128,-1,74
 882 23 882 23 862.5 42.5 c 128,-1,75
 843 62 843 62 829 87.5 c 128,-1,76
 815 113 815 113 805 142 c 0,77,78
 794 172 794 172 785 204 c 128,-1,79
 776 236 776 236 767 267.5 c 128,-1,80
 758 299 758 299 748.5 328.5 c 128,-1,81
 739 358 739 358 728 382 c 0,82,83
 709 420 709 420 682.5 442.5 c 128,-1,84
 656 465 656 465 621 465 c 0,85,86
 600 465 600 465 578.5 457 c 128,-1,87
 557 449 557 449 536 431 c 2,88,-1
 465 371 l 1,89,-1
 436 205 l 1,90,-1
 551 205 l 2,91,92
 568 205 568 205 579 201 c 128,-1,93
 590 197 590 197 595.5 185.5 c 128,-1,94
 601 174 601 174 601 154 c 128,-1,95
 601 134 601 134 595 102 c 256,96,97
 589 70 589 70 582.5 50 c 128,-1,98
 576 30 576 30 566.5 19 c 128,-1,99
 557 8 557 8 544.5 4 c 128,-1,100
 532 0 532 0 515 0 c 2,101,-1
 43 0 l 2,102,103
 26 0 26 0 14.5 4 c 128,-1,104
 3 8 3 8 -2.5 19 c 128,-1,105
 -8 30 -8 30 -8.5 50 c 128,-1,106
 -9 70 -9 70 -3 102 c 256,107,108
 3 134 3 134 10 154 c 128,-1,109
 17 174 17 174 26.5 185.5 c 128,-1,110
 36 197 36 197 49 201 c 128,-1,111
 62 205 62 205 79 205 c 2,112,-1
 186 205 l 1,113,-1
 323 982 l 1,0,-1
EndSplineSet
EndChar
StartChar: L
Encoding: 76 76 44
Width: 1228
Flags: W
LayerCount: 2
Back
Fore
SplineSet
372 982 m 1,0,-1
 226 982 l 2,1,2
 209 982 209 982 198 986 c 128,-1,3
 187 990 187 990 181 1001 c 128,-1,4
 175 1012 175 1012 175 1032 c 128,-1,5
 175 1052 175 1052 181 1084 c 256,6,7
 187 1116 187 1116 194 1136 c 128,-1,8
 201 1156 201 1156 210.5 1167.5 c 128,-1,9
 220 1179 220 1179 232.5 1183 c 128,-1,10
 245 1187 245 1187 262 1187 c 2,11,-1
 876 1187 l 2,12,13
 893 1187 893 1187 904 1183 c 128,-1,14
 915 1179 915 1179 921 1167.5 c 128,-1,15
 927 1156 927 1156 927 1136 c 128,-1,16
 927 1116 927 1116 921 1084 c 256,17,18
 915 1052 915 1052 908 1032 c 128,-1,19
 901 1012 901 1012 891.5 1001 c 128,-1,20
 882 990 882 990 869.5 986 c 128,-1,21
 857 982 857 982 840 982 c 2,22,-1
 622 982 l 1,23,-1
 486 215 l 1,24,-1
 837 215 l 1,25,-1
 892 527 l 2,26,27
 898 561 898 561 931 575.5 c 128,-1,28
 964 590 964 590 1036 590 c 0,29,30
 1072 590 1072 590 1094 586.5 c 128,-1,31
 1116 583 1116 583 1127.5 575.5 c 128,-1,32
 1139 568 1139 568 1142 556 c 128,-1,33
 1145 544 1145 544 1142 527 c 2,34,-1
 1061 65 l 2,35,36
 1055 30 1055 30 1037.5 15 c 128,-1,37
 1020 0 1020 0 985 0 c 2,38,-1
 53 0 l 2,39,40
 36 0 36 0 24.5 4 c 128,-1,41
 13 8 13 8 7.5 19 c 128,-1,42
 2 30 2 30 1.5 50 c 128,-1,43
 1 70 1 70 7 102 c 256,44,45
 13 134 13 134 20 154 c 128,-1,46
 27 174 27 174 36.5 185.5 c 128,-1,47
 46 197 46 197 59 201 c 128,-1,48
 72 205 72 205 89 205 c 2,49,-1
 235 205 l 1,50,-1
 372 982 l 1,0,-1
EndSplineSet
EndChar
StartChar: M
Encoding: 77 77 45
Width: 1228
Flags: W
LayerCount: 2
Back
Fore
SplineSet
250 982 m 1,0,-1
 196 982 l 2,1,2
 179 982 179 982 168 986 c 128,-1,3
 157 990 157 990 151 1001 c 128,-1,4
 145 1012 145 1012 145 1032 c 128,-1,5
 145 1052 145 1052 151 1084 c 256,6,7
 157 1116 157 1116 164 1136 c 128,-1,8
 171 1156 171 1156 180.5 1167.5 c 128,-1,9
 190 1179 190 1179 202.5 1183 c 128,-1,10
 215 1187 215 1187 232 1187 c 2,11,-1
 506 1187 l 2,12,13
 526 1187 526 1187 538 1180.5 c 128,-1,14
 550 1174 550 1174 554 1156 c 2,15,-1
 651 665 l 1,16,-1
 919 1156 l 2,17,18
 929 1174 929 1174 944 1180.5 c 128,-1,19
 959 1187 959 1187 979 1187 c 2,20,-1
 1274 1187 l 2,21,22
 1291 1187 1291 1187 1302 1183 c 128,-1,23
 1313 1179 1313 1179 1319 1167.5 c 128,-1,24
 1325 1156 1325 1156 1325 1136 c 128,-1,25
 1325 1116 1325 1116 1319 1084 c 256,26,27
 1313 1052 1313 1052 1306 1032 c 128,-1,28
 1299 1012 1299 1012 1289.5 1001 c 128,-1,29
 1280 990 1280 990 1267.5 986 c 128,-1,30
 1255 982 1255 982 1238 982 c 2,31,-1
 1184 982 l 1,32,-1
 1061 205 l 1,33,-1
 1121 205 l 2,34,35
 1138 205 1138 205 1149 201 c 128,-1,36
 1160 197 1160 197 1165.5 185.5 c 128,-1,37
 1171 174 1171 174 1171 154 c 128,-1,38
 1171 134 1171 134 1165 102 c 256,39,40
 1159 70 1159 70 1152.5 50 c 128,-1,41
 1146 30 1146 30 1136.5 19 c 128,-1,42
 1127 8 1127 8 1114.5 4 c 128,-1,43
 1102 0 1102 0 1085 0 c 2,44,-1
 711 0 l 2,45,46
 694 0 694 0 682.5 4 c 128,-1,47
 671 8 671 8 665.5 19 c 128,-1,48
 660 30 660 30 659.5 50 c 128,-1,49
 659 70 659 70 665 102 c 256,50,51
 671 134 671 134 678 154 c 128,-1,52
 685 174 685 174 694.5 185.5 c 128,-1,53
 704 197 704 197 717 201 c 128,-1,54
 730 205 730 205 747 205 c 2,55,-1
 839 205 l 1,56,-1
 937 797 l 1,57,-1
 714 389 l 2,58,59
 694 354 694 354 669.5 339.5 c 128,-1,60
 645 325 645 325 602 325 c 256,61,62
 559 325 559 325 538 339.5 c 128,-1,63
 517 354 517 354 510 389 c 2,64,-1
 430 794 l 1,65,-1
 320 205 l 1,66,-1
 413 205 l 2,67,68
 430 205 430 205 441 201 c 128,-1,69
 452 197 452 197 457.5 185.5 c 128,-1,70
 463 174 463 174 463 154 c 128,-1,71
 463 134 463 134 457 102 c 256,72,73
 451 70 451 70 444.5 50 c 128,-1,74
 438 30 438 30 428.5 19 c 128,-1,75
 419 8 419 8 406.5 4 c 128,-1,76
 394 0 394 0 377 0 c 2,77,-1
 3 0 l 2,78,79
 -14 0 -14 0 -25.5 4 c 128,-1,80
 -37 8 -37 8 -42.5 19 c 128,-1,81
 -48 30 -48 30 -48.5 50 c 128,-1,82
 -49 70 -49 70 -43 102 c 256,83,84
 -37 134 -37 134 -30 154 c 128,-1,85
 -23 174 -23 174 -13.5 185.5 c 128,-1,86
 -4 197 -4 197 9 201 c 128,-1,87
 22 205 22 205 39 205 c 2,88,-1
 98 205 l 1,89,-1
 250 982 l 1,0,-1
EndSplineSet
EndChar
StartChar: N
Encoding: 78 78 46
Width: 1228
Flags: W
LayerCount: 2
Back
Fore
SplineSet
283 982 m 1,0,-1
 216 982 l 2,1,2
 199 982 199 982 188 986 c 128,-1,3
 177 990 177 990 171 1001 c 128,-1,4
 165 1012 165 1012 165 1032 c 128,-1,5
 165 1052 165 1052 171 1084 c 256,6,7
 177 1116 177 1116 184 1136 c 128,-1,8
 191 1156 191 1156 200.5 1167.5 c 128,-1,9
 210 1179 210 1179 222.5 1183 c 128,-1,10
 235 1187 235 1187 252 1187 c 2,11,-1
 516 1187 l 2,12,13
 535 1187 535 1187 548 1181 c 128,-1,14
 561 1175 561 1175 567 1160 c 2,15,-1
 857 453 l 1,16,-1
 951 982 l 1,17,-1
 863 982 l 2,18,19
 846 982 846 982 835 986 c 128,-1,20
 824 990 824 990 818 1001 c 128,-1,21
 812 1012 812 1012 812 1032 c 128,-1,22
 812 1052 812 1052 818 1084 c 256,23,24
 824 1116 824 1116 831 1136 c 128,-1,25
 838 1156 838 1156 847.5 1167.5 c 128,-1,26
 857 1179 857 1179 869.5 1183 c 128,-1,27
 882 1187 882 1187 899 1187 c 2,28,-1
 1274 1187 l 2,29,30
 1291 1187 1291 1187 1302 1183 c 128,-1,31
 1313 1179 1313 1179 1319 1167.5 c 128,-1,32
 1325 1156 1325 1156 1325 1136 c 128,-1,33
 1325 1116 1325 1116 1319 1084 c 256,34,35
 1313 1052 1313 1052 1306 1032 c 128,-1,36
 1299 1012 1299 1012 1289.5 1001 c 128,-1,37
 1280 990 1280 990 1267.5 986 c 128,-1,38
 1255 982 1255 982 1238 982 c 2,39,-1
 1181 982 l 1,40,-1
 1015 44 l 2,41,42
 1010 12 1010 12 983.5 -5 c 128,-1,43
 957 -22 957 -22 894 -22 c 0,44,45
 870 -22 870 -22 853.5 -18.5 c 128,-1,46
 837 -15 837 -15 825.5 -8.5 c 128,-1,47
 814 -2 814 -2 807 8 c 128,-1,48
 800 18 800 18 795 31 c 2,49,-1
 480 796 l 1,50,-1
 376 205 l 1,51,-1
 483 205 l 2,52,53
 500 205 500 205 511 201 c 128,-1,54
 522 197 522 197 527.5 185.5 c 128,-1,55
 533 174 533 174 533 154 c 128,-1,56
 533 134 533 134 527 102 c 256,57,58
 521 70 521 70 514.5 50 c 128,-1,59
 508 30 508 30 498.5 19 c 128,-1,60
 489 8 489 8 476.5 4 c 128,-1,61
 464 0 464 0 447 0 c 2,62,-1
 43 0 l 2,63,64
 26 0 26 0 14.5 4 c 128,-1,65
 3 8 3 8 -2.5 19 c 128,-1,66
 -8 30 -8 30 -8.5 50 c 128,-1,67
 -9 70 -9 70 -3 102 c 256,68,69
 3 134 3 134 10 154 c 128,-1,70
 17 174 17 174 26.5 185.5 c 128,-1,71
 36 197 36 197 49 201 c 128,-1,72
 62 205 62 205 79 205 c 2,73,-1
 146 205 l 1,74,-1
 283 982 l 1,0,-1
EndSplineSet
EndChar
StartChar: O
Encoding: 79 79 47
Width: 1228
Flags: W
LayerCount: 2
Back
Fore
SplineSet
580 205 m 0,0,1
 661 205 661 205 724.5 239 c 128,-1,2
 788 273 788 273 835 338 c 0,3,4
 862 376 862 376 882.5 423 c 128,-1,5
 903 470 903 470 916.5 520.5 c 128,-1,6
 930 571 930 571 937 622 c 128,-1,7
 944 673 944 673 944 720 c 0,8,9
 944 847 944 847 888 914.5 c 128,-1,10
 832 982 832 982 717 982 c 0,11,12
 636 982 636 982 572.5 948 c 128,-1,13
 509 914 509 914 462 849 c 0,14,15
 435 811 435 811 414.5 764 c 128,-1,16
 394 717 394 717 380.5 666.5 c 128,-1,17
 367 616 367 616 360 564.5 c 128,-1,18
 353 513 353 513 353 467 c 0,19,20
 353 340 353 340 409 272.5 c 128,-1,21
 465 205 465 205 580 205 c 0,0,1
560 -22 m 0,22,23
 452 -22 452 -22 365 13 c 128,-1,24
 278 48 278 48 216.5 112 c 128,-1,25
 155 176 155 176 121.5 267 c 128,-1,26
 88 358 88 358 88 471 c 0,27,28
 88 530 88 530 97.5 594 c 128,-1,29
 107 658 107 658 125.5 721 c 128,-1,30
 144 784 144 784 171.5 844 c 128,-1,31
 199 904 199 904 235 956 c 0,32,33
 322 1080 322 1080 449.5 1144.5 c 128,-1,34
 577 1209 577 1209 737 1209 c 0,35,36
 845 1209 845 1209 932 1174 c 128,-1,37
 1019 1139 1019 1139 1080.5 1075 c 128,-1,38
 1142 1011 1142 1011 1175.5 919.5 c 128,-1,39
 1209 828 1209 828 1209 716 c 0,40,41
 1209 657 1209 657 1199.5 593 c 128,-1,42
 1190 529 1190 529 1171.5 466 c 128,-1,43
 1153 403 1153 403 1125.5 343 c 128,-1,44
 1098 283 1098 283 1062 231 c 0,45,46
 975 107 975 107 847.5 42.5 c 128,-1,47
 720 -22 720 -22 560 -22 c 0,22,23
EndSplineSet
EndChar
StartChar: P
Encoding: 80 80 48
Width: 1228
Flags: W
LayerCount: 2
Back
Fore
SplineSet
373 982 m 1,0,-1
 226 982 l 2,1,2
 209 982 209 982 198 986 c 128,-1,3
 187 990 187 990 181 1001 c 128,-1,4
 175 1012 175 1012 175 1032 c 128,-1,5
 175 1052 175 1052 181 1084 c 256,6,7
 187 1116 187 1116 194 1136 c 128,-1,8
 201 1156 201 1156 210.5 1167.5 c 128,-1,9
 220 1179 220 1179 232.5 1183 c 128,-1,10
 245 1187 245 1187 262 1187 c 2,11,-1
 799 1187 l 2,12,13
 901 1187 901 1187 977.5 1164 c 128,-1,14
 1054 1141 1054 1141 1105.5 1098.5 c 128,-1,15
 1157 1056 1157 1056 1183 994.5 c 128,-1,16
 1209 933 1209 933 1209 857 c 0,17,18
 1209 816 1209 816 1202.5 772.5 c 128,-1,19
 1196 729 1196 729 1182.5 686 c 128,-1,20
 1169 643 1169 643 1147.5 603 c 128,-1,21
 1126 563 1126 563 1096 529 c 0,22,23
 965 382 965 382 677 382 c 2,24,-1
 517 382 l 1,25,-1
 486 205 l 1,26,-1
 703 205 l 2,27,28
 720 205 720 205 731 201 c 128,-1,29
 742 197 742 197 747.5 185.5 c 128,-1,30
 753 174 753 174 753 154 c 128,-1,31
 753 134 753 134 747 102 c 256,32,33
 741 70 741 70 734.5 50 c 128,-1,34
 728 30 728 30 718.5 19 c 128,-1,35
 709 8 709 8 696.5 4 c 128,-1,36
 684 0 684 0 667 0 c 2,37,-1
 53 0 l 2,38,39
 36 0 36 0 24.5 4 c 128,-1,40
 13 8 13 8 7.5 19 c 128,-1,41
 2 30 2 30 1.5 50 c 128,-1,42
 1 70 1 70 7 102 c 256,43,44
 13 134 13 134 20 154 c 128,-1,45
 27 174 27 174 36.5 185.5 c 128,-1,46
 46 197 46 197 59 201 c 128,-1,47
 72 205 72 205 89 205 c 2,48,-1
 236 205 l 1,49,-1
 373 982 l 1,0,-1
674 597 m 2,50,51
 826 597 826 597 895 672 c 0,52,53
 923 702 923 702 937 744.5 c 128,-1,54
 951 787 951 787 951 829 c 0,55,56
 951 903 951 903 897.5 937.5 c 128,-1,57
 844 972 844 972 740 972 c 2,58,-1
 621 972 l 1,59,-1
 555 597 l 1,60,-1
 674 597 l 2,50,51
EndSplineSet
EndChar
StartChar: Q
Encoding: 81 81 49
Width: 1228
Flags: W
LayerCount: 2
Back
Fore
SplineSet
594 285 m 0,0,1
 671 285 671 285 732 313 c 128,-1,2
 793 341 793 341 838 395 c 0,3,4
 865 428 865 428 886 469 c 128,-1,5
 907 510 907 510 921 555.5 c 128,-1,6
 935 601 935 601 942 647.5 c 128,-1,7
 949 694 949 694 949 738 c 0,8,9
 949 854 949 854 891.5 918 c 128,-1,10
 834 982 834 982 717 982 c 0,11,12
 640 982 640 982 579 954 c 128,-1,13
 518 926 518 926 473 872 c 0,14,15
 446 839 446 839 425 798 c 128,-1,16
 404 757 404 757 390 711.5 c 128,-1,17
 376 666 376 666 369 619 c 128,-1,18
 362 572 362 572 362 529 c 0,19,20
 362 412 362 412 419.5 348.5 c 128,-1,21
 477 285 477 285 594 285 c 0,0,1
564 58 m 0,22,23
 551 58 551 58 539 58.5 c 128,-1,24
 527 59 527 59 519 60 c 1,25,-1
 396 -46 l 1,26,27
 444 -29 444 -29 482.5 -23 c 128,-1,28
 521 -17 521 -17 555 -17 c 256,29,30
 589 -17 589 -17 618 -21.5 c 128,-1,31
 647 -26 647 -26 675 -31.5 c 128,-1,32
 703 -37 703 -37 730 -41.5 c 128,-1,33
 757 -46 757 -46 786 -46 c 0,34,35
 820 -46 820 -46 858 -37.5 c 128,-1,36
 896 -29 896 -29 944 -6 c 0,37,38
 959 1 959 1 974.5 -0.5 c 128,-1,39
 990 -2 990 -2 1004 -11 c 128,-1,40
 1018 -20 1018 -20 1029.5 -34 c 128,-1,41
 1041 -48 1041 -48 1049 -66 c 0,42,43
 1057 -83 1057 -83 1060 -102.5 c 128,-1,44
 1063 -122 1063 -122 1060 -140.5 c 128,-1,45
 1057 -159 1057 -159 1047 -175.5 c 128,-1,46
 1037 -192 1037 -192 1019 -204 c 0,47,48
 951 -248 951 -248 893 -264.5 c 128,-1,49
 835 -281 835 -281 781 -281 c 0,50,51
 739 -281 739 -281 698 -274 c 128,-1,52
 657 -267 657 -267 615 -259 c 128,-1,53
 573 -251 573 -251 528 -244 c 128,-1,54
 483 -237 483 -237 433 -237 c 0,55,56
 381 -237 381 -237 323 -247.5 c 128,-1,57
 265 -258 265 -258 196 -284 c 0,58,59
 172 -293 172 -293 147 -273 c 128,-1,60
 122 -253 122 -253 106 -221 c 0,61,62
 91 -190 91 -190 90.5 -156.5 c 128,-1,63
 90 -123 90 -123 114 -102 c 2,64,-1
 347 98 l 1,65,66
 288 123 288 123 241.5 165 c 128,-1,67
 195 207 195 207 163 262.5 c 128,-1,68
 131 318 131 318 114 385 c 128,-1,69
 97 452 97 452 97 529 c 0,70,71
 97 590 97 590 108 654.5 c 128,-1,72
 119 719 119 719 140.5 781.5 c 128,-1,73
 162 844 162 844 195 902 c 128,-1,74
 228 960 228 960 273 1010 c 0,75,76
 361 1107 361 1107 481 1158 c 128,-1,77
 601 1209 601 1209 747 1209 c 0,78,79
 855 1209 855 1209 941 1175.5 c 128,-1,80
 1027 1142 1027 1142 1088 1080.5 c 128,-1,81
 1149 1019 1149 1019 1181.5 932 c 128,-1,82
 1214 845 1214 845 1214 738 c 0,83,84
 1214 676 1214 676 1203 612 c 128,-1,85
 1192 548 1192 548 1170.5 485.5 c 128,-1,86
 1149 423 1149 423 1116 364.5 c 128,-1,87
 1083 306 1083 306 1038 257 c 0,88,89
 950 160 950 160 830 109 c 128,-1,90
 710 58 710 58 564 58 c 0,22,23
EndSplineSet
EndChar
StartChar: R
Encoding: 82 82 50
Width: 1228
Flags: W
LayerCount: 2
Back
Fore
SplineSet
333 982 m 1,0,-1
 226 982 l 2,1,2
 209 982 209 982 198 986 c 128,-1,3
 187 990 187 990 181 1001 c 128,-1,4
 175 1012 175 1012 175 1032 c 128,-1,5
 175 1052 175 1052 181 1084 c 256,6,7
 187 1116 187 1116 194 1136 c 128,-1,8
 201 1156 201 1156 210.5 1167.5 c 128,-1,9
 220 1179 220 1179 232.5 1183 c 128,-1,10
 245 1187 245 1187 262 1187 c 2,11,-1
 779 1187 l 2,12,13
 965 1187 965 1187 1065.5 1109 c 128,-1,14
 1166 1031 1166 1031 1166 888 c 0,15,16
 1166 824 1166 824 1150 767 c 128,-1,17
 1134 710 1134 710 1098.5 663 c 128,-1,18
 1063 616 1063 616 1005.5 581 c 128,-1,19
 948 546 948 546 866 526 c 1,20,21
 910 505 910 505 938 469 c 0,22,23
 956 446 956 446 969 420 c 128,-1,24
 982 394 982 394 992.5 368.5 c 128,-1,25
 1003 343 1003 343 1011.5 318 c 128,-1,26
 1020 293 1020 293 1030 271 c 0,27,28
 1044 242 1044 242 1062 223.5 c 128,-1,29
 1080 205 1080 205 1108 205 c 2,30,-1
 1131 205 l 2,31,32
 1148 205 1148 205 1159 201 c 128,-1,33
 1170 197 1170 197 1175.5 185.5 c 128,-1,34
 1181 174 1181 174 1181 154 c 128,-1,35
 1181 134 1181 134 1175 102 c 256,36,37
 1169 70 1169 70 1162.5 50 c 128,-1,38
 1156 30 1156 30 1146.5 19 c 128,-1,39
 1137 8 1137 8 1124.5 4 c 128,-1,40
 1112 0 1112 0 1095 0 c 2,41,-1
 995 0 l 2,42,43
 929 0 929 0 886 33.5 c 128,-1,44
 843 67 843 67 812 139 c 0,45,46
 800 165 800 165 791 193.5 c 128,-1,47
 782 222 782 222 772.5 251 c 128,-1,48
 763 280 763 280 752 308.5 c 128,-1,49
 741 337 741 337 727 364 c 0,50,51
 713 390 713 390 696 408.5 c 128,-1,52
 679 427 679 427 656.5 438.5 c 128,-1,53
 634 450 634 450 604 455.5 c 128,-1,54
 574 461 574 461 534 461 c 2,55,-1
 491 461 l 1,56,-1
 446 205 l 1,57,-1
 573 205 l 2,58,59
 590 205 590 205 601 201 c 128,-1,60
 612 197 612 197 617.5 185.5 c 128,-1,61
 623 174 623 174 623 154 c 128,-1,62
 623 134 623 134 617 102 c 256,63,64
 611 70 611 70 604.5 50 c 128,-1,65
 598 30 598 30 588.5 19 c 128,-1,66
 579 8 579 8 566.5 4 c 128,-1,67
 554 0 554 0 537 0 c 2,68,-1
 53 0 l 2,69,70
 36 0 36 0 24.5 4 c 128,-1,71
 13 8 13 8 7.5 19 c 128,-1,72
 2 30 2 30 1.5 50 c 128,-1,73
 1 70 1 70 7 102 c 256,74,75
 13 134 13 134 20 154 c 128,-1,76
 27 174 27 174 36.5 185.5 c 128,-1,77
 46 197 46 197 59 201 c 128,-1,78
 72 205 72 205 89 205 c 2,79,-1
 196 205 l 1,80,-1
 333 982 l 1,0,-1
678 676 m 2,81,82
 806 676 806 676 861 734 c 0,83,84
 883 757 883 757 895 790.5 c 128,-1,85
 907 824 907 824 907 857 c 0,86,87
 907 915 907 915 864 943.5 c 128,-1,88
 821 972 821 972 730 972 c 2,89,-1
 581 972 l 1,90,-1
 529 676 l 1,91,-1
 678 676 l 2,81,82
EndSplineSet
EndChar
StartChar: S
Encoding: 83 83 51
Width: 1228
Flags: W
LayerCount: 2
Back
Fore
SplineSet
326 41 m 2,0,1
 321 7 321 7 294 -7.5 c 128,-1,2
 267 -22 267 -22 203 -22 c 256,3,4
 139 -22 139 -22 114.5 -7.5 c 128,-1,5
 90 7 90 7 96 41 c 2,6,-1
 155 375 l 2,7,8
 161 409 161 409 185 423.5 c 128,-1,9
 209 438 209 438 258 438 c 0,10,11
 293 438 293 438 311.5 429 c 128,-1,12
 330 420 330 420 338 398 c 0,13,14
 373 296 373 296 438 243.5 c 128,-1,15
 503 191 503 191 605 191 c 0,16,17
 664 191 664 191 703.5 206.5 c 128,-1,18
 743 222 743 222 767 245.5 c 128,-1,19
 791 269 791 269 801 297 c 128,-1,20
 811 325 811 325 811 351 c 0,21,22
 811 389 811 389 789 413 c 128,-1,23
 767 437 767 437 729 454 c 0,24,25
 688 473 688 473 633.5 486 c 128,-1,26
 579 499 579 499 521.5 514 c 128,-1,27
 464 529 464 529 409 549.5 c 128,-1,28
 354 570 354 570 312 604 c 0,29,30
 272 636 272 636 248.5 681.5 c 128,-1,31
 225 727 225 727 225 793 c 0,32,33
 225 861 225 861 248 930.5 c 128,-1,34
 271 1000 271 1000 319 1057 c 0,35,36
 380 1130 380 1130 471 1169.5 c 128,-1,37
 562 1209 562 1209 671 1209 c 0,38,39
 752 1209 752 1209 819 1180.5 c 128,-1,40
 886 1152 886 1152 928 1104 c 1,41,-1
 936 1146 l 2,42,43
 943 1180 943 1180 969 1194.5 c 128,-1,44
 995 1209 995 1209 1059 1209 c 256,45,46
 1123 1209 1123 1209 1147.5 1194.5 c 128,-1,47
 1172 1180 1172 1180 1166 1146 c 2,48,-1
 1117 872 l 2,49,50
 1111 838 1111 838 1087 823.5 c 128,-1,51
 1063 809 1063 809 1014 809 c 0,52,53
 980 809 980 809 963 817 c 128,-1,54
 946 825 946 825 938 841 c 0,55,56
 905 913 905 913 839 954.5 c 128,-1,57
 773 996 773 996 673 996 c 0,58,59
 627 996 627 996 593 981.5 c 128,-1,60
 559 967 559 967 537 945.5 c 128,-1,61
 515 924 515 924 504 898 c 128,-1,62
 493 872 493 872 493 849 c 0,63,64
 493 822 493 822 511 805 c 128,-1,65
 529 788 529 788 561 775 c 0,66,67
 599 760 599 760 651 749 c 128,-1,68
 703 738 703 738 759.5 724.5 c 128,-1,69
 816 711 816 711 871.5 691.5 c 128,-1,70
 927 672 927 672 972 639 c 0,71,72
 1020 604 1020 604 1050.5 549.5 c 128,-1,73
 1081 495 1081 495 1081 413 c 0,74,75
 1081 341 1081 341 1058.5 264.5 c 128,-1,76
 1036 188 1036 188 986 127 c 0,77,78
 926 55 926 55 832 16.5 c 128,-1,79
 738 -22 738 -22 608 -22 c 0,80,81
 524 -22 524 -22 453 6 c 128,-1,82
 382 34 382 34 333 84 c 1,83,-1
 326 41 l 2,0,1
EndSplineSet
EndChar
StartChar: T
Encoding: 84 84 52
Width: 1228
Flags: W
LayerCount: 2
Back
Fore
SplineSet
590 972 m 1,0,-1
 409 972 l 1,1,-1
 361 700 l 2,2,3
 355 666 355 666 325 651.5 c 128,-1,4
 295 637 295 637 238 637 c 0,5,6
 182 637 182 637 163.5 651.5 c 128,-1,7
 145 666 145 666 151 700 c 2,8,-1
 225 1122 l 2,9,10
 231 1157 231 1157 249 1172 c 128,-1,11
 267 1187 267 1187 302 1187 c 2,12,-1
 1204 1187 l 2,13,14
 1239 1187 1239 1187 1251 1172 c 128,-1,15
 1263 1157 1263 1157 1257 1122 c 2,16,-1
 1183 700 l 2,17,18
 1177 666 1177 666 1147 651.5 c 128,-1,19
 1117 637 1117 637 1060 637 c 0,20,21
 1004 637 1004 637 985.5 651.5 c 128,-1,22
 967 666 967 666 973 700 c 2,23,-1
 1021 972 l 1,24,-1
 840 972 l 1,25,-1
 705 205 l 1,26,-1
 931 205 l 2,27,28
 948 205 948 205 959 201 c 128,-1,29
 970 197 970 197 975.5 185.5 c 128,-1,30
 981 174 981 174 981 154 c 128,-1,31
 981 134 981 134 975 102 c 256,32,33
 969 70 969 70 962.5 50 c 128,-1,34
 956 30 956 30 946.5 19 c 128,-1,35
 937 8 937 8 924.5 4 c 128,-1,36
 912 0 912 0 895 0 c 2,37,-1
 213 0 l 2,38,39
 196 0 196 0 184.5 4 c 128,-1,40
 173 8 173 8 167.5 19 c 128,-1,41
 162 30 162 30 161.5 50 c 128,-1,42
 161 70 161 70 167 102 c 256,43,44
 173 134 173 134 180 154 c 128,-1,45
 187 174 187 174 196.5 185.5 c 128,-1,46
 206 197 206 197 219 201 c 128,-1,47
 232 205 232 205 249 205 c 2,48,-1
 455 205 l 1,49,-1
 590 972 l 1,0,-1
EndSplineSet
EndChar
StartChar: U
Encoding: 85 85 53
Width: 1228
Flags: W
LayerCount: 2
Back
Fore
SplineSet
216 982 m 2,0,1
 199 982 199 982 188 986 c 128,-1,2
 177 990 177 990 171 1001 c 128,-1,3
 165 1012 165 1012 165 1032 c 128,-1,4
 165 1052 165 1052 171 1084 c 256,5,6
 177 1116 177 1116 184 1136 c 128,-1,7
 191 1156 191 1156 200.5 1167.5 c 128,-1,8
 210 1179 210 1179 222.5 1183 c 128,-1,9
 235 1187 235 1187 252 1187 c 2,10,-1
 626 1187 l 2,11,12
 643 1187 643 1187 654 1183 c 128,-1,13
 665 1179 665 1179 671 1167.5 c 128,-1,14
 677 1156 677 1156 677 1136 c 128,-1,15
 677 1116 677 1116 671 1084 c 256,16,17
 665 1052 665 1052 658 1032 c 128,-1,18
 651 1012 651 1012 641.5 1001 c 128,-1,19
 632 990 632 990 619.5 986 c 128,-1,20
 607 982 607 982 590 982 c 2,21,-1
 513 982 l 1,22,-1
 416 433 l 2,23,24
 410 398 410 398 410 370 c 0,25,26
 410 284 410 284 456.5 244.5 c 128,-1,27
 503 205 503 205 580 205 c 0,28,29
 625 205 625 205 664.5 218 c 128,-1,30
 704 231 704 231 736 259 c 128,-1,31
 768 287 768 287 790.5 330 c 128,-1,32
 813 373 813 373 824 433 c 2,33,-1
 921 982 l 1,34,-1
 844 982 l 2,35,36
 827 982 827 982 816 986 c 128,-1,37
 805 990 805 990 799 1001 c 128,-1,38
 793 1012 793 1012 793 1032 c 128,-1,39
 793 1052 793 1052 799 1084 c 256,40,41
 805 1116 805 1116 812 1136 c 128,-1,42
 819 1156 819 1156 828.5 1167.5 c 128,-1,43
 838 1179 838 1179 850.5 1183 c 128,-1,44
 863 1187 863 1187 880 1187 c 2,45,-1
 1254 1187 l 2,46,47
 1271 1187 1271 1187 1282 1183 c 128,-1,48
 1293 1179 1293 1179 1299 1167.5 c 128,-1,49
 1305 1156 1305 1156 1305 1136 c 128,-1,50
 1305 1116 1305 1116 1299 1084 c 256,51,52
 1293 1052 1293 1052 1286 1032 c 128,-1,53
 1279 1012 1279 1012 1269.5 1001 c 128,-1,54
 1260 990 1260 990 1247.5 986 c 128,-1,55
 1235 982 1235 982 1218 982 c 2,56,-1
 1171 982 l 1,57,-1
 1068 403 l 2,58,59
 1030 192 1030 192 900.5 85 c 128,-1,60
 771 -22 771 -22 560 -22 c 0,61,62
 467 -22 467 -22 392.5 2.5 c 128,-1,63
 318 27 318 27 265.5 73.5 c 128,-1,64
 213 120 213 120 185 187 c 128,-1,65
 157 254 157 254 157 338 c 0,66,67
 157 383 157 383 166 433 c 2,68,-1
 263 982 l 1,69,-1
 216 982 l 2,0,1
EndSplineSet
EndChar
StartChar: V
Encoding: 86 86 54
Width: 1228
Flags: W
LayerCount: 2
Back
Fore
SplineSet
156 982 m 2,0,1
 139 982 139 982 128 986 c 128,-1,2
 117 990 117 990 111 1001 c 128,-1,3
 105 1012 105 1012 105 1032 c 128,-1,4
 105 1052 105 1052 111 1084 c 256,5,6
 117 1116 117 1116 124 1136 c 128,-1,7
 131 1156 131 1156 140.5 1167.5 c 128,-1,8
 150 1179 150 1179 162.5 1183 c 128,-1,9
 175 1187 175 1187 192 1187 c 2,10,-1
 618 1187 l 2,11,12
 635 1187 635 1187 646 1183 c 128,-1,13
 657 1179 657 1179 663 1167.5 c 128,-1,14
 669 1156 669 1156 669 1136 c 128,-1,15
 669 1116 669 1116 663 1084 c 256,16,17
 657 1052 657 1052 650 1032 c 128,-1,18
 643 1012 643 1012 633.5 1001 c 128,-1,19
 624 990 624 990 611.5 986 c 128,-1,20
 599 982 599 982 582 982 c 2,21,-1
 493 982 l 1,22,-1
 600 369 l 1,23,-1
 937 982 l 1,24,-1
 866 982 l 2,25,26
 849 982 849 982 838 986 c 128,-1,27
 827 990 827 990 821 1001 c 128,-1,28
 815 1012 815 1012 815 1032 c 128,-1,29
 815 1052 815 1052 821 1084 c 256,30,31
 827 1116 827 1116 834 1136 c 128,-1,32
 841 1156 841 1156 850.5 1167.5 c 128,-1,33
 860 1179 860 1179 872.5 1183 c 128,-1,34
 885 1187 885 1187 902 1187 c 2,35,-1
 1314 1187 l 2,36,37
 1331 1187 1331 1187 1342 1183 c 128,-1,38
 1353 1179 1353 1179 1359 1167.5 c 128,-1,39
 1365 1156 1365 1156 1365 1136 c 128,-1,40
 1365 1116 1365 1116 1359 1084 c 256,41,42
 1353 1052 1353 1052 1346 1032 c 128,-1,43
 1339 1012 1339 1012 1329.5 1001 c 128,-1,44
 1320 990 1320 990 1307.5 986 c 128,-1,45
 1295 982 1295 982 1278 982 c 2,46,-1
 1210 982 l 1,47,-1
 681 43 l 2,48,49
 671 25 671 25 659 13 c 128,-1,50
 647 1 647 1 630.5 -7 c 128,-1,51
 614 -15 614 -15 591 -18.5 c 128,-1,52
 568 -22 568 -22 537 -22 c 256,53,54
 506 -22 506 -22 484.5 -18.5 c 128,-1,55
 463 -15 463 -15 449 -7 c 128,-1,56
 435 1 435 1 427.5 13.5 c 128,-1,57
 420 26 420 26 417 43 c 2,58,-1
 233 982 l 1,59,-1
 156 982 l 2,0,1
EndSplineSet
EndChar
StartChar: W
Encoding: 87 87 55
Width: 1228
Flags: W
LayerCount: 2
Back
Fore
SplineSet
146 982 m 2,0,1
 129 982 129 982 118 986 c 128,-1,2
 107 990 107 990 101 1001 c 128,-1,3
 95 1012 95 1012 95 1032 c 128,-1,4
 95 1052 95 1052 101 1084 c 256,5,6
 107 1116 107 1116 114 1136 c 128,-1,7
 121 1156 121 1156 130.5 1167.5 c 128,-1,8
 140 1179 140 1179 152.5 1183 c 128,-1,9
 165 1187 165 1187 182 1187 c 2,10,-1
 566 1187 l 2,11,12
 583 1187 583 1187 594 1183 c 128,-1,13
 605 1179 605 1179 611 1167.5 c 128,-1,14
 617 1156 617 1156 617 1136 c 128,-1,15
 617 1116 617 1116 611 1084 c 256,16,17
 605 1052 605 1052 598 1032 c 128,-1,18
 591 1012 591 1012 581.5 1001 c 128,-1,19
 572 990 572 990 559.5 986 c 128,-1,20
 547 982 547 982 530 982 c 2,21,-1
 412 982 l 1,22,-1
 366 408 l 1,23,-1
 584 826 l 2,24,25
 589 836 589 836 596 844.5 c 128,-1,26
 603 853 603 853 614.5 859.5 c 128,-1,27
 626 866 626 866 643 869.5 c 128,-1,28
 660 873 660 873 686 873 c 0,29,30
 738 873 738 873 757 863 c 128,-1,31
 776 853 776 853 779 833 c 2,32,-1
 849 408 l 1,33,-1
 1008 982 l 1,34,-1
 904 982 l 2,35,36
 887 982 887 982 876 986 c 128,-1,37
 865 990 865 990 859 1001 c 128,-1,38
 853 1012 853 1012 853 1032 c 128,-1,39
 853 1052 853 1052 859 1084 c 256,40,41
 865 1116 865 1116 872 1136 c 128,-1,42
 879 1156 879 1156 888.5 1167.5 c 128,-1,43
 898 1179 898 1179 910.5 1183 c 128,-1,44
 923 1187 923 1187 940 1187 c 2,45,-1
 1324 1187 l 2,46,47
 1341 1187 1341 1187 1352 1183 c 128,-1,48
 1363 1179 1363 1179 1369 1167.5 c 128,-1,49
 1375 1156 1375 1156 1375 1136 c 128,-1,50
 1375 1116 1375 1116 1369 1084 c 256,51,52
 1363 1052 1363 1052 1356 1032 c 128,-1,53
 1349 1012 1349 1012 1339.5 1001 c 128,-1,54
 1330 990 1330 990 1317.5 986 c 128,-1,55
 1305 982 1305 982 1288 982 c 2,56,-1
 1233 982 l 1,57,-1
 965 43 l 2,58,59
 960 25 960 25 951.5 12.5 c 128,-1,60
 943 0 943 0 928 -7.5 c 128,-1,61
 913 -15 913 -15 890 -18.5 c 128,-1,62
 867 -22 867 -22 833 -22 c 256,63,64
 799 -22 799 -22 776 -18 c 128,-1,65
 753 -14 753 -14 739 -6 c 128,-1,66
 725 2 725 2 717.5 14 c 128,-1,67
 710 26 710 26 707 43 c 2,68,-1
 630 514 l 1,69,-1
 385 43 l 2,70,71
 376 26 376 26 364 13.5 c 128,-1,72
 352 1 352 1 335 -7 c 128,-1,73
 318 -15 318 -15 293.5 -18.5 c 128,-1,74
 269 -22 269 -22 235 -22 c 256,75,76
 201 -22 201 -22 179.5 -18.5 c 128,-1,77
 158 -15 158 -15 146 -7.5 c 128,-1,78
 134 0 134 0 130 12.5 c 128,-1,79
 126 25 126 25 127 43 c 2,80,-1
 195 982 l 1,81,-1
 146 982 l 2,0,1
EndSplineSet
EndChar
StartChar: X
Encoding: 88 88 56
Width: 1228
Flags: W
LayerCount: 2
Back
Fore
SplineSet
749 205 m 1,0,-1
 622 442 l 1,1,-1
 415 205 l 1,2,-1
 443 205 l 2,3,4
 460 205 460 205 471 201 c 128,-1,5
 482 197 482 197 487.5 185.5 c 128,-1,6
 493 174 493 174 493 154 c 128,-1,7
 493 134 493 134 487 102 c 256,8,9
 481 70 481 70 474.5 50 c 128,-1,10
 468 30 468 30 458.5 19 c 128,-1,11
 449 8 449 8 436.5 4 c 128,-1,12
 424 0 424 0 407 0 c 2,13,-1
 23 0 l 2,14,15
 6 0 6 0 -5.5 4 c 128,-1,16
 -17 8 -17 8 -22.5 19 c 128,-1,17
 -28 30 -28 30 -28.5 50 c 128,-1,18
 -29 70 -29 70 -23 102 c 256,19,20
 -17 134 -17 134 -10 154 c 128,-1,21
 -3 174 -3 174 6.5 185.5 c 128,-1,22
 16 197 16 197 29 201 c 128,-1,23
 42 205 42 205 59 205 c 2,24,-1
 121 205 l 1,25,-1
 490 622 l 1,26,-1
 296 982 l 1,27,-1
 226 982 l 2,28,29
 209 982 209 982 198 986 c 128,-1,30
 187 990 187 990 181 1001 c 128,-1,31
 175 1012 175 1012 175 1032 c 128,-1,32
 175 1052 175 1052 181 1084 c 256,33,34
 187 1116 187 1116 194 1136 c 128,-1,35
 201 1156 201 1156 210.5 1167.5 c 128,-1,36
 220 1179 220 1179 232.5 1183 c 128,-1,37
 245 1187 245 1187 262 1187 c 2,38,-1
 656 1187 l 2,39,40
 673 1187 673 1187 684 1183 c 128,-1,41
 695 1179 695 1179 701 1167.5 c 128,-1,42
 707 1156 707 1156 707 1136 c 128,-1,43
 707 1116 707 1116 701 1084 c 256,44,45
 695 1052 695 1052 688 1032 c 128,-1,46
 681 1012 681 1012 671.5 1001 c 128,-1,47
 662 990 662 990 649.5 986 c 128,-1,48
 637 982 637 982 620 982 c 2,49,-1
 577 982 l 1,50,-1
 682 780 l 1,51,-1
 858 982 l 1,52,-1
 844 982 l 2,53,54
 827 982 827 982 816 986 c 128,-1,55
 805 990 805 990 799 1001 c 128,-1,56
 793 1012 793 1012 793 1032 c 128,-1,57
 793 1052 793 1052 799 1084 c 256,58,59
 805 1116 805 1116 812 1136 c 128,-1,60
 819 1156 819 1156 828.5 1167.5 c 128,-1,61
 838 1179 838 1179 850.5 1183 c 128,-1,62
 863 1187 863 1187 880 1187 c 2,63,-1
 1244 1187 l 2,64,65
 1261 1187 1261 1187 1272 1183 c 128,-1,66
 1283 1179 1283 1179 1289 1167.5 c 128,-1,67
 1295 1156 1295 1156 1295 1136 c 128,-1,68
 1295 1116 1295 1116 1289 1084 c 256,69,70
 1283 1052 1283 1052 1276 1032 c 128,-1,71
 1269 1012 1269 1012 1259.5 1001 c 128,-1,72
 1250 990 1250 990 1237.5 986 c 128,-1,73
 1225 982 1225 982 1208 982 c 2,74,-1
 1152 982 l 1,75,-1
 813 597 l 1,76,-1
 1030 205 l 1,77,-1
 1101 205 l 2,78,79
 1118 205 1118 205 1129 201 c 128,-1,80
 1140 197 1140 197 1145.5 185.5 c 128,-1,81
 1151 174 1151 174 1151 154 c 128,-1,82
 1151 134 1151 134 1145 102 c 256,83,84
 1139 70 1139 70 1132.5 50 c 128,-1,85
 1126 30 1126 30 1116.5 19 c 128,-1,86
 1107 8 1107 8 1094.5 4 c 128,-1,87
 1082 0 1082 0 1065 0 c 2,88,-1
 661 0 l 2,89,90
 644 0 644 0 632.5 4 c 128,-1,91
 621 8 621 8 615.5 19 c 128,-1,92
 610 30 610 30 609.5 50 c 128,-1,93
 609 70 609 70 615 102 c 256,94,95
 621 134 621 134 628 154 c 128,-1,96
 635 174 635 174 644.5 185.5 c 128,-1,97
 654 197 654 197 667 201 c 128,-1,98
 680 205 680 205 697 205 c 2,99,-1
 749 205 l 1,0,-1
EndSplineSet
EndChar
StartChar: Y
Encoding: 89 89 57
Width: 1228
Flags: W
LayerCount: 2
Back
Fore
SplineSet
626 1187 m 2,0,1
 643 1187 643 1187 654 1183 c 128,-1,2
 665 1179 665 1179 671 1167.5 c 128,-1,3
 677 1156 677 1156 677 1136 c 128,-1,4
 677 1116 677 1116 671 1084 c 256,5,6
 665 1052 665 1052 658 1032 c 128,-1,7
 651 1012 651 1012 641.5 1001 c 128,-1,8
 632 990 632 990 619.5 986 c 128,-1,9
 607 982 607 982 590 982 c 2,10,-1
 523 982 l 1,11,-1
 657 690 l 1,12,-1
 896 982 l 1,13,-1
 844 982 l 2,14,15
 827 982 827 982 816 986 c 128,-1,16
 805 990 805 990 799 1001 c 128,-1,17
 793 1012 793 1012 793 1032 c 128,-1,18
 793 1052 793 1052 799 1084 c 256,19,20
 805 1116 805 1116 812 1136 c 128,-1,21
 819 1156 819 1156 828.5 1167.5 c 128,-1,22
 838 1179 838 1179 850.5 1183 c 128,-1,23
 863 1187 863 1187 880 1187 c 2,24,-1
 1264 1187 l 2,25,26
 1281 1187 1281 1187 1292 1183 c 128,-1,27
 1303 1179 1303 1179 1309 1167.5 c 128,-1,28
 1315 1156 1315 1156 1315 1136 c 128,-1,29
 1315 1116 1315 1116 1309 1084 c 256,30,31
 1303 1052 1303 1052 1296 1032 c 128,-1,32
 1289 1012 1289 1012 1279.5 1001 c 128,-1,33
 1270 990 1270 990 1257.5 986 c 128,-1,34
 1245 982 1245 982 1228 982 c 2,35,-1
 1183 982 l 1,36,-1
 750 460 l 1,37,-1
 705 205 l 1,38,-1
 911 205 l 2,39,40
 928 205 928 205 939 201 c 128,-1,41
 950 197 950 197 955.5 185.5 c 128,-1,42
 961 174 961 174 961 154 c 128,-1,43
 961 134 961 134 955 102 c 256,44,45
 949 70 949 70 942.5 50 c 128,-1,46
 936 30 936 30 926.5 19 c 128,-1,47
 917 8 917 8 904.5 4 c 128,-1,48
 892 0 892 0 875 0 c 2,49,-1
 233 0 l 2,50,51
 216 0 216 0 204.5 4 c 128,-1,52
 193 8 193 8 187.5 19 c 128,-1,53
 182 30 182 30 181.5 50 c 128,-1,54
 181 70 181 70 187 102 c 256,55,56
 193 134 193 134 200 154 c 128,-1,57
 207 174 207 174 216.5 185.5 c 128,-1,58
 226 197 226 197 239 201 c 128,-1,59
 252 205 252 205 269 205 c 2,60,-1
 455 205 l 1,61,-1
 501 467 l 1,62,-1
 256 982 l 1,63,-1
 206 982 l 2,64,65
 189 982 189 982 178 986 c 128,-1,66
 167 990 167 990 161 1001 c 128,-1,67
 155 1012 155 1012 155 1032 c 128,-1,68
 155 1052 155 1052 161 1084 c 256,69,70
 167 1116 167 1116 174 1136 c 128,-1,71
 181 1156 181 1156 190.5 1167.5 c 128,-1,72
 200 1179 200 1179 212.5 1183 c 128,-1,73
 225 1187 225 1187 242 1187 c 2,74,-1
 626 1187 l 2,0,1
EndSplineSet
EndChar
StartChar: Z
Encoding: 90 90 58
Width: 1228
Flags: W
LayerCount: 2
Back
Fore
SplineSet
827 215 m 1,0,-1
 867 437 l 2,1,2
 872 471 872 471 904 485.5 c 128,-1,3
 936 500 936 500 1000 500 c 0,4,5
 1032 500 1032 500 1052 496.5 c 128,-1,6
 1072 493 1072 493 1083 485.5 c 128,-1,7
 1094 478 1094 478 1097 466 c 128,-1,8
 1100 454 1100 454 1097 437 c 2,9,-1
 1031 65 l 2,10,11
 1025 30 1025 30 1007.5 15 c 128,-1,12
 990 0 990 0 955 0 c 2,13,-1
 141 0 l 2,14,15
 124 0 124 0 112.5 4 c 128,-1,16
 101 8 101 8 95.5 19 c 128,-1,17
 90 30 90 30 89.5 50 c 128,-1,18
 89 70 89 70 95 102 c 0,19,20
 101 136 101 136 110 158.5 c 128,-1,21
 119 181 119 181 132 195 c 2,22,-1
 813 972 l 1,23,-1
 489 972 l 1,24,-1
 453 770 l 2,25,26
 447 736 447 736 415.5 721.5 c 128,-1,27
 384 707 384 707 320 707 c 256,28,29
 256 707 256 707 236.5 721.5 c 128,-1,30
 217 736 217 736 223 770 c 2,31,-1
 285 1122 l 2,32,33
 291 1157 291 1157 309 1172 c 128,-1,34
 327 1187 327 1187 362 1187 c 2,35,-1
 1146 1187 l 2,36,37
 1163 1187 1163 1187 1174 1183 c 128,-1,38
 1185 1179 1185 1179 1191 1167.5 c 128,-1,39
 1197 1156 1197 1156 1197 1136 c 128,-1,40
 1197 1116 1197 1116 1191 1084 c 256,41,42
 1185 1052 1185 1052 1175 1030 c 128,-1,43
 1165 1008 1165 1008 1151 992 c 2,44,-1
 470 215 l 1,45,-1
 827 215 l 1,0,-1
EndSplineSet
EndChar
StartChar: bracketleft
Encoding: 91 91 59
Width: 1228
Flags: W
LayerCount: 2
Back
Fore
SplineSet
759 -188 m 2,0,1
 776 -188 776 -188 787 -192 c 128,-1,2
 798 -196 798 -196 804 -207 c 128,-1,3
 810 -218 810 -218 810 -238 c 128,-1,4
 810 -258 810 -258 804 -290 c 256,5,6
 798 -322 798 -322 791 -342 c 128,-1,7
 784 -362 784 -362 774.5 -373.5 c 128,-1,8
 765 -385 765 -385 752.5 -389 c 128,-1,9
 740 -393 740 -393 723 -393 c 2,10,-1
 213 -393 l 2,11,12
 179 -393 179 -393 167 -378.5 c 128,-1,13
 155 -364 155 -364 161 -330 c 2,14,-1
 440 1249 l 2,15,16
 446 1283 446 1283 463 1297.5 c 128,-1,17
 480 1312 480 1312 514 1312 c 2,18,-1
 1024 1312 l 2,19,20
 1041 1312 1041 1312 1052 1308 c 128,-1,21
 1063 1304 1063 1304 1069 1292.5 c 128,-1,22
 1075 1281 1075 1281 1075 1261 c 128,-1,23
 1075 1241 1075 1241 1069 1209 c 256,24,25
 1063 1177 1063 1177 1056 1157 c 128,-1,26
 1049 1137 1049 1137 1039.5 1126 c 128,-1,27
 1030 1115 1030 1115 1017.5 1111 c 128,-1,28
 1005 1107 1005 1107 988 1107 c 2,29,-1
 665 1107 l 1,30,-1
 436 -188 l 1,31,-1
 759 -188 l 2,0,1
EndSplineSet
EndChar
StartChar: backslash
Encoding: 92 92 60
Width: 1228
Flags: W
LayerCount: 2
Back
Fore
SplineSet
316 1221 m 2,0,1
 308 1248 308 1248 321 1269.5 c 128,-1,2
 334 1291 334 1291 357 1306.5 c 128,-1,3
 380 1322 380 1322 410 1330.5 c 128,-1,4
 440 1339 440 1339 467 1339 c 0,5,6
 493 1339 493 1339 511.5 1330.5 c 128,-1,7
 530 1322 530 1322 535 1305 c 2,8,-1
 954 -183 l 2,9,10
 961 -209 961 -209 948 -230.5 c 128,-1,11
 935 -252 935 -252 911.5 -267.5 c 128,-1,12
 888 -283 888 -283 858 -291.5 c 128,-1,13
 828 -300 828 -300 801 -300 c 0,14,15
 776 -300 776 -300 758 -292 c 128,-1,16
 740 -284 740 -284 735 -267 c 2,17,-1
 316 1221 l 2,0,1
EndSplineSet
EndChar
StartChar: bracketright
Encoding: 93 93 61
Width: 1228
Flags: W
LayerCount: 2
Back
Fore
SplineSet
813 1107 m 1,0,-1
 490 1107 l 2,1,2
 473 1107 473 1107 462 1111 c 128,-1,3
 451 1115 451 1115 445 1126 c 128,-1,4
 439 1137 439 1137 439 1157 c 128,-1,5
 439 1177 439 1177 445 1209 c 256,6,7
 451 1241 451 1241 458 1261 c 128,-1,8
 465 1281 465 1281 474.5 1292.5 c 128,-1,9
 484 1304 484 1304 496.5 1308 c 128,-1,10
 509 1312 509 1312 526 1312 c 2,11,-1
 1036 1312 l 2,12,13
 1070 1312 1070 1312 1082 1297.5 c 128,-1,14
 1094 1283 1094 1283 1088 1249 c 2,15,-1
 809 -330 l 2,16,17
 803 -364 803 -364 786 -378.5 c 128,-1,18
 769 -393 769 -393 735 -393 c 2,19,-1
 225 -393 l 2,20,21
 208 -393 208 -393 197 -389 c 128,-1,22
 186 -385 186 -385 180 -373.5 c 128,-1,23
 174 -362 174 -362 174 -342 c 128,-1,24
 174 -322 174 -322 180 -290 c 256,25,26
 186 -258 186 -258 193 -238 c 128,-1,27
 200 -218 200 -218 209.5 -207 c 128,-1,28
 219 -196 219 -196 231.5 -192 c 128,-1,29
 244 -188 244 -188 261 -188 c 2,30,-1
 584 -188 l 1,31,-1
 813 1107 l 1,0,-1
EndSplineSet
EndChar
StartChar: asciicircum
Encoding: 94 94 62
Width: 1228
Flags: W
LayerCount: 2
Back
Fore
SplineSet
710 887 m 1,0,-1
 457 497 l 2,1,2
 450 486 450 486 435.5 479 c 128,-1,3
 421 472 421 472 402 469.5 c 128,-1,4
 383 467 383 467 361.5 468 c 128,-1,5
 340 469 340 469 319 473 c 0,6,7
 295 478 295 478 273.5 486.5 c 128,-1,8
 252 495 252 495 238 506.5 c 128,-1,9
 224 518 224 518 220 532 c 128,-1,10
 216 546 216 546 227 562 c 2,11,-1
 652 1172 l 2,12,13
 665 1190 665 1190 688.5 1199.5 c 128,-1,14
 712 1209 712 1209 757 1209 c 0,15,16
 801 1209 801 1209 821.5 1199.5 c 128,-1,17
 842 1190 842 1190 848 1172 c 2,18,-1
 1059 562 l 2,19,20
 1064 548 1064 548 1058 535 c 128,-1,21
 1052 522 1052 522 1039 511 c 128,-1,22
 1026 500 1026 500 1007 491.5 c 128,-1,23
 988 483 988 483 967 477 c 0,24,25
 945 471 945 471 922.5 468.5 c 128,-1,26
 900 466 900 466 881 468.5 c 128,-1,27
 862 471 862 471 848.5 478 c 128,-1,28
 835 485 835 485 831 497 c 2,29,-1
 710 887 l 1,0,-1
EndSplineSet
EndChar
StartChar: underscore
Encoding: 95 95 63
Width: 1228
Flags: W
LayerCount: 2
Back
Fore
SplineSet
-65 -513 m 2,0,1
 -74 -513 -74 -513 -80 -509 c 128,-1,2
 -86 -505 -86 -505 -87.5 -493 c 128,-1,3
 -89 -481 -89 -481 -86.5 -459 c 128,-1,4
 -84 -437 -84 -437 -78 -401 c 256,5,6
 -72 -365 -72 -365 -66.5 -343 c 128,-1,7
 -61 -321 -61 -321 -55 -309 c 128,-1,8
 -49 -297 -49 -297 -41.5 -292.5 c 128,-1,9
 -34 -288 -34 -288 -25 -288 c 2,10,-1
 1212 -288 l 2,11,12
 1221 -288 1221 -288 1227 -292.5 c 128,-1,13
 1233 -297 1233 -297 1234.5 -309 c 128,-1,14
 1236 -321 1236 -321 1233.5 -343 c 128,-1,15
 1231 -365 1231 -365 1225 -401 c 256,16,17
 1219 -437 1219 -437 1213 -459 c 128,-1,18
 1207 -481 1207 -481 1201 -493 c 128,-1,19
 1195 -505 1195 -505 1188 -509 c 128,-1,20
 1181 -513 1181 -513 1172 -513 c 2,21,-1
 -65 -513 l 2,0,1
EndSplineSet
EndChar
StartChar: grave
Encoding: 96 96 64
Width: 1228
Flags: W
LayerCount: 2
Back
Fore
SplineSet
941 1145 m 2,0,1
 961 1133 961 1133 966.5 1113.5 c 128,-1,2
 972 1094 972 1094 964 1072 c 0,3,4
 956 1049 956 1049 938 1037.5 c 128,-1,5
 920 1026 920 1026 896 1033 c 2,6,-1
 416 1158 l 2,7,8
 390 1165 390 1165 386.5 1198.5 c 128,-1,9
 383 1232 383 1232 413 1301 c 0,10,11
 443 1369 443 1369 474 1388.5 c 128,-1,12
 505 1408 505 1408 533 1392 c 2,13,-1
 941 1145 l 2,0,1
EndSplineSet
EndChar
StartChar: a
Encoding: 97 97 65
Width: 1228
Flags: W
LayerCount: 2
Back
Fore
SplineSet
785 127 m 1,0,1
 711 50 711 50 626.5 14 c 128,-1,2
 542 -22 542 -22 454 -22 c 256,3,4
 366 -22 366 -22 297 9.5 c 128,-1,5
 228 41 228 41 180.5 95 c 128,-1,6
 133 149 133 149 108 222.5 c 128,-1,7
 83 296 83 296 83 380 c 0,8,9
 83 443 83 443 97 509.5 c 128,-1,10
 111 576 111 576 139 639 c 128,-1,11
 167 702 167 702 209 757.5 c 128,-1,12
 251 813 251 813 308 855 c 128,-1,13
 365 897 365 897 436 921.5 c 128,-1,14
 507 946 507 946 594 946 c 0,15,16
 691 946 691 946 765.5 901 c 128,-1,17
 840 856 840 856 878 777 c 1,18,-1
 894 871 l 2,19,20
 900 905 900 905 930 919.5 c 128,-1,21
 960 934 960 934 1017 934 c 0,22,23
 1073 934 1073 934 1091.5 919.5 c 128,-1,24
 1110 905 1110 905 1104 871 c 2,25,-1
 1002 290 l 2,26,27
 994 250 994 250 1007.5 227.5 c 128,-1,28
 1021 205 1021 205 1053 205 c 2,29,-1
 1082 205 l 2,30,31
 1099 205 1099 205 1110 201 c 128,-1,32
 1121 197 1121 197 1126.5 185.5 c 128,-1,33
 1132 174 1132 174 1132 154 c 128,-1,34
 1132 134 1132 134 1126 102 c 256,35,36
 1120 70 1120 70 1113.5 50 c 128,-1,37
 1107 30 1107 30 1097.5 19 c 128,-1,38
 1088 8 1088 8 1075.5 4 c 128,-1,39
 1063 0 1063 0 1046 0 c 2,40,-1
 951 0 l 2,41,42
 921 0 921 0 893.5 6.5 c 128,-1,43
 866 13 866 13 844 28 c 128,-1,44
 822 43 822 43 806.5 67.5 c 128,-1,45
 791 92 791 92 785 127 c 1,0,1
514 205 m 0,46,47
 581 205 581 205 633.5 234 c 128,-1,48
 686 263 686 263 722 308.5 c 128,-1,49
 758 354 758 354 776.5 410.5 c 128,-1,50
 795 467 795 467 795 522 c 0,51,52
 795 570 795 570 780.5 607 c 128,-1,53
 766 644 766 644 740.5 668.5 c 128,-1,54
 715 693 715 693 680 706 c 128,-1,55
 645 719 645 719 604 719 c 0,56,57
 536 719 536 719 487.5 686 c 128,-1,58
 439 653 439 653 408 603.5 c 128,-1,59
 377 554 377 554 363 496.5 c 128,-1,60
 349 439 349 439 349 391 c 0,61,62
 349 304 349 304 392 254.5 c 128,-1,63
 435 205 435 205 514 205 c 0,46,47
EndSplineSet
EndChar
StartChar: b
Encoding: 98 98 66
Width: 1228
Flags: W
LayerCount: 2
Back
Fore
SplineSet
776 946 m 0,0,1
 859 946 859 946 926 916.5 c 128,-1,2
 993 887 993 887 1040 833.5 c 128,-1,3
 1087 780 1087 780 1112 706 c 128,-1,4
 1137 632 1137 632 1137 544 c 0,5,6
 1137 481 1137 481 1123 414.5 c 128,-1,7
 1109 348 1109 348 1081 285 c 128,-1,8
 1053 222 1053 222 1011 166.5 c 128,-1,9
 969 111 969 111 912 69 c 128,-1,10
 855 27 855 27 783.5 2.5 c 128,-1,11
 712 -22 712 -22 626 -22 c 0,12,13
 529 -22 529 -22 455 25.5 c 128,-1,14
 381 73 381 73 343 152 c 1,15,-1
 326 53 l 2,16,17
 320 19 320 19 290 4.5 c 128,-1,18
 260 -10 260 -10 203 -10 c 0,19,20
 147 -10 147 -10 128.5 4.5 c 128,-1,21
 110 19 110 19 116 53 c 2,22,-1
 302 1107 l 1,23,-1
 205 1107 l 2,24,25
 188 1107 188 1107 177 1111 c 128,-1,26
 166 1115 166 1115 160 1126 c 128,-1,27
 154 1137 154 1137 154 1157 c 128,-1,28
 154 1177 154 1177 160 1209 c 256,29,30
 166 1241 166 1241 173 1261 c 128,-1,31
 180 1281 180 1281 189.5 1292.5 c 128,-1,32
 199 1304 199 1304 211.5 1308 c 128,-1,33
 224 1312 224 1312 241 1312 c 2,34,-1
 525 1312 l 2,35,36
 559 1312 559 1312 571 1297.5 c 128,-1,37
 583 1283 583 1283 577 1249 c 2,38,-1
 503 833 l 1,39,40
 563 886 563 886 630.5 916 c 128,-1,41
 698 946 698 946 776 946 c 0,0,1
706 719 m 0,42,43
 638 719 638 719 586 690 c 128,-1,44
 534 661 534 661 498 615.5 c 128,-1,45
 462 570 462 570 443.5 513.5 c 128,-1,46
 425 457 425 457 425 402 c 0,47,48
 425 354 425 354 439.5 317 c 128,-1,49
 454 280 454 280 479.5 255.5 c 128,-1,50
 505 231 505 231 540 218 c 128,-1,51
 575 205 575 205 616 205 c 0,52,53
 684 205 684 205 732.5 238 c 128,-1,54
 781 271 781 271 811.5 320.5 c 128,-1,55
 842 370 842 370 856.5 427.5 c 128,-1,56
 871 485 871 485 871 533 c 0,57,58
 871 620 871 620 828 669.5 c 128,-1,59
 785 719 785 719 706 719 c 0,42,43
EndSplineSet
EndChar
StartChar: c
Encoding: 99 99 67
Width: 1228
Flags: W
LayerCount: 2
Back
Fore
SplineSet
918 883 m 2,0,1
 924 917 924 917 955.5 931.5 c 128,-1,2
 987 946 987 946 1051 946 c 256,3,4
 1115 946 1115 946 1134.5 931.5 c 128,-1,5
 1154 917 1154 917 1148 883 c 2,6,-1
 1092 562 l 2,7,8
 1086 528 1086 528 1053 513.5 c 128,-1,9
 1020 499 1020 499 948 499 c 0,10,11
 912 499 912 499 890 502.5 c 128,-1,12
 868 506 868 506 856.5 513.5 c 128,-1,13
 845 521 845 521 842 533 c 128,-1,14
 839 545 839 545 842 562 c 0,15,16
 847 593 847 593 841 621 c 128,-1,17
 835 649 835 649 816 671 c 128,-1,18
 797 693 797 693 766 706 c 128,-1,19
 735 719 735 719 690 719 c 0,20,21
 616 719 616 719 561.5 689.5 c 128,-1,22
 507 660 507 660 471 614.5 c 128,-1,23
 435 569 435 569 417.5 512.5 c 128,-1,24
 400 456 400 456 400 402 c 0,25,26
 400 310 400 310 452.5 257.5 c 128,-1,27
 505 205 505 205 600 205 c 0,28,29
 680 205 680 205 764.5 230.5 c 128,-1,30
 849 256 849 256 930 299 c 0,31,32
 962 316 962 316 988 299 c 128,-1,33
 1014 282 1014 282 1035 225 c 0,34,35
 1057 166 1057 166 1048 133 c 128,-1,36
 1039 100 1039 100 1005 83 c 0,37,38
 906 35 906 35 793 6.5 c 128,-1,39
 680 -22 680 -22 575 -22 c 0,40,41
 472 -22 472 -22 390.5 9 c 128,-1,42
 309 40 309 40 252 95 c 128,-1,43
 195 150 195 150 164.5 225.5 c 128,-1,44
 134 301 134 301 134 389 c 0,45,46
 134 455 134 455 150 522 c 128,-1,47
 166 589 166 589 197 651 c 128,-1,48
 228 713 228 713 274 767 c 128,-1,49
 320 821 320 821 381 860.5 c 128,-1,50
 442 900 442 900 516.5 923 c 128,-1,51
 591 946 591 946 680 946 c 0,52,53
 761 946 761 946 822.5 915 c 128,-1,54
 884 884 884 884 908 824 c 1,55,-1
 918 883 l 2,0,1
EndSplineSet
EndChar
StartChar: d
Encoding: 100 100 68
Width: 1228
Flags: W
LayerCount: 2
Back
Fore
SplineSet
1084 205 m 2,0,1
 1101 205 1101 205 1112 201 c 128,-1,2
 1123 197 1123 197 1129 186 c 128,-1,3
 1135 175 1135 175 1135 155 c 128,-1,4
 1135 135 1135 135 1129 103 c 256,5,6
 1123 71 1123 71 1116 51 c 128,-1,7
 1109 31 1109 31 1099.5 19.5 c 128,-1,8
 1090 8 1090 8 1077.5 4 c 128,-1,9
 1065 0 1065 0 1048 0 c 2,10,-1
 814 0 l 2,11,12
 780 0 780 0 768 14.5 c 128,-1,13
 756 29 756 29 762 63 c 2,14,-1
 773 127 l 1,15,16
 711 57 711 57 631 17.5 c 128,-1,17
 551 -22 551 -22 454 -22 c 0,18,19
 368 -22 368 -22 300 7.5 c 128,-1,20
 232 37 232 37 185.5 88.5 c 128,-1,21
 139 140 139 140 114.5 211 c 128,-1,22
 90 282 90 282 90 365 c 0,23,24
 90 429 90 429 104 495 c 128,-1,25
 118 561 118 561 146 622 c 128,-1,26
 174 683 174 683 216 736.5 c 128,-1,27
 258 790 258 790 315 830 c 128,-1,28
 372 870 372 870 442.5 893 c 128,-1,29
 513 916 513 916 599 916 c 0,30,31
 678 916 678 916 744 883.5 c 128,-1,32
 810 851 810 851 851 796 c 1,33,-1
 906 1107 l 1,34,-1
 709 1107 l 2,35,36
 692 1107 692 1107 681 1111 c 128,-1,37
 670 1115 670 1115 664 1126 c 128,-1,38
 658 1137 658 1137 658 1157 c 128,-1,39
 658 1177 658 1177 664 1209 c 256,40,41
 670 1241 670 1241 677 1261 c 128,-1,42
 684 1281 684 1281 693.5 1292.5 c 128,-1,43
 703 1304 703 1304 715.5 1308 c 128,-1,44
 728 1312 728 1312 745 1312 c 2,45,-1
 1129 1312 l 2,46,47
 1163 1312 1163 1312 1175 1297.5 c 128,-1,48
 1187 1283 1187 1283 1181 1249 c 2,49,-1
 997 205 l 1,50,-1
 1084 205 l 2,0,1
524 205 m 0,51,52
 593 205 593 205 645 231.5 c 128,-1,53
 697 258 697 258 731.5 300.5 c 128,-1,54
 766 343 766 343 783.5 396.5 c 128,-1,55
 801 450 801 450 801 504 c 0,56,57
 801 550 801 550 786.5 585 c 128,-1,58
 772 620 772 620 746 643 c 128,-1,59
 720 666 720 666 685 677.5 c 128,-1,60
 650 689 650 689 609 689 c 0,61,62
 544 689 544 689 496.5 660.5 c 128,-1,63
 449 632 449 632 418 587.5 c 128,-1,64
 387 543 387 543 372 488.5 c 128,-1,65
 357 434 357 434 357 382 c 0,66,67
 357 295 357 295 401.5 250 c 128,-1,68
 446 205 446 205 524 205 c 0,51,52
EndSplineSet
EndChar
StartChar: e
Encoding: 101 101 69
Width: 1228
Flags: W
LayerCount: 2
Back
Fore
SplineSet
385 329 m 1,0,1
 400 267 400 267 447 236 c 128,-1,2
 494 205 494 205 570 205 c 0,3,4
 651 205 651 205 740.5 217.5 c 128,-1,5
 830 230 830 230 935 260 c 0,6,7
 952 265 952 265 965 264 c 128,-1,8
 978 263 978 263 988 253.5 c 128,-1,9
 998 244 998 244 1005.5 225 c 128,-1,10
 1013 206 1013 206 1019 176 c 0,11,12
 1025 145 1025 145 1025.5 123.5 c 128,-1,13
 1026 102 1026 102 1020 87.5 c 128,-1,14
 1014 73 1014 73 1001.5 64 c 128,-1,15
 989 55 989 55 970 49 c 0,16,17
 864 16 864 16 751 -3 c 128,-1,18
 638 -22 638 -22 530 -22 c 0,19,20
 432 -22 432 -22 356 8.5 c 128,-1,21
 280 39 280 39 228.5 92.5 c 128,-1,22
 177 146 177 146 150 219.5 c 128,-1,23
 123 293 123 293 123 379 c 0,24,25
 123 431 123 431 132 483.5 c 128,-1,26
 141 536 141 536 159 586.5 c 128,-1,27
 177 637 177 637 204.5 684 c 128,-1,28
 232 731 232 731 269 772 c 0,29,30
 345 855 345 855 453.5 900.5 c 128,-1,31
 562 946 562 946 700 946 c 0,32,33
 788 946 788 946 860 923.5 c 128,-1,34
 932 901 932 901 983 860 c 128,-1,35
 1034 819 1034 819 1061.5 762.5 c 128,-1,36
 1089 706 1089 706 1089 637 c 0,37,38
 1089 599 1089 599 1079 555.5 c 128,-1,39
 1069 512 1069 512 1044 475 c 0,40,41
 1015 432 1015 432 964 407 c 128,-1,42
 913 382 913 382 838 374 c 2,43,-1
 385 329 l 1,0,1
670 719 m 0,44,45
 567 719 567 719 498 669 c 128,-1,46
 429 619 429 619 398 516 c 1,47,-1
 747 551 l 2,48,49
 792 556 792 556 808.5 577 c 128,-1,50
 825 598 825 598 825 624 c 0,51,52
 825 641 825 641 816 658 c 128,-1,53
 807 675 807 675 788 688.5 c 128,-1,54
 769 702 769 702 739.5 710.5 c 128,-1,55
 710 719 710 719 670 719 c 0,44,45
EndSplineSet
EndChar
StartChar: f
Encoding: 102 102 70
Width: 1228
Flags: W
LayerCount: 2
Back
Fore
SplineSet
954 1090 m 0,0,1
 892 1090 892 1090 851.5 1050.5 c 128,-1,2
 811 1011 811 1011 795 924 c 2,3,-1
 785 864 l 1,4,-1
 1096 864 l 2,5,6
 1113 864 1113 864 1124 859 c 128,-1,7
 1135 854 1135 854 1140.5 842 c 128,-1,8
 1146 830 1146 830 1146 809 c 128,-1,9
 1146 788 1146 788 1140 756 c 256,10,11
 1134 724 1134 724 1127 703.5 c 128,-1,12
 1120 683 1120 683 1110 671 c 128,-1,13
 1100 659 1100 659 1087.5 654 c 128,-1,14
 1075 649 1075 649 1058 649 c 2,15,-1
 747 649 l 1,16,-1
 625 -45 l 2,17,18
 593 -228 593 -228 497.5 -321.5 c 128,-1,19
 402 -415 402 -415 232 -415 c 0,20,21
 189 -415 189 -415 151 -410 c 128,-1,22
 113 -405 113 -405 77.5 -394 c 128,-1,23
 42 -383 42 -383 6.5 -364.5 c 128,-1,24
 -29 -346 -29 -346 -67 -319 c 0,25,26
 -99 -296 -99 -296 -98 -265 c 128,-1,27
 -97 -234 -97 -234 -70 -187 c 0,28,29
 -11 -86 -11 -86 49 -126 c 0,30,31
 74 -143 74 -143 96 -154.5 c 128,-1,32
 118 -166 118 -166 139.5 -173.5 c 128,-1,33
 161 -181 161 -181 183 -184.5 c 128,-1,34
 205 -188 205 -188 230 -188 c 0,35,36
 288 -188 288 -188 325 -151.5 c 128,-1,37
 362 -115 362 -115 377 -32 c 2,38,-1
 497 649 l 1,39,-1
 314 649 l 2,40,41
 297 649 297 649 286 654 c 128,-1,42
 275 659 275 659 269.5 671 c 128,-1,43
 264 683 264 683 264 703.5 c 128,-1,44
 264 724 264 724 270 756 c 256,45,46
 276 788 276 788 283 809 c 128,-1,47
 290 830 290 830 299.5 842 c 128,-1,48
 309 854 309 854 322 859 c 128,-1,49
 335 864 335 864 352 864 c 2,50,-1
 535 864 l 1,51,-1
 548 937 l 2,52,53
 581 1124 581 1124 679.5 1220.5 c 128,-1,54
 778 1317 778 1317 952 1317 c 0,55,56
 1023 1317 1023 1317 1096 1304 c 128,-1,57
 1169 1291 1169 1291 1246 1260 c 0,58,59
 1262 1254 1262 1254 1273.5 1244 c 128,-1,60
 1285 1234 1285 1234 1290 1218.5 c 128,-1,61
 1295 1203 1295 1203 1292.5 1180.5 c 128,-1,62
 1290 1158 1290 1158 1278 1127 c 0,63,64
 1267 1097 1267 1097 1254 1079.5 c 128,-1,65
 1241 1062 1241 1062 1227.5 1054 c 128,-1,66
 1214 1046 1214 1046 1199 1046 c 128,-1,67
 1184 1046 1184 1046 1169 1051 c 0,68,69
 1108 1071 1108 1071 1056.5 1080.5 c 128,-1,70
 1005 1090 1005 1090 954 1090 c 0,0,1
EndSplineSet
EndChar
StartChar: g
Encoding: 103 103 71
Width: 1228
Flags: W
LayerCount: 2
Back
Fore
SplineSet
494 8 m 0,0,1
 408 8 408 8 340 37.5 c 128,-1,2
 272 67 272 67 225.5 118.5 c 128,-1,3
 179 170 179 170 154.5 241 c 128,-1,4
 130 312 130 312 130 395 c 0,5,6
 130 459 130 459 144 525 c 128,-1,7
 158 591 158 591 186 652 c 128,-1,8
 214 713 214 713 256 766.5 c 128,-1,9
 298 820 298 820 355 860 c 128,-1,10
 412 900 412 900 482.5 923 c 128,-1,11
 553 946 553 946 639 946 c 0,12,13
 736 946 736 946 808 906.5 c 128,-1,14
 880 867 880 867 925 791 c 1,15,-1
 939 871 l 2,16,17
 945 905 945 905 975 919.5 c 128,-1,18
 1005 934 1005 934 1062 934 c 0,19,20
 1118 934 1118 934 1136.5 919.5 c 128,-1,21
 1155 905 1155 905 1149 871 c 2,22,-1
 995 -4 l 2,23,24
 978 -100 978 -100 939.5 -176 c 128,-1,25
 901 -252 901 -252 837.5 -305.5 c 128,-1,26
 774 -359 774 -359 685 -387 c 128,-1,27
 596 -415 596 -415 478 -415 c 0,28,29
 405 -415 405 -415 318 -400 c 128,-1,30
 231 -385 231 -385 136 -356 c 0,31,32
 102 -345 102 -345 95 -315 c 128,-1,33
 88 -285 88 -285 112 -221 c 0,34,35
 124 -190 124 -190 136.5 -172 c 128,-1,36
 149 -154 149 -154 162.5 -145.5 c 128,-1,37
 176 -137 176 -137 190.5 -137 c 128,-1,38
 205 -137 205 -137 220 -141 c 0,39,40
 286 -161 286 -161 357 -174.5 c 128,-1,41
 428 -188 428 -188 488 -188 c 0,42,43
 609 -188 609 -188 670 -136.5 c 128,-1,44
 731 -85 731 -85 748 16 c 2,45,-1
 767 123 l 1,46,47
 708 69 708 69 638.5 38.5 c 128,-1,48
 569 8 569 8 494 8 c 0,0,1
564 235 m 0,49,50
 633 235 633 235 685 261.5 c 128,-1,51
 737 288 737 288 771.5 330.5 c 128,-1,52
 806 373 806 373 823.5 426.5 c 128,-1,53
 841 480 841 480 841 534 c 0,54,55
 841 580 841 580 826.5 615 c 128,-1,56
 812 650 812 650 786 673 c 128,-1,57
 760 696 760 696 725 707.5 c 128,-1,58
 690 719 690 719 649 719 c 0,59,60
 584 719 584 719 536.5 690.5 c 128,-1,61
 489 662 489 662 458 617.5 c 128,-1,62
 427 573 427 573 412 518.5 c 128,-1,63
 397 464 397 464 397 412 c 0,64,65
 397 325 397 325 441.5 280 c 128,-1,66
 486 235 486 235 564 235 c 0,49,50
EndSplineSet
EndChar
StartChar: h
Encoding: 104 104 72
Width: 1228
Flags: W
LayerCount: 2
Back
Fore
SplineSet
523 774 m 1,0,1
 599 862 599 862 675.5 904 c 128,-1,2
 752 946 752 946 833 946 c 0,3,4
 893 946 893 946 941 926.5 c 128,-1,5
 989 907 989 907 1022 871 c 128,-1,6
 1055 835 1055 835 1073 785.5 c 128,-1,7
 1091 736 1091 736 1091 676 c 0,8,9
 1091 658 1091 658 1089 638.5 c 128,-1,10
 1087 619 1087 619 1084 600 c 2,11,-1
 1015 205 l 1,12,-1
 1092 205 l 2,13,14
 1109 205 1109 205 1120 201 c 128,-1,15
 1131 197 1131 197 1136.5 185.5 c 128,-1,16
 1142 174 1142 174 1142 154 c 128,-1,17
 1142 134 1142 134 1136 102 c 256,18,19
 1130 70 1130 70 1123.5 50 c 128,-1,20
 1117 30 1117 30 1107.5 19 c 128,-1,21
 1098 8 1098 8 1085.5 4 c 128,-1,22
 1073 0 1073 0 1056 0 c 2,23,-1
 792 0 l 2,24,25
 758 0 758 0 746 14.5 c 128,-1,26
 734 29 734 29 740 63 c 2,27,-1
 827 561 l 2,28,29
 833 592 833 592 833 619 c 0,30,31
 833 667 833 667 811.5 693 c 128,-1,32
 790 719 790 719 738 719 c 0,33,34
 693 719 693 719 646.5 686 c 128,-1,35
 600 653 600 653 559 599 c 128,-1,36
 518 545 518 545 487.5 476.5 c 128,-1,37
 457 408 457 408 445 338 c 2,38,-1
 398 63 l 2,39,40
 392 29 392 29 375 14.5 c 128,-1,41
 358 0 358 0 324 0 c 2,42,-1
 200 0 l 2,43,44
 166 0 166 0 154 14.5 c 128,-1,45
 142 29 142 29 148 63 c 2,46,-1
 332 1107 l 1,47,-1
 235 1107 l 2,48,49
 218 1107 218 1107 207 1111 c 128,-1,50
 196 1115 196 1115 190 1126 c 128,-1,51
 184 1137 184 1137 184 1157 c 128,-1,52
 184 1177 184 1177 190 1209 c 256,53,54
 196 1241 196 1241 203 1261 c 128,-1,55
 210 1281 210 1281 219.5 1292.5 c 128,-1,56
 229 1304 229 1304 241.5 1308 c 128,-1,57
 254 1312 254 1312 271 1312 c 2,58,-1
 555 1312 l 2,59,60
 589 1312 589 1312 601 1297.5 c 128,-1,61
 613 1283 613 1283 607 1249 c 2,62,-1
 523 774 l 1,0,1
EndSplineSet
EndChar
StartChar: i
Encoding: 105 105 73
Width: 1228
Flags: W
LayerCount: 2
Back
Fore
SplineSet
826 1156 m 2,0,1
 823 1139 823 1139 815 1127 c 128,-1,2
 807 1115 807 1115 791.5 1107.5 c 128,-1,3
 776 1100 776 1100 752 1096.5 c 128,-1,4
 728 1093 728 1093 692 1093 c 0,5,6
 621 1093 621 1093 595.5 1107.5 c 128,-1,7
 570 1122 570 1122 576 1156 c 2,8,-1
 605 1320 l 2,9,10
 608 1337 608 1337 616 1349 c 128,-1,11
 624 1361 624 1361 639 1368.5 c 128,-1,12
 654 1376 654 1376 678 1379.5 c 128,-1,13
 702 1383 702 1383 738 1383 c 0,14,15
 809 1383 809 1383 835 1368.5 c 128,-1,16
 861 1354 861 1354 855 1320 c 2,17,-1
 826 1156 l 2,0,1
306 719 m 2,18,19
 289 719 289 719 278 723 c 128,-1,20
 267 727 267 727 261 738 c 128,-1,21
 255 749 255 749 255 769 c 128,-1,22
 255 789 255 789 261 821 c 256,23,24
 267 853 267 853 274 873 c 128,-1,25
 281 893 281 893 290.5 904.5 c 128,-1,26
 300 916 300 916 312.5 920 c 128,-1,27
 325 924 325 924 342 924 c 2,28,-1
 722 924 l 2,29,30
 756 924 756 924 768 909.5 c 128,-1,31
 780 895 780 895 774 861 c 2,32,-1
 686 361 l 2,33,34
 684 347 684 347 682.5 333.5 c 128,-1,35
 681 320 681 320 681 308 c 0,36,37
 681 254 681 254 705.5 229.5 c 128,-1,38
 730 205 730 205 778 205 c 0,39,40
 803 205 803 205 826 208.5 c 128,-1,41
 849 212 849 212 873.5 219.5 c 128,-1,42
 898 227 898 227 924 238.5 c 128,-1,43
 950 250 950 250 981 267 c 0,44,45
 1019 287 1019 287 1043 270 c 128,-1,46
 1067 253 1067 253 1090 204 c 0,47,48
 1100 182 1100 182 1106 163.5 c 128,-1,49
 1112 145 1112 145 1110.5 129 c 128,-1,50
 1109 113 1109 113 1099.5 99.5 c 128,-1,51
 1090 86 1090 86 1070 74 c 0,52,53
 1022 47 1022 47 980 28.5 c 128,-1,54
 938 10 938 10 898 -1 c 128,-1,55
 858 -12 858 -12 818.5 -17 c 128,-1,56
 779 -22 779 -22 736 -22 c 0,57,58
 589 -22 589 -22 509 55 c 128,-1,59
 429 132 429 132 429 272 c 0,60,61
 429 317 429 317 438 368 c 2,62,-1
 499 719 l 1,63,-1
 306 719 l 2,18,19
EndSplineSet
EndChar
StartChar: j
Encoding: 106 106 74
Width: 1228
Flags: W
LayerCount: 2
Back
Fore
SplineSet
96 -315 m 0,0,1
 66 -299 66 -299 60.5 -268 c 128,-1,2
 55 -237 55 -237 87 -178 c 0,3,4
 103 -148 103 -148 117.5 -131.5 c 128,-1,5
 132 -115 132 -115 146.5 -108 c 128,-1,6
 161 -101 161 -101 175 -102 c 128,-1,7
 189 -103 189 -103 203 -110 c 0,8,9
 233 -125 233 -125 264.5 -139 c 128,-1,10
 296 -153 296 -153 326.5 -164 c 128,-1,11
 357 -175 357 -175 385.5 -181.5 c 128,-1,12
 414 -188 414 -188 440 -188 c 0,13,14
 502 -188 502 -188 542.5 -148.5 c 128,-1,15
 583 -109 583 -109 599 -22 c 2,16,-1
 729 719 l 1,17,-1
 346 719 l 2,18,19
 329 719 329 719 318 723 c 128,-1,20
 307 727 307 727 301 738 c 128,-1,21
 295 749 295 749 295 769 c 128,-1,22
 295 789 295 789 301 821 c 256,23,24
 307 853 307 853 314 873 c 128,-1,25
 321 893 321 893 330.5 904.5 c 128,-1,26
 340 916 340 916 352.5 920 c 128,-1,27
 365 924 365 924 382 924 c 2,28,-1
 952 924 l 2,29,30
 986 924 986 924 998 909.5 c 128,-1,31
 1010 895 1010 895 1004 861 c 2,32,-1
 844 -45 l 2,33,34
 811 -232 811 -232 713.5 -323.5 c 128,-1,35
 616 -415 616 -415 442 -415 c 0,36,37
 355 -415 355 -415 267 -388 c 128,-1,38
 179 -361 179 -361 96 -315 c 0,0,1
1056 1156 m 2,39,40
 1053 1139 1053 1139 1045 1127 c 128,-1,41
 1037 1115 1037 1115 1021.5 1107.5 c 128,-1,42
 1006 1100 1006 1100 982 1096.5 c 128,-1,43
 958 1093 958 1093 922 1093 c 0,44,45
 851 1093 851 1093 825.5 1107.5 c 128,-1,46
 800 1122 800 1122 806 1156 c 2,47,-1
 835 1320 l 2,48,49
 838 1337 838 1337 846 1349 c 128,-1,50
 854 1361 854 1361 869 1368.5 c 128,-1,51
 884 1376 884 1376 908 1379.5 c 128,-1,52
 932 1383 932 1383 968 1383 c 0,53,54
 1039 1383 1039 1383 1065 1368.5 c 128,-1,55
 1091 1354 1091 1354 1085 1320 c 2,56,-1
 1056 1156 l 2,39,40
EndSplineSet
EndChar
StartChar: k
Encoding: 107 107 179
Width: 1228
Flags: W
LayerCount: 2
Back
Fore
SplineSet
780 739 m 1,0,-1
 737 739 l 2,1,2
 703 739 703 739 691.5 757 c 128,-1,3
 680 775 680 775 690 831 c 0,4,5
 695 859 695 859 701.5 877 c 128,-1,6
 708 895 708 895 717.5 905.5 c 128,-1,7
 727 916 727 916 739.5 920 c 128,-1,8
 752 924 752 924 769 924 c 2,9,-1
 1183 924 l 2,10,11
 1217 924 1217 924 1228.5 905.5 c 128,-1,12
 1240 887 1240 887 1230 831 c 0,13,14
 1225 803 1225 803 1218.5 785 c 128,-1,15
 1212 767 1212 767 1202.5 757 c 128,-1,16
 1193 747 1193 747 1180.5 743 c 128,-1,17
 1168 739 1168 739 1151 739 c 2,18,-1
 1121 739 l 1,19,-1
 691 449 l 1,20,21
 729 457 729 457 764.5 452.5 c 128,-1,22
 800 448 800 448 832 428 c 0,23,24
 863 408 863 408 882 382 c 128,-1,25
 901 356 901 356 914.5 328.5 c 128,-1,26
 928 301 928 301 939.5 275.5 c 128,-1,27
 951 250 951 250 968 232 c 0,28,29
 992 205 992 205 1033 205 c 2,30,-1
 1062 205 l 2,31,32
 1079 205 1079 205 1090 201 c 128,-1,33
 1101 197 1101 197 1106.5 185.5 c 128,-1,34
 1112 174 1112 174 1112 154 c 128,-1,35
 1112 134 1112 134 1106 102 c 256,36,37
 1100 70 1100 70 1093.5 50 c 128,-1,38
 1087 30 1087 30 1077.5 19 c 128,-1,39
 1068 8 1068 8 1055.5 4 c 128,-1,40
 1043 0 1043 0 1026 0 c 2,41,-1
 909 0 l 2,42,43
 876 0 876 0 847.5 11 c 128,-1,44
 819 22 819 22 793 47 c 256,45,46
 767 72 767 72 750 103.5 c 128,-1,47
 733 135 733 135 718 166.5 c 128,-1,48
 703 198 703 198 686.5 226.5 c 128,-1,49
 670 255 670 255 645 276 c 0,50,51
 627 290 627 290 604.5 297 c 128,-1,52
 582 304 582 304 558 304 c 0,53,54
 531 304 531 304 502.5 295.5 c 128,-1,55
 474 287 474 287 450 270 c 2,56,-1
 443 265 l 1,57,-1
 408 63 l 2,58,59
 402 29 402 29 385 14.5 c 128,-1,60
 368 0 368 0 334 0 c 2,61,-1
 210 0 l 2,62,63
 176 0 176 0 164 14.5 c 128,-1,64
 152 29 152 29 158 63 c 2,65,-1
 342 1107 l 1,66,-1
 245 1107 l 2,67,68
 228 1107 228 1107 217 1111 c 128,-1,69
 206 1115 206 1115 200 1126 c 128,-1,70
 194 1137 194 1137 194 1157 c 128,-1,71
 194 1177 194 1177 200 1209 c 256,72,73
 206 1241 206 1241 213 1261 c 128,-1,74
 220 1281 220 1281 229.5 1292.5 c 128,-1,75
 239 1304 239 1304 251.5 1308 c 128,-1,76
 264 1312 264 1312 281 1312 c 2,77,-1
 565 1312 l 2,78,79
 599 1312 599 1312 611 1297.5 c 128,-1,80
 623 1283 623 1283 617 1249 c 2,81,-1
 491 535 l 1,82,-1
 780 739 l 1,0,-1
EndSplineSet
EndChar
StartChar: l
Encoding: 108 108 75
Width: 1228
Flags: W
LayerCount: 2
Back
Fore
SplineSet
305 1107 m 2,0,1
 288 1107 288 1107 277 1111 c 128,-1,2
 266 1115 266 1115 260 1126 c 128,-1,3
 254 1137 254 1137 254 1157 c 128,-1,4
 254 1177 254 1177 260 1209 c 256,5,6
 266 1241 266 1241 273 1261 c 128,-1,7
 280 1281 280 1281 289.5 1292.5 c 128,-1,8
 299 1304 299 1304 311.5 1308 c 128,-1,9
 324 1312 324 1312 341 1312 c 2,10,-1
 761 1312 l 2,11,12
 795 1312 795 1312 807 1297.5 c 128,-1,13
 819 1283 819 1283 813 1249 c 2,14,-1
 656 361 l 2,15,16
 654 347 654 347 652.5 333.5 c 128,-1,17
 651 320 651 320 651 308 c 0,18,19
 651 254 651 254 675.5 229.5 c 128,-1,20
 700 205 700 205 748 205 c 0,21,22
 773 205 773 205 796 208.5 c 128,-1,23
 819 212 819 212 843.5 219.5 c 128,-1,24
 868 227 868 227 894 238.5 c 128,-1,25
 920 250 920 250 951 267 c 0,26,27
 989 287 989 287 1013 270 c 128,-1,28
 1037 253 1037 253 1060 204 c 0,29,30
 1070 182 1070 182 1076 163.5 c 128,-1,31
 1082 145 1082 145 1080.5 129 c 128,-1,32
 1079 113 1079 113 1069.5 99.5 c 128,-1,33
 1060 86 1060 86 1040 74 c 0,34,35
 992 47 992 47 950 28.5 c 128,-1,36
 908 10 908 10 868 -1 c 128,-1,37
 828 -12 828 -12 788.5 -17 c 128,-1,38
 749 -22 749 -22 706 -22 c 0,39,40
 559 -22 559 -22 479 55 c 128,-1,41
 399 132 399 132 399 272 c 0,42,43
 399 317 399 317 408 368 c 2,44,-1
 538 1107 l 1,45,-1
 305 1107 l 2,0,1
EndSplineSet
EndChar
StartChar: m
Encoding: 109 109 76
Width: 1228
Flags: W
LayerCount: 2
Back
Fore
SplineSet
105 719 m 2,0,1
 88 719 88 719 77 723 c 128,-1,2
 66 727 66 727 60 738 c 128,-1,3
 54 749 54 749 54 769 c 128,-1,4
 54 789 54 789 60 821 c 256,5,6
 66 853 66 853 73 873 c 128,-1,7
 80 893 80 893 89.5 904.5 c 128,-1,8
 99 916 99 916 111.5 920 c 128,-1,9
 124 924 124 924 141 924 c 2,10,-1
 315 924 l 2,11,12
 349 924 349 924 361 909.5 c 128,-1,13
 373 895 373 895 367 861 c 2,14,-1
 342 717 l 1,15,16
 405 832 405 832 476 889 c 128,-1,17
 547 946 547 946 622 946 c 0,18,19
 700 946 700 946 737.5 893 c 128,-1,20
 775 840 775 840 782 743 c 1,21,22
 839 845 839 845 910 895.5 c 128,-1,23
 981 946 981 946 1052 946 c 0,24,25
 1124 946 1124 946 1169.5 894.5 c 128,-1,26
 1215 843 1215 843 1215 736 c 0,27,28
 1215 713 1215 713 1212.5 687.5 c 128,-1,29
 1210 662 1210 662 1205 633 c 2,30,-1
 1105 63 l 2,31,32
 1099 29 1099 29 1082 14.5 c 128,-1,33
 1065 0 1065 0 1031 0 c 2,34,-1
 907 0 l 2,35,36
 873 0 873 0 861 14.5 c 128,-1,37
 849 29 849 29 855 63 c 2,38,-1
 947 586 l 2,39,40
 949 600 949 600 950.5 612 c 128,-1,41
 952 624 952 624 952 635 c 0,42,43
 952 689 952 689 913 689 c 0,44,45
 867 689 867 689 826.5 618.5 c 128,-1,46
 786 548 786 548 761 403 c 2,47,-1
 701 63 l 2,48,49
 695 29 695 29 678 14.5 c 128,-1,50
 661 0 661 0 627 0 c 2,51,-1
 503 0 l 2,52,53
 469 0 469 0 457 14.5 c 128,-1,54
 445 29 445 29 451 63 c 2,55,-1
 543 586 l 2,56,57
 545 600 545 600 546.5 612 c 128,-1,58
 548 624 548 624 548 635 c 0,59,60
 548 689 548 689 509 689 c 0,61,62
 463 689 463 689 422.5 618.5 c 128,-1,63
 382 548 382 548 357 403 c 2,64,-1
 297 63 l 2,65,66
 291 29 291 29 274 14.5 c 128,-1,67
 257 0 257 0 223 0 c 2,68,-1
 99 0 l 2,69,70
 65 0 65 0 53 14.5 c 128,-1,71
 41 29 41 29 47 63 c 2,72,-1
 162 719 l 1,73,-1
 105 719 l 2,0,1
EndSplineSet
EndChar
StartChar: n
Encoding: 110 110 77
Width: 1228
Flags: W
LayerCount: 2
Back
Fore
SplineSet
273 719 m 1,0,-1
 176 719 l 2,1,2
 159 719 159 719 148 723 c 128,-1,3
 137 727 137 727 131 738 c 128,-1,4
 125 749 125 749 125 769 c 128,-1,5
 125 789 125 789 131 821 c 256,6,7
 137 853 137 853 144 873 c 128,-1,8
 151 893 151 893 160.5 904.5 c 128,-1,9
 170 916 170 916 182.5 920 c 128,-1,10
 195 924 195 924 212 924 c 2,11,-1
 456 924 l 2,12,13
 490 924 490 924 502 909.5 c 128,-1,14
 514 895 514 895 508 861 c 2,15,-1
 483 716 l 1,16,17
 571 838 571 838 660 892 c 128,-1,18
 749 946 749 946 843 946 c 0,19,20
 903 946 903 946 951 926 c 128,-1,21
 999 906 999 906 1032 870.5 c 128,-1,22
 1065 835 1065 835 1083 785 c 128,-1,23
 1101 735 1101 735 1101 675 c 0,24,25
 1101 657 1101 657 1099 638 c 128,-1,26
 1097 619 1097 619 1094 600 c 2,27,-1
 1025 205 l 1,28,-1
 1102 205 l 2,29,30
 1119 205 1119 205 1130 201 c 128,-1,31
 1141 197 1141 197 1146.5 185.5 c 128,-1,32
 1152 174 1152 174 1152 154 c 128,-1,33
 1152 134 1152 134 1146 102 c 256,34,35
 1140 70 1140 70 1133.5 50 c 128,-1,36
 1127 30 1127 30 1117.5 19 c 128,-1,37
 1108 8 1108 8 1095.5 4 c 128,-1,38
 1083 0 1083 0 1066 0 c 2,39,-1
 802 0 l 2,40,41
 768 0 768 0 756 14.5 c 128,-1,42
 744 29 744 29 750 63 c 2,43,-1
 837 561 l 2,44,45
 843 594 843 594 843 621 c 0,46,47
 843 668 843 668 821 693.5 c 128,-1,48
 799 719 799 719 748 719 c 0,49,50
 703 719 703 719 656.5 686 c 128,-1,51
 610 653 610 653 569 599 c 128,-1,52
 528 545 528 545 497.5 476.5 c 128,-1,53
 467 408 467 408 455 338 c 2,54,-1
 408 63 l 2,55,56
 402 29 402 29 385 14.5 c 128,-1,57
 368 0 368 0 334 0 c 2,58,-1
 210 0 l 2,59,60
 176 0 176 0 164 14.5 c 128,-1,61
 152 29 152 29 158 63 c 2,62,-1
 273 719 l 1,0,-1
EndSplineSet
EndChar
StartChar: o
Encoding: 111 111 78
Width: 1228
Flags: W
LayerCount: 2
Back
Fore
SplineSet
550 -22 m 0,0,1
 447 -22 447 -22 366 9 c 128,-1,2
 285 40 285 40 228.5 95 c 128,-1,3
 172 150 172 150 142.5 225 c 128,-1,4
 113 300 113 300 113 388 c 0,5,6
 113 453 113 453 128.5 520 c 128,-1,7
 144 587 144 587 176 649 c 128,-1,8
 208 711 208 711 256.5 765 c 128,-1,9
 305 819 305 819 370 859.5 c 128,-1,10
 435 900 435 900 517.5 923 c 128,-1,11
 600 946 600 946 700 946 c 0,12,13
 802 946 802 946 883 915 c 128,-1,14
 964 884 964 884 1020.5 829 c 128,-1,15
 1077 774 1077 774 1106.5 699 c 128,-1,16
 1136 624 1136 624 1136 536 c 0,17,18
 1136 473 1136 473 1121 407.5 c 128,-1,19
 1106 342 1106 342 1075 280 c 128,-1,20
 1044 218 1044 218 996.5 163 c 128,-1,21
 949 108 949 108 884 67 c 128,-1,22
 819 26 819 26 735.5 2 c 128,-1,23
 652 -22 652 -22 550 -22 c 0,0,1
670 719 m 0,24,25
 601 719 601 719 547.5 692 c 128,-1,26
 494 665 494 665 456.5 620.5 c 128,-1,27
 419 576 419 576 399.5 519 c 128,-1,28
 380 462 380 462 380 401 c 0,29,30
 380 310 380 310 433 257.5 c 128,-1,31
 486 205 486 205 580 205 c 0,32,33
 648 205 648 205 702 231.5 c 128,-1,34
 756 258 756 258 793 302.5 c 128,-1,35
 830 347 830 347 849.5 404 c 128,-1,36
 869 461 869 461 869 522 c 0,37,38
 869 613 869 613 816.5 666 c 128,-1,39
 764 719 764 719 670 719 c 0,24,25
EndSplineSet
EndChar
StartChar: p
Encoding: 112 112 79
Width: 1228
Flags: W
LayerCount: 2
Back
Fore
SplineSet
651 8 m 0,0,1
 568 8 568 8 504.5 43 c 128,-1,2
 441 78 441 78 400 133 c 1,3,-1
 343 -188 l 1,4,-1
 590 -188 l 2,5,6
 607 -188 607 -188 618 -192 c 128,-1,7
 629 -196 629 -196 635 -207.5 c 128,-1,8
 641 -219 641 -219 641 -239 c 128,-1,9
 641 -259 641 -259 635 -291 c 256,10,11
 629 -323 629 -323 622 -343 c 128,-1,12
 615 -363 615 -363 605.5 -374 c 128,-1,13
 596 -385 596 -385 583.5 -389 c 128,-1,14
 571 -393 571 -393 554 -393 c 2,15,-1
 -30 -393 l 2,16,17
 -47 -393 -47 -393 -58 -389 c 128,-1,18
 -69 -385 -69 -385 -74.5 -374 c 128,-1,19
 -80 -363 -80 -363 -80 -343 c 128,-1,20
 -80 -323 -80 -323 -74 -291 c 0,21,22
 -69 -259 -69 -259 -62 -239 c 128,-1,23
 -55 -219 -55 -219 -45.5 -207.5 c 128,-1,24
 -36 -196 -36 -196 -23.5 -192 c 128,-1,25
 -11 -188 -11 -188 6 -188 c 2,26,-1
 93 -188 l 1,27,-1
 253 719 l 1,28,-1
 166 719 l 2,29,30
 149 719 149 719 138 723 c 128,-1,31
 127 727 127 727 121 738 c 128,-1,32
 115 749 115 749 115 769 c 128,-1,33
 115 789 115 789 121 821 c 256,34,35
 127 853 127 853 134 873 c 128,-1,36
 141 893 141 893 150.5 904.5 c 128,-1,37
 160 916 160 916 172.5 920 c 128,-1,38
 185 924 185 924 202 924 c 2,39,-1
 436 924 l 2,40,41
 470 924 470 924 482 909.5 c 128,-1,42
 494 895 494 895 488 861 c 2,43,-1
 476 791 l 1,44,45
 541 864 541 864 624 905 c 128,-1,46
 707 946 707 946 796 946 c 0,47,48
 882 946 882 946 950 916.5 c 128,-1,49
 1018 887 1018 887 1064.5 835.5 c 128,-1,50
 1111 784 1111 784 1135.5 713 c 128,-1,51
 1160 642 1160 642 1160 559 c 0,52,53
 1160 495 1160 495 1146 429 c 128,-1,54
 1132 363 1132 363 1104 302 c 128,-1,55
 1076 241 1076 241 1034 187.5 c 128,-1,56
 992 134 992 134 935 94 c 128,-1,57
 878 54 878 54 807 31 c 128,-1,58
 736 8 736 8 651 8 c 0,0,1
726 719 m 0,59,60
 657 719 657 719 605 692.5 c 128,-1,61
 553 666 553 666 518.5 623.5 c 128,-1,62
 484 581 484 581 466.5 527.5 c 128,-1,63
 449 474 449 474 449 420 c 0,64,65
 449 373 449 373 463.5 338.5 c 128,-1,66
 478 304 478 304 504 281 c 128,-1,67
 530 258 530 258 565 246.5 c 128,-1,68
 600 235 600 235 641 235 c 0,69,70
 706 235 706 235 753.5 263.5 c 128,-1,71
 801 292 801 292 832 336.5 c 128,-1,72
 863 381 863 381 878 435.5 c 128,-1,73
 893 490 893 490 893 542 c 0,74,75
 893 629 893 629 848.5 674 c 128,-1,76
 804 719 804 719 726 719 c 0,59,60
EndSplineSet
EndChar
StartChar: q
Encoding: 113 113 80
Width: 1228
Flags: W
LayerCount: 2
Back
Fore
SplineSet
639 946 m 0,0,1
 736 946 736 946 808 906.5 c 128,-1,2
 880 867 880 867 925 791 c 1,3,-1
 939 871 l 2,4,5
 945 905 945 905 975 919.5 c 128,-1,6
 1005 934 1005 934 1062 934 c 0,7,8
 1118 934 1118 934 1136.5 919.5 c 128,-1,9
 1155 905 1155 905 1149 871 c 2,10,-1
 962 -188 l 1,11,-1
 1069 -188 l 2,12,13
 1086 -188 1086 -188 1097 -192 c 128,-1,14
 1108 -196 1108 -196 1114 -207.5 c 128,-1,15
 1120 -219 1120 -219 1120 -239 c 128,-1,16
 1120 -259 1120 -259 1114 -291 c 256,17,18
 1108 -323 1108 -323 1101 -343 c 128,-1,19
 1094 -363 1094 -363 1084.5 -374 c 128,-1,20
 1075 -385 1075 -385 1062.5 -389 c 128,-1,21
 1050 -393 1050 -393 1033 -393 c 2,22,-1
 459 -393 l 2,23,24
 442 -393 442 -393 431 -389 c 128,-1,25
 420 -385 420 -385 414 -374 c 128,-1,26
 408 -363 408 -363 408 -343 c 128,-1,27
 408 -323 408 -323 414 -291 c 256,28,29
 420 -259 420 -259 427 -239 c 128,-1,30
 434 -219 434 -219 443.5 -207.5 c 128,-1,31
 453 -196 453 -196 465.5 -192 c 128,-1,32
 478 -188 478 -188 495 -188 c 2,33,-1
 712 -188 l 1,34,-1
 767 123 l 1,35,36
 708 69 708 69 638.5 38.5 c 128,-1,37
 569 8 569 8 494 8 c 0,38,39
 408 8 408 8 340 37.5 c 128,-1,40
 272 67 272 67 225.5 118.5 c 128,-1,41
 179 170 179 170 154.5 241 c 128,-1,42
 130 312 130 312 130 395 c 0,43,44
 130 459 130 459 144 525 c 128,-1,45
 158 591 158 591 186 652 c 128,-1,46
 214 713 214 713 256 766.5 c 128,-1,47
 298 820 298 820 355 860 c 128,-1,48
 412 900 412 900 482.5 923 c 128,-1,49
 553 946 553 946 639 946 c 0,0,1
564 235 m 0,50,51
 633 235 633 235 685 261.5 c 128,-1,52
 737 288 737 288 771.5 330.5 c 128,-1,53
 806 373 806 373 823.5 426.5 c 128,-1,54
 841 480 841 480 841 534 c 0,55,56
 841 580 841 580 826.5 615 c 128,-1,57
 812 650 812 650 786 673 c 128,-1,58
 760 696 760 696 725 707.5 c 128,-1,59
 690 719 690 719 649 719 c 0,60,61
 584 719 584 719 536.5 690.5 c 128,-1,62
 489 662 489 662 458 617.5 c 128,-1,63
 427 573 427 573 412 518.5 c 128,-1,64
 397 464 397 464 397 412 c 0,65,66
 397 325 397 325 441.5 280 c 128,-1,67
 486 235 486 235 564 235 c 0,50,51
EndSplineSet
EndChar
StartChar: r
Encoding: 114 114 81
Width: 1228
Flags: W
LayerCount: 2
Back
Fore
SplineSet
586 924 m 2,0,1
 620 924 620 924 632 909.5 c 128,-1,2
 644 895 644 895 638 861 c 2,3,-1
 602 654 l 1,4,5
 701 799 701 799 807 872.5 c 128,-1,6
 913 946 913 946 1010 946 c 0,7,8
 1093 946 1093 946 1163 890 c 0,9,10
 1198 862 1198 862 1200.5 823.5 c 128,-1,11
 1203 785 1203 785 1172 729 c 0,12,13
 1138 668 1138 668 1106 649 c 128,-1,14
 1074 630 1074 630 1045 647 c 0,15,16
 996 675 996 675 939 675 c 0,17,18
 879 675 879 675 819 646 c 128,-1,19
 759 617 759 617 707.5 565.5 c 128,-1,20
 656 514 656 514 618.5 443.5 c 128,-1,21
 581 373 581 373 567 290 c 2,22,-1
 553 205 l 1,23,-1
 840 205 l 2,24,25
 857 205 857 205 868 201 c 128,-1,26
 879 197 879 197 884.5 185.5 c 128,-1,27
 890 174 890 174 890 154 c 128,-1,28
 890 134 890 134 884 102 c 256,29,30
 878 70 878 70 871.5 50 c 128,-1,31
 865 30 865 30 855.5 19 c 128,-1,32
 846 8 846 8 833.5 4 c 128,-1,33
 821 0 821 0 804 0 c 2,34,-1
 120 0 l 2,35,36
 103 0 103 0 91.5 4 c 128,-1,37
 80 8 80 8 74.5 19 c 128,-1,38
 69 30 69 30 68.5 50 c 128,-1,39
 68 70 68 70 74 102 c 256,40,41
 80 134 80 134 87 154 c 128,-1,42
 94 174 94 174 103.5 185.5 c 128,-1,43
 113 197 113 197 126 201 c 128,-1,44
 139 205 139 205 156 205 c 2,45,-1
 303 205 l 1,46,-1
 393 719 l 1,47,-1
 276 719 l 2,48,49
 259 719 259 719 248 723 c 128,-1,50
 237 727 237 727 231 738 c 128,-1,51
 225 749 225 749 225 769 c 128,-1,52
 225 789 225 789 231 821 c 256,53,54
 237 853 237 853 244 873 c 128,-1,55
 251 893 251 893 260.5 904.5 c 128,-1,56
 270 916 270 916 282.5 920 c 128,-1,57
 295 924 295 924 312 924 c 2,58,-1
 586 924 l 2,0,1
EndSplineSet
EndChar
StartChar: s
Encoding: 115 115 82
Width: 1228
Flags: W
LayerCount: 2
Back
Fore
SplineSet
351 41 m 2,0,1
 346 7 346 7 314 -7.5 c 128,-1,2
 282 -22 282 -22 218 -22 c 256,3,4
 154 -22 154 -22 129.5 -7.5 c 128,-1,5
 105 7 105 7 111 41 c 2,6,-1
 150 264 l 2,7,8
 156 298 156 298 182 312.5 c 128,-1,9
 208 327 208 327 257 327 c 0,10,11
 290 327 290 327 308.5 320 c 128,-1,12
 327 313 327 313 335 299 c 0,13,14
 356 266 356 266 386 242.5 c 128,-1,15
 416 219 416 219 452 205 c 128,-1,16
 488 191 488 191 529 184.5 c 128,-1,17
 570 178 570 178 613 178 c 0,18,19
 665 178 665 178 700.5 186.5 c 128,-1,20
 736 195 736 195 757 211 c 0,21,22
 775 225 775 225 782 241.5 c 128,-1,23
 789 258 789 258 789 269 c 0,24,25
 789 291 789 291 769.5 304.5 c 128,-1,26
 750 318 750 318 716 328 c 0,27,28
 678 338 678 338 627.5 346 c 128,-1,29
 577 354 577 354 522.5 364 c 128,-1,30
 468 374 468 374 414.5 389.5 c 128,-1,31
 361 405 361 405 317 431 c 0,32,33
 269 460 269 460 238.5 505.5 c 128,-1,34
 208 551 208 551 208 620 c 0,35,36
 208 686 208 686 234.5 747.5 c 128,-1,37
 261 809 261 809 315 854 c 0,38,39
 372 901 372 901 451 923.5 c 128,-1,40
 530 946 530 946 622 946 c 0,41,42
 703 946 703 946 765 924.5 c 128,-1,43
 827 903 827 903 876 868 c 1,44,-1
 879 883 l 2,45,46
 886 917 886 917 912 931.5 c 128,-1,47
 938 946 938 946 1002 946 c 256,48,49
 1066 946 1066 946 1090.5 931.5 c 128,-1,50
 1115 917 1115 917 1109 883 c 2,51,-1
 1072 672 l 2,52,53
 1066 638 1066 638 1042 623.5 c 128,-1,54
 1018 609 1018 609 969 609 c 0,55,56
 915 609 915 609 900 630 c 0,57,58
 850 695 850 695 777 720.5 c 128,-1,59
 704 746 704 746 609 746 c 0,60,61
 571 746 571 746 543.5 737.5 c 128,-1,62
 516 729 516 729 498 715 c 0,63,64
 468 691 468 691 468 660 c 0,65,66
 468 639 468 639 487.5 626.5 c 128,-1,67
 507 614 507 614 539 605 c 0,68,69
 576 595 576 595 627.5 588 c 128,-1,70
 679 581 679 581 734 572 c 128,-1,71
 789 563 789 563 843.5 548.5 c 128,-1,72
 898 534 898 534 942 509 c 0,73,74
 990 481 990 481 1020.5 437.5 c 128,-1,75
 1051 394 1051 394 1051 325 c 0,76,77
 1051 262 1051 262 1028 200 c 128,-1,78
 1005 138 1005 138 956 91 c 0,79,80
 898 34 898 34 808 6 c 128,-1,81
 718 -22 718 -22 598 -22 c 0,82,83
 520 -22 520 -22 461 0 c 128,-1,84
 402 22 402 22 353 54 c 1,85,-1
 351 41 l 2,0,1
EndSplineSet
EndChar
StartChar: t
Encoding: 116 116 178
Width: 1228
Flags: W
LayerCount: 2
Back
Fore
SplineSet
685 864 m 1,0,-1
 1056 864 l 2,1,2
 1073 864 1073 864 1084 859 c 128,-1,3
 1095 854 1095 854 1100.5 842 c 128,-1,4
 1106 830 1106 830 1106 809 c 128,-1,5
 1106 788 1106 788 1100 756 c 256,6,7
 1094 724 1094 724 1087 703.5 c 128,-1,8
 1080 683 1080 683 1070 671 c 128,-1,9
 1060 659 1060 659 1047.5 654 c 128,-1,10
 1035 649 1035 649 1018 649 c 2,11,-1
 647 649 l 1,12,-1
 598 371 l 2,13,14
 595 356 595 356 594 342 c 128,-1,15
 593 328 593 328 593 316 c 0,16,17
 593 258 593 258 620 231.5 c 128,-1,18
 647 205 647 205 698 205 c 0,19,20
 723 205 723 205 754.5 211.5 c 128,-1,21
 786 218 786 218 820.5 229 c 128,-1,22
 855 240 855 240 891 254 c 128,-1,23
 927 268 927 268 962 283 c 0,24,25
 979 290 979 290 993 290.5 c 128,-1,26
 1007 291 1007 291 1019.5 282.5 c 128,-1,27
 1032 274 1032 274 1043 256.5 c 128,-1,28
 1054 239 1054 239 1065 209 c 0,29,30
 1085 153 1085 153 1076 126 c 128,-1,31
 1067 99 1067 99 1031 82 c 0,32,33
 931 36 931 36 837 7 c 128,-1,34
 743 -22 743 -22 656 -22 c 0,35,36
 504 -22 504 -22 421.5 54 c 128,-1,37
 339 130 339 130 339 273 c 0,38,39
 339 317 339 317 348 368 c 2,40,-1
 397 649 l 1,41,-1
 204 649 l 2,42,43
 187 649 187 649 176 654 c 128,-1,44
 165 659 165 659 159.5 671 c 128,-1,45
 154 683 154 683 154 703.5 c 128,-1,46
 154 724 154 724 160 756 c 256,47,48
 166 788 166 788 173 809 c 128,-1,49
 180 830 180 830 189.5 842 c 128,-1,50
 199 854 199 854 212 859 c 128,-1,51
 225 864 225 864 242 864 c 2,52,-1
 435 864 l 1,53,-1
 485 1146 l 2,54,55
 491 1180 491 1180 523.5 1194.5 c 128,-1,56
 556 1209 556 1209 628 1209 c 0,57,58
 664 1209 664 1209 686 1205.5 c 128,-1,59
 708 1202 708 1202 720 1194.5 c 128,-1,60
 732 1187 732 1187 735 1175 c 128,-1,61
 738 1163 738 1163 735 1146 c 2,62,-1
 685 864 l 1,0,-1
EndSplineSet
EndChar
StartChar: u
Encoding: 117 117 83
Width: 1228
Flags: W
LayerCount: 2
Back
Fore
SplineSet
788 208 m 1,0,1
 700 86 700 86 611 32 c 128,-1,2
 522 -22 522 -22 428 -22 c 0,3,4
 368 -22 368 -22 320 -2 c 128,-1,5
 272 18 272 18 239 53.5 c 128,-1,6
 206 89 206 89 188 139 c 128,-1,7
 170 189 170 189 170 249 c 0,8,9
 170 267 170 267 171.5 285.5 c 128,-1,10
 173 304 173 304 177 324 c 2,11,-1
 246 719 l 1,12,-1
 169 719 l 2,13,14
 152 719 152 719 141 723 c 128,-1,15
 130 727 130 727 124 738.5 c 128,-1,16
 118 750 118 750 118 770 c 128,-1,17
 118 790 118 790 124 822 c 256,18,19
 130 854 130 854 137 874 c 128,-1,20
 144 894 144 894 153.5 905 c 128,-1,21
 163 916 163 916 175.5 920 c 128,-1,22
 188 924 188 924 205 924 c 2,23,-1
 469 924 l 2,24,25
 503 924 503 924 515 909.5 c 128,-1,26
 527 895 527 895 521 861 c 2,27,-1
 434 363 l 2,28,29
 428 331 428 331 428 305 c 0,30,31
 428 257 428 257 449.5 231 c 128,-1,32
 471 205 471 205 523 205 c 0,33,34
 568 205 568 205 615 238 c 128,-1,35
 662 271 662 271 702.5 325 c 128,-1,36
 743 379 743 379 773.5 447 c 128,-1,37
 804 515 804 515 816 586 c 2,38,-1
 838 719 l 1,39,-1
 731 719 l 2,40,41
 714 719 714 719 703 723 c 128,-1,42
 692 727 692 727 686 738.5 c 128,-1,43
 680 750 680 750 680 770 c 128,-1,44
 680 790 680 790 686 822 c 256,45,46
 692 854 692 854 699 874 c 128,-1,47
 706 894 706 894 715.5 905 c 128,-1,48
 725 916 725 916 737.5 920 c 128,-1,49
 750 924 750 924 767 924 c 2,50,-1
 1061 924 l 2,51,52
 1095 924 1095 924 1107 909.5 c 128,-1,53
 1119 895 1119 895 1113 861 c 2,54,-1
 998 205 l 1,55,-1
 1075 205 l 2,56,57
 1092 205 1092 205 1103 201 c 128,-1,58
 1114 197 1114 197 1120 186 c 128,-1,59
 1126 175 1126 175 1126 155 c 128,-1,60
 1126 135 1126 135 1120 103 c 256,61,62
 1114 71 1114 71 1107 51 c 128,-1,63
 1100 31 1100 31 1090.5 19.5 c 128,-1,64
 1081 8 1081 8 1068.5 4 c 128,-1,65
 1056 0 1056 0 1039 0 c 2,66,-1
 815 0 l 2,67,68
 781 0 781 0 769 14.5 c 128,-1,69
 757 29 757 29 763 63 c 2,70,-1
 788 208 l 1,0,1
EndSplineSet
EndChar
StartChar: v
Encoding: 118 118 84
Width: 1228
Flags: W
LayerCount: 2
Back
Fore
SplineSet
159 719 m 2,0,1
 142 719 142 719 131 723 c 128,-1,2
 120 727 120 727 114 738 c 128,-1,3
 108 749 108 749 108 769 c 128,-1,4
 108 789 108 789 114 821 c 256,5,6
 120 853 120 853 127 873 c 128,-1,7
 134 893 134 893 143.5 904.5 c 128,-1,8
 153 916 153 916 165.5 920 c 128,-1,9
 178 924 178 924 195 924 c 2,10,-1
 586 924 l 2,11,12
 603 924 603 924 614 920 c 128,-1,13
 625 916 625 916 631 904.5 c 128,-1,14
 637 893 637 893 637 873 c 128,-1,15
 637 853 637 853 631 821 c 256,16,17
 625 789 625 789 618 769 c 128,-1,18
 611 749 611 749 601.5 738 c 128,-1,19
 592 727 592 727 579.5 723 c 128,-1,20
 567 719 567 719 550 719 c 2,21,-1
 483 719 l 1,22,-1
 583 278 l 1,23,-1
 839 719 l 1,24,-1
 784 719 l 2,25,26
 767 719 767 719 756 723 c 128,-1,27
 745 727 745 727 739 738 c 128,-1,28
 733 749 733 749 733 769 c 128,-1,29
 733 789 733 789 739 821 c 256,30,31
 745 853 745 853 752 873 c 128,-1,32
 759 893 759 893 768.5 904.5 c 128,-1,33
 778 916 778 916 790.5 920 c 128,-1,34
 803 924 803 924 820 924 c 2,35,-1
 1217 924 l 2,36,37
 1234 924 1234 924 1245 920 c 128,-1,38
 1256 916 1256 916 1262 904.5 c 128,-1,39
 1268 893 1268 893 1268 873 c 128,-1,40
 1268 853 1268 853 1262 821 c 256,41,42
 1256 789 1256 789 1249 769 c 128,-1,43
 1242 749 1242 749 1232.5 738 c 128,-1,44
 1223 727 1223 727 1210.5 723 c 128,-1,45
 1198 719 1198 719 1181 719 c 2,46,-1
 1113 719 l 1,47,-1
 701 43 l 2,48,49
 681 9 681 9 645 -6.5 c 128,-1,50
 609 -22 609 -22 537 -22 c 0,51,52
 501 -22 501 -22 476 -18 c 128,-1,53
 451 -14 451 -14 435 -6 c 128,-1,54
 419 2 419 2 410 14 c 128,-1,55
 401 26 401 26 397 43 c 2,56,-1
 225 719 l 1,57,-1
 159 719 l 2,0,1
EndSplineSet
EndChar
StartChar: w
Encoding: 119 119 85
Width: 1228
Flags: W
LayerCount: 2
Back
Fore
SplineSet
99 719 m 2,0,1
 82 719 82 719 71 723 c 128,-1,2
 60 727 60 727 54 738 c 128,-1,3
 48 749 48 749 48 769 c 128,-1,4
 48 789 48 789 54 821 c 256,5,6
 60 853 60 853 67 873 c 128,-1,7
 74 893 74 893 83.5 904.5 c 128,-1,8
 93 916 93 916 105.5 920 c 128,-1,9
 118 924 118 924 135 924 c 2,10,-1
 471 924 l 2,11,12
 488 924 488 924 499 920 c 128,-1,13
 510 916 510 916 516 904.5 c 128,-1,14
 522 893 522 893 522 873 c 128,-1,15
 522 853 522 853 516 821 c 256,16,17
 510 789 510 789 503 769 c 128,-1,18
 496 749 496 749 486.5 738 c 128,-1,19
 477 727 477 727 464.5 723 c 128,-1,20
 452 719 452 719 435 719 c 2,21,-1
 350 719 l 1,22,-1
 357 331 l 1,23,-1
 555 670 l 2,24,25
 570 696 570 696 593.5 711.5 c 128,-1,26
 617 727 617 727 661 727 c 0,27,28
 706 727 706 727 724.5 715 c 128,-1,29
 743 703 743 703 749 677 c 2,30,-1
 825 331 l 1,31,-1
 971 719 l 1,32,-1
 899 719 l 2,33,34
 882 719 882 719 871 723 c 128,-1,35
 860 727 860 727 854 738 c 128,-1,36
 848 749 848 749 848 769 c 128,-1,37
 848 789 848 789 854 821 c 256,38,39
 860 853 860 853 867 873 c 128,-1,40
 874 893 874 893 883.5 904.5 c 128,-1,41
 893 916 893 916 905.5 920 c 128,-1,42
 918 924 918 924 935 924 c 2,43,-1
 1277 924 l 2,44,45
 1294 924 1294 924 1305 920 c 128,-1,46
 1316 916 1316 916 1322 904.5 c 128,-1,47
 1328 893 1328 893 1328 873 c 128,-1,48
 1328 853 1328 853 1322 821 c 256,49,50
 1316 789 1316 789 1309 769 c 128,-1,51
 1302 749 1302 749 1292.5 738 c 128,-1,52
 1283 727 1283 727 1270.5 723 c 128,-1,53
 1258 719 1258 719 1241 719 c 2,54,-1
 1200 719 l 1,55,-1
 935 43 l 2,56,57
 921 7 921 7 892.5 -7.5 c 128,-1,58
 864 -22 864 -22 803 -22 c 256,59,60
 742 -22 742 -22 718 -6 c 128,-1,61
 694 10 694 10 687 43 c 2,62,-1
 610 398 l 1,63,-1
 405 43 l 2,64,65
 395 26 395 26 383.5 14 c 128,-1,66
 372 2 372 2 355.5 -6 c 128,-1,67
 339 -14 339 -14 317 -18 c 128,-1,68
 295 -22 295 -22 265 -22 c 0,69,70
 204 -22 204 -22 181.5 -7 c 128,-1,71
 159 8 159 8 157 43 c 2,72,-1
 133 719 l 1,73,-1
 99 719 l 2,0,1
EndSplineSet
EndChar
StartChar: x
Encoding: 120 120 86
Width: 1228
Flags: W
LayerCount: 2
Back
Fore
SplineSet
143 205 m 1,0,-1
 454 479 l 1,1,-1
 252 719 l 1,2,-1
 199 719 l 2,3,4
 182 719 182 719 171 723 c 128,-1,5
 160 727 160 727 154 738 c 128,-1,6
 148 749 148 749 148 769 c 128,-1,7
 148 789 148 789 154 821 c 256,8,9
 160 853 160 853 167 873 c 128,-1,10
 174 893 174 893 183.5 904.5 c 128,-1,11
 193 916 193 916 205.5 920 c 128,-1,12
 218 924 218 924 235 924 c 2,13,-1
 609 924 l 2,14,15
 626 924 626 924 637 920 c 128,-1,16
 648 916 648 916 654 904.5 c 128,-1,17
 660 893 660 893 660 873 c 128,-1,18
 660 853 660 853 654 821 c 256,19,20
 648 789 648 789 641 769 c 128,-1,21
 634 749 634 749 624.5 738 c 128,-1,22
 615 727 615 727 602.5 723 c 128,-1,23
 590 719 590 719 573 719 c 2,24,-1
 542 719 l 1,25,-1
 653 587 l 1,26,-1
 799 719 l 1,27,-1
 787 719 l 2,28,29
 770 719 770 719 759 723 c 128,-1,30
 748 727 748 727 742 738 c 128,-1,31
 736 749 736 749 736 769 c 128,-1,32
 736 789 736 789 742 821 c 256,33,34
 748 853 748 853 755 873 c 128,-1,35
 762 893 762 893 771.5 904.5 c 128,-1,36
 781 916 781 916 793.5 920 c 128,-1,37
 806 924 806 924 823 924 c 2,38,-1
 1177 924 l 2,39,40
 1194 924 1194 924 1205 920 c 128,-1,41
 1216 916 1216 916 1222 904.5 c 128,-1,42
 1228 893 1228 893 1228 873 c 128,-1,43
 1228 853 1228 853 1222 821 c 256,44,45
 1216 789 1216 789 1209 769 c 128,-1,46
 1202 749 1202 749 1192.5 738 c 128,-1,47
 1183 727 1183 727 1170.5 723 c 128,-1,48
 1158 719 1158 719 1141 719 c 2,49,-1
 1093 719 l 1,50,-1
 797 458 l 1,51,-1
 1009 205 l 1,52,-1
 1061 205 l 2,53,54
 1078 205 1078 205 1089 201 c 128,-1,55
 1100 197 1100 197 1105.5 185.5 c 128,-1,56
 1111 174 1111 174 1111 154 c 128,-1,57
 1111 134 1111 134 1105 102 c 256,58,59
 1099 70 1099 70 1092.5 50 c 128,-1,60
 1086 30 1086 30 1076.5 19 c 128,-1,61
 1067 8 1067 8 1054.5 4 c 128,-1,62
 1042 0 1042 0 1025 0 c 2,63,-1
 641 0 l 2,64,65
 624 0 624 0 612.5 4 c 128,-1,66
 601 8 601 8 595.5 19 c 128,-1,67
 590 30 590 30 589.5 50 c 128,-1,68
 589 70 589 70 595 102 c 256,69,70
 601 134 601 134 608 154 c 128,-1,71
 615 174 615 174 624.5 185.5 c 128,-1,72
 634 197 634 197 647 201 c 128,-1,73
 660 205 660 205 677 205 c 2,74,-1
 709 205 l 1,75,-1
 595 340 l 1,76,-1
 446 205 l 1,77,-1
 453 205 l 2,78,79
 470 205 470 205 481 201 c 128,-1,80
 492 197 492 197 497.5 185.5 c 128,-1,81
 503 174 503 174 503 154 c 128,-1,82
 503 134 503 134 497 102 c 256,83,84
 491 70 491 70 484.5 50 c 128,-1,85
 478 30 478 30 468.5 19 c 128,-1,86
 459 8 459 8 446.5 4 c 128,-1,87
 434 0 434 0 417 0 c 2,88,-1
 63 0 l 2,89,90
 46 0 46 0 34.5 4 c 128,-1,91
 23 8 23 8 17.5 19 c 128,-1,92
 12 30 12 30 11.5 50 c 128,-1,93
 11 70 11 70 17 102 c 256,94,95
 23 134 23 134 30 154 c 128,-1,96
 37 174 37 174 46.5 185.5 c 128,-1,97
 56 197 56 197 69 201 c 128,-1,98
 82 205 82 205 99 205 c 2,99,-1
 143 205 l 1,0,-1
EndSplineSet
EndChar
StartChar: y
Encoding: 121 121 176
Width: 1228
Flags: W
LayerCount: 2
Back
Fore
SplineSet
159 719 m 2,0,1
 142 719 142 719 131 723 c 128,-1,2
 120 727 120 727 114 738 c 128,-1,3
 108 749 108 749 108 769 c 128,-1,4
 108 789 108 789 114 821 c 256,5,6
 120 853 120 853 127 873 c 128,-1,7
 134 893 134 893 143.5 904.5 c 128,-1,8
 153 916 153 916 165.5 920 c 128,-1,9
 178 924 178 924 195 924 c 2,10,-1
 589 924 l 2,11,12
 606 924 606 924 617 920 c 128,-1,13
 628 916 628 916 634 904.5 c 128,-1,14
 640 893 640 893 640 873 c 128,-1,15
 640 853 640 853 634 821 c 256,16,17
 628 789 628 789 621 769 c 128,-1,18
 614 749 614 749 604.5 738 c 128,-1,19
 595 727 595 727 582.5 723 c 128,-1,20
 570 719 570 719 553 719 c 2,21,-1
 493 719 l 1,22,-1
 600 339 l 1,23,-1
 841 719 l 1,24,-1
 787 719 l 2,25,26
 770 719 770 719 759 723 c 128,-1,27
 748 727 748 727 742 738 c 128,-1,28
 736 749 736 749 736 769 c 128,-1,29
 736 789 736 789 742 821 c 256,30,31
 748 853 748 853 755 873 c 128,-1,32
 762 893 762 893 771.5 904.5 c 128,-1,33
 781 916 781 916 793.5 920 c 128,-1,34
 806 924 806 924 823 924 c 2,35,-1
 1217 924 l 2,36,37
 1234 924 1234 924 1245 920 c 128,-1,38
 1256 916 1256 916 1262 904.5 c 128,-1,39
 1268 893 1268 893 1268 873 c 128,-1,40
 1268 853 1268 853 1262 821 c 256,41,42
 1256 789 1256 789 1249 769 c 128,-1,43
 1242 749 1242 749 1232.5 738 c 128,-1,44
 1223 727 1223 727 1210.5 723 c 128,-1,45
 1198 719 1198 719 1181 719 c 2,46,-1
 1122 719 l 1,47,-1
 602 -57 l 2,48,49
 532 -162 532 -162 472.5 -229.5 c 128,-1,50
 413 -297 413 -297 351 -337 c 128,-1,51
 289 -377 289 -377 218.5 -394 c 128,-1,52
 148 -411 148 -411 56 -414 c 0,53,54
 26 -415 26 -415 9 -394 c 128,-1,55
 -8 -373 -8 -373 -8 -311 c 0,56,57
 -8 -277 -8 -277 -3 -253.5 c 128,-1,58
 2 -230 2 -230 10.5 -216 c 128,-1,59
 19 -202 19 -202 30.5 -195.5 c 128,-1,60
 42 -189 42 -189 56 -188 c 0,61,62
 116 -185 116 -185 161 -169 c 128,-1,63
 206 -153 206 -153 247 -119 c 128,-1,64
 288 -85 288 -85 330 -31.5 c 128,-1,65
 372 22 372 22 426 100 c 1,66,-1
 234 719 l 1,67,-1
 159 719 l 2,0,1
EndSplineSet
EndChar
StartChar: z
Encoding: 122 122 87
Width: 1228
Flags: W
LayerCount: 2
Back
Fore
SplineSet
1099 924 m 2,0,1
 1116 924 1116 924 1127 920 c 128,-1,2
 1138 916 1138 916 1144 905 c 128,-1,3
 1150 894 1150 894 1150 874 c 128,-1,4
 1150 854 1150 854 1144 822 c 0,5,6
 1139 795 1139 795 1129 777 c 128,-1,7
 1119 759 1119 759 1098 740 c 2,8,-1
 511 205 l 1,9,-1
 826 205 l 1,10,-1
 848 329 l 2,11,12
 853 363 853 363 881.5 377.5 c 128,-1,13
 910 392 910 392 981 392 c 0,14,15
 1017 392 1017 392 1037.5 388.5 c 128,-1,16
 1058 385 1058 385 1068 377.5 c 128,-1,17
 1078 370 1078 370 1079.5 358 c 128,-1,18
 1081 346 1081 346 1078 329 c 2,19,-1
 1031 65 l 2,20,21
 1025 30 1025 30 1007.5 15 c 128,-1,22
 990 0 990 0 955 0 c 2,23,-1
 141 0 l 2,24,25
 124 0 124 0 112.5 4 c 128,-1,26
 101 8 101 8 95.5 19 c 128,-1,27
 90 30 90 30 89.5 50 c 128,-1,28
 89 70 89 70 95 102 c 0,29,30
 100 129 100 129 110.5 147 c 128,-1,31
 121 165 121 165 142 184 c 2,32,-1
 729 719 l 1,33,-1
 434 719 l 1,34,-1
 414 605 l 2,35,36
 411 588 411 588 403 576 c 128,-1,37
 395 564 395 564 380 556.5 c 128,-1,38
 365 549 365 549 341 545.5 c 128,-1,39
 317 542 317 542 281 542 c 256,40,41
 245 542 245 542 224.5 545.5 c 128,-1,42
 204 549 204 549 194 556.5 c 128,-1,43
 184 564 184 564 182.5 576 c 128,-1,44
 181 588 181 588 184 605 c 2,45,-1
 229 859 l 2,46,47
 235 894 235 894 252.5 909 c 128,-1,48
 270 924 270 924 305 924 c 2,49,-1
 1099 924 l 2,0,1
EndSplineSet
EndChar
StartChar: braceleft
Encoding: 123 123 88
Width: 1228
Flags: W
LayerCount: 2
Back
Fore
SplineSet
552 472 m 1,0,1
 617 433 617 433 647 359.5 c 128,-1,2
 677 286 677 286 659 183 c 2,3,-1
 628 2 l 2,4,5
 611 -98 611 -98 642 -143 c 128,-1,6
 673 -188 673 -188 751 -188 c 0,7,8
 768 -188 768 -188 779 -192 c 128,-1,9
 790 -196 790 -196 796 -207 c 128,-1,10
 802 -218 802 -218 802 -238 c 128,-1,11
 802 -258 802 -258 796 -290 c 256,12,13
 790 -322 790 -322 783 -342 c 128,-1,14
 776 -362 776 -362 766.5 -373.5 c 128,-1,15
 757 -385 757 -385 744.5 -389 c 128,-1,16
 732 -393 732 -393 715 -393 c 0,17,18
 515 -393 515 -393 430.5 -288 c 128,-1,19
 346 -183 346 -183 380 10 c 2,20,-1
 412 193 l 2,21,22
 428 283 428 283 393.5 331 c 128,-1,23
 359 379 359 379 264 379 c 0,24,25
 247 379 247 379 236 383 c 128,-1,26
 225 387 225 387 219.5 398.5 c 128,-1,27
 214 410 214 410 214 430 c 128,-1,28
 214 450 214 450 219 482 c 0,29,30
 225 514 225 514 232 534 c 128,-1,31
 239 554 239 554 248.5 565 c 128,-1,32
 258 576 258 576 270.5 580 c 128,-1,33
 283 584 283 584 300 584 c 0,34,35
 396 584 396 584 446.5 631.5 c 128,-1,36
 497 679 497 679 513 770 c 2,37,-1
 545 949 l 2,38,39
 562 1046 562 1046 600.5 1115 c 128,-1,40
 639 1184 639 1184 698 1227.5 c 128,-1,41
 757 1271 757 1271 836.5 1291.5 c 128,-1,42
 916 1312 916 1312 1016 1312 c 0,43,44
 1033 1312 1033 1312 1044 1308 c 128,-1,45
 1055 1304 1055 1304 1061 1292.5 c 128,-1,46
 1067 1281 1067 1281 1067 1261 c 128,-1,47
 1067 1241 1067 1241 1061 1209 c 256,48,49
 1055 1177 1055 1177 1048 1157 c 128,-1,50
 1041 1137 1041 1137 1031.5 1126 c 128,-1,51
 1022 1115 1022 1115 1009.5 1111 c 128,-1,52
 997 1107 997 1107 980 1107 c 0,53,54
 902 1107 902 1107 854 1062 c 128,-1,55
 806 1017 806 1017 789 917 c 2,56,-1
 758 740 l 2,57,58
 749 689 749 689 730 647.5 c 128,-1,59
 711 606 711 606 684 573.5 c 128,-1,60
 657 541 657 541 623.5 516 c 128,-1,61
 590 491 590 491 552 472 c 1,0,1
EndSplineSet
EndChar
StartChar: bar
Encoding: 124 124 89
Width: 1228
Flags: W
LayerCount: 2
Back
Fore
SplineSet
643 1271 m 2,0,1
 649 1305 649 1305 685.5 1319.5 c 128,-1,2
 722 1334 722 1334 786 1334 c 256,3,4
 850 1334 850 1334 874.5 1319.5 c 128,-1,5
 899 1305 899 1305 893 1271 c 2,6,-1
 606 -352 l 2,7,8
 600 -386 600 -386 563.5 -400.5 c 128,-1,9
 527 -415 527 -415 463 -415 c 256,10,11
 399 -415 399 -415 374.5 -400.5 c 128,-1,12
 350 -386 350 -386 356 -352 c 2,13,-1
 643 1271 l 2,0,1
EndSplineSet
EndChar
StartChar: braceright
Encoding: 125 125 90
Width: 1228
Flags: W
LayerCount: 2
Back
Fore
SplineSet
705 491 m 1,0,1
 640 530 640 530 610 603.5 c 128,-1,2
 580 677 580 677 598 780 c 2,3,-1
 621 917 l 2,4,5
 638 1017 638 1017 607 1062 c 128,-1,6
 576 1107 576 1107 498 1107 c 0,7,8
 481 1107 481 1107 470 1111 c 128,-1,9
 459 1115 459 1115 453 1126 c 128,-1,10
 447 1137 447 1137 447 1157 c 128,-1,11
 447 1177 447 1177 453 1209 c 256,12,13
 459 1241 459 1241 466 1261 c 128,-1,14
 473 1281 473 1281 482.5 1292.5 c 128,-1,15
 492 1304 492 1304 504.5 1308 c 128,-1,16
 517 1312 517 1312 534 1312 c 0,17,18
 734 1312 734 1312 818.5 1207 c 128,-1,19
 903 1102 903 1102 869 909 c 2,20,-1
 845 770 l 2,21,22
 829 680 829 680 863.5 632 c 128,-1,23
 898 584 898 584 993 584 c 0,24,25
 1010 584 1010 584 1021 580 c 128,-1,26
 1032 576 1032 576 1037.5 564.5 c 128,-1,27
 1043 553 1043 553 1043 533 c 128,-1,28
 1043 513 1043 513 1038 481 c 0,29,30
 1032 449 1032 449 1025 429 c 128,-1,31
 1018 409 1018 409 1008.5 398 c 128,-1,32
 999 387 999 387 986.5 383 c 128,-1,33
 974 379 974 379 957 379 c 0,34,35
 861 379 861 379 810.5 331.5 c 128,-1,36
 760 284 760 284 744 193 c 2,37,-1
 704 -30 l 2,38,39
 687 -127 687 -127 648.5 -196 c 128,-1,40
 610 -265 610 -265 551 -308.5 c 128,-1,41
 492 -352 492 -352 412.5 -372.5 c 128,-1,42
 333 -393 333 -393 233 -393 c 0,43,44
 216 -393 216 -393 205 -389 c 128,-1,45
 194 -385 194 -385 188 -373.5 c 128,-1,46
 182 -362 182 -362 182 -342 c 128,-1,47
 182 -322 182 -322 188 -290 c 256,48,49
 194 -258 194 -258 201 -238 c 128,-1,50
 208 -218 208 -218 217.5 -207 c 128,-1,51
 227 -196 227 -196 239.5 -192 c 128,-1,52
 252 -188 252 -188 269 -188 c 0,53,54
 347 -188 347 -188 395 -143 c 128,-1,55
 443 -98 443 -98 460 2 c 2,56,-1
 499 223 l 2,57,58
 508 274 508 274 527 315.5 c 128,-1,59
 546 357 546 357 573 389.5 c 128,-1,60
 600 422 600 422 633.5 447 c 128,-1,61
 667 472 667 472 705 491 c 1,0,1
EndSplineSet
EndChar
StartChar: asciitilde
Encoding: 126 126 91
Width: 1228
Flags: W
LayerCount: 2
Back
Fore
SplineSet
1101 531 m 0,0,1
 1061 500 1061 500 1024.5 479 c 128,-1,2
 988 458 988 458 954 445.5 c 128,-1,3
 920 433 920 433 888.5 427.5 c 128,-1,4
 857 422 857 422 827 422 c 0,5,6
 774 422 774 422 725.5 435 c 128,-1,7
 677 448 677 448 629 463.5 c 128,-1,8
 581 479 581 479 532.5 492 c 128,-1,9
 484 505 484 505 432 505 c 0,10,11
 392 505 392 505 349.5 495 c 128,-1,12
 307 485 307 485 259 460 c 0,13,14
 242 451 242 451 227.5 453.5 c 128,-1,15
 213 456 213 456 202 466 c 128,-1,16
 191 476 191 476 183 492.5 c 128,-1,17
 175 509 175 509 171 527 c 0,18,19
 164 557 164 557 169 587 c 128,-1,20
 174 617 174 617 191 631 c 0,21,22
 270 693 270 693 338 716.5 c 128,-1,23
 406 740 406 740 466 740 c 0,24,25
 519 740 519 740 568 727 c 128,-1,26
 617 714 617 714 665 699 c 128,-1,27
 713 684 713 684 761.5 671 c 128,-1,28
 810 658 810 658 862 658 c 0,29,30
 902 658 902 658 944 668 c 128,-1,31
 986 678 986 678 1033 702 c 0,32,33
 1049 710 1049 710 1063 708.5 c 128,-1,34
 1077 707 1077 707 1088 698 c 128,-1,35
 1099 689 1099 689 1106.5 674.5 c 128,-1,36
 1114 660 1114 660 1119 643 c 0,37,38
 1127 611 1127 611 1123.5 578.5 c 128,-1,39
 1120 546 1120 546 1101 531 c 0,0,1
EndSplineSet
EndChar
StartChar: exclamdown
Encoding: 161 161 121
Width: 1228
Flags: W
LayerCount: 2
Back
Fore
SplineSet
414 -22 m 2,0,1
 368 -22 368 -22 382 28 c 2,2,-1
 557 605 l 2,3,4
 568 643 568 643 596.5 663 c 128,-1,5
 625 683 625 683 664 683 c 256,6,7
 703 683 703 683 724 663 c 128,-1,8
 745 643 745 643 743 605 c 2,9,-1
 714 28 l 2,10,11
 711 -22 711 -22 664 -22 c 2,12,-1
 414 -22 l 2,0,1
732 1209 m 0,13,14
 768 1209 768 1209 798.5 1195.5 c 128,-1,15
 829 1182 829 1182 851 1159.5 c 128,-1,16
 873 1137 873 1137 885.5 1106.5 c 128,-1,17
 898 1076 898 1076 898 1042 c 0,18,19
 898 997 898 997 880 958 c 128,-1,20
 862 919 862 919 832.5 890.5 c 128,-1,21
 803 862 803 862 764 846 c 128,-1,22
 725 830 725 830 683 830 c 0,23,24
 647 830 647 830 616.5 843 c 128,-1,25
 586 856 586 856 564 878.5 c 128,-1,26
 542 901 542 901 529.5 931.5 c 128,-1,27
 517 962 517 962 517 996 c 0,28,29
 517 1041 517 1041 534.5 1080 c 128,-1,30
 552 1119 552 1119 582 1147.5 c 128,-1,31
 612 1176 612 1176 651 1192.5 c 128,-1,32
 690 1209 690 1209 732 1209 c 0,13,14
EndSplineSet
EndChar
StartChar: cent
Encoding: 162 162 96
Width: 1228
Flags: W
LayerCount: 2
Back
Fore
SplineSet
943 1023 m 2,0,1
 949 1057 949 1057 980.5 1071.5 c 128,-1,2
 1012 1086 1012 1086 1076 1086 c 256,3,4
 1140 1086 1140 1086 1159.5 1071.5 c 128,-1,5
 1179 1057 1179 1057 1173 1023 c 2,6,-1
 1117 702 l 2,7,8
 1111 668 1111 668 1078 653.5 c 128,-1,9
 1045 639 1045 639 973 639 c 0,10,11
 937 639 937 639 915 642.5 c 128,-1,12
 893 646 893 646 881.5 653.5 c 128,-1,13
 870 661 870 661 867 673 c 128,-1,14
 864 685 864 685 867 702 c 0,15,16
 875 749 875 749 856.5 788.5 c 128,-1,17
 838 828 838 828 790 846 c 1,18,-1
 702 351 l 1,19,20
 765 360 765 360 829 383 c 128,-1,21
 893 406 893 406 955 439 c 0,22,23
 987 456 987 456 1013 439 c 128,-1,24
 1039 422 1039 422 1060 365 c 0,25,26
 1082 306 1082 306 1073 273 c 128,-1,27
 1064 240 1064 240 1030 223 c 0,28,29
 945 181 945 181 850 154.5 c 128,-1,30
 755 128 755 128 662 120 c 1,31,-1
 630 -62 l 2,32,33
 624 -96 624 -96 602.5 -110.5 c 128,-1,34
 581 -125 581 -125 525 -125 c 256,35,36
 469 -125 469 -125 453.5 -110.5 c 128,-1,37
 438 -96 438 -96 444 -62 c 2,38,-1
 478 131 l 1,39,40
 403 147 403 147 343.5 183.5 c 128,-1,41
 284 220 284 220 243 272 c 128,-1,42
 202 324 202 324 180.5 389.5 c 128,-1,43
 159 455 159 455 159 529 c 0,44,45
 159 623 159 623 190.5 717 c 128,-1,46
 222 811 222 811 283.5 888.5 c 128,-1,47
 345 966 345 966 436 1018.5 c 128,-1,48
 527 1071 527 1071 646 1083 c 1,49,-1
 675 1249 l 2,50,51
 678 1266 678 1266 684 1278 c 128,-1,52
 690 1290 690 1290 702 1297.5 c 128,-1,53
 714 1305 714 1305 732.5 1308.5 c 128,-1,54
 751 1312 751 1312 779 1312 c 0,55,56
 835 1312 835 1312 851 1297.5 c 128,-1,57
 867 1283 867 1283 861 1249 c 2,58,-1
 828 1063 l 1,59,60
 865 1048 865 1048 892 1023.5 c 128,-1,61
 919 999 919 999 933 964 c 1,62,-1
 943 1023 l 2,0,1
425 542 m 0,63,64
 425 479 425 479 449.5 435 c 128,-1,65
 474 391 474 391 519 368 c 1,66,-1
 602 837 l 1,67,68
 557 818 557 818 523.5 785.5 c 128,-1,69
 490 753 490 753 468.5 713 c 128,-1,70
 447 673 447 673 436 628.5 c 128,-1,71
 425 584 425 584 425 542 c 0,63,64
EndSplineSet
EndChar
StartChar: sterling
Encoding: 163 163 97
Width: 1228
Flags: W
LayerCount: 2
Back
Fore
SplineSet
355 650 m 1,0,1
 342 690 342 690 331 731 c 128,-1,2
 320 772 320 772 320 820 c 0,3,4
 320 883 320 883 344.5 952 c 128,-1,5
 369 1021 369 1021 421.5 1078 c 128,-1,6
 474 1135 474 1135 556 1172 c 128,-1,7
 638 1209 638 1209 753 1209 c 0,8,9
 834 1209 834 1209 918.5 1187 c 128,-1,10
 1003 1165 1003 1165 1082 1120 c 0,11,12
 1102 1109 1102 1109 1111.5 1094 c 128,-1,13
 1121 1079 1121 1079 1117 1057 c 2,14,-1
 1080 850 l 2,15,16
 1074 816 1074 816 1042.5 801.5 c 128,-1,17
 1011 787 1011 787 947 787 c 256,18,19
 883 787 883 787 863.5 801.5 c 128,-1,20
 844 816 844 816 850 850 c 2,21,-1
 870 961 l 1,22,23
 841 976 841 976 808.5 984 c 128,-1,24
 776 992 776 992 732 992 c 0,25,26
 687 992 687 992 656 975 c 128,-1,27
 625 958 625 958 606.5 932 c 128,-1,28
 588 906 588 906 580 876 c 128,-1,29
 572 846 572 846 572 819 c 0,30,31
 572 773 572 773 587 733.5 c 128,-1,32
 602 694 602 694 618 650 c 1,33,-1
 909 650 l 2,34,35
 926 650 926 650 937 645.5 c 128,-1,36
 948 641 948 641 953.5 629 c 128,-1,37
 959 617 959 617 958.5 595 c 128,-1,38
 958 573 958 573 952 537 c 256,39,40
 946 501 946 501 938.5 479 c 128,-1,41
 931 457 931 457 921 445 c 128,-1,42
 911 433 911 433 898.5 429 c 128,-1,43
 886 425 886 425 869 425 c 2,44,-1
 629 425 l 1,45,46
 612 362 612 362 573 311 c 128,-1,47
 534 260 534 260 475 207 c 1,48,49
 521 223 521 223 556.5 229 c 128,-1,50
 592 235 592 235 622 235 c 0,51,52
 646 235 646 235 666.5 232.5 c 128,-1,53
 687 230 687 230 706.5 226.5 c 128,-1,54
 726 223 726 223 746 220.5 c 128,-1,55
 766 218 766 218 787 218 c 0,56,57
 816 218 816 218 849 225 c 128,-1,58
 882 232 882 232 925 251 c 0,59,60
 938 257 938 257 951 253.5 c 128,-1,61
 964 250 964 250 975.5 240 c 128,-1,62
 987 230 987 230 996.5 215 c 128,-1,63
 1006 200 1006 200 1012 182 c 256,64,65
 1018 164 1018 164 1021 145.5 c 128,-1,66
 1024 127 1024 127 1022 109.5 c 128,-1,67
 1020 92 1020 92 1013.5 78 c 128,-1,68
 1007 64 1007 64 994 56 c 0,69,70
 958 33 958 33 926 18 c 128,-1,71
 894 3 894 3 865 -6 c 128,-1,72
 836 -15 836 -15 809 -18.5 c 128,-1,73
 782 -22 782 -22 757 -22 c 0,74,75
 721 -22 721 -22 687.5 -16.5 c 128,-1,76
 654 -11 654 -11 618.5 -4.5 c 128,-1,77
 583 2 583 2 545 7.5 c 128,-1,78
 507 13 507 13 464 13 c 0,79,80
 414 13 414 13 356 3 c 128,-1,81
 298 -7 298 -7 226 -34 c 0,82,83
 214 -39 214 -39 201.5 -34.5 c 128,-1,84
 189 -30 189 -30 177.5 -19.5 c 128,-1,85
 166 -9 166 -9 156.5 6 c 128,-1,86
 147 21 147 21 140 39 c 0,87,88
 127 73 127 73 129 108 c 128,-1,89
 131 143 131 143 157 161 c 0,90,91
 204 193 204 193 241 223 c 128,-1,92
 278 253 278 253 305.5 284 c 128,-1,93
 333 315 333 315 351.5 349.5 c 128,-1,94
 370 384 370 384 380 425 c 1,95,-1
 217 425 l 2,96,97
 200 425 200 425 189 429 c 128,-1,98
 178 433 178 433 172.5 445 c 128,-1,99
 167 457 167 457 167.5 479 c 128,-1,100
 168 501 168 501 174 537 c 256,101,102
 180 573 180 573 187.5 595 c 128,-1,103
 195 617 195 617 205 629 c 128,-1,104
 215 641 215 641 227.5 645.5 c 128,-1,105
 240 650 240 650 257 650 c 2,106,-1
 355 650 l 1,0,1
EndSplineSet
EndChar
StartChar: yen
Encoding: 165 165 113
Width: 1228
Flags: W
LayerCount: 2
Back
Fore
SplineSet
626 1187 m 2,0,1
 643 1187 643 1187 654 1183 c 128,-1,2
 665 1179 665 1179 671 1167.5 c 128,-1,3
 677 1156 677 1156 677 1136 c 128,-1,4
 677 1116 677 1116 671 1084 c 256,5,6
 665 1052 665 1052 658 1032 c 128,-1,7
 651 1012 651 1012 641.5 1001 c 128,-1,8
 632 990 632 990 619.5 986 c 128,-1,9
 607 982 607 982 590 982 c 2,10,-1
 523 982 l 1,11,-1
 657 690 l 1,12,-1
 896 982 l 1,13,-1
 844 982 l 2,14,15
 827 982 827 982 816 986 c 128,-1,16
 805 990 805 990 799 1001 c 128,-1,17
 793 1012 793 1012 793 1032 c 128,-1,18
 793 1052 793 1052 799 1084 c 256,19,20
 805 1116 805 1116 812 1136 c 128,-1,21
 819 1156 819 1156 828.5 1167.5 c 128,-1,22
 838 1179 838 1179 850.5 1183 c 128,-1,23
 863 1187 863 1187 880 1187 c 2,24,-1
 1264 1187 l 2,25,26
 1281 1187 1281 1187 1292 1183 c 128,-1,27
 1303 1179 1303 1179 1309 1167.5 c 128,-1,28
 1315 1156 1315 1156 1315 1136 c 128,-1,29
 1315 1116 1315 1116 1309 1084 c 256,30,31
 1303 1052 1303 1052 1296 1032 c 128,-1,32
 1289 1012 1289 1012 1279.5 1001 c 128,-1,33
 1270 990 1270 990 1257.5 986 c 128,-1,34
 1245 982 1245 982 1228 982 c 2,35,-1
 1183 982 l 1,36,-1
 1065 840 l 1,37,-1
 1123 840 l 2,38,39
 1157 840 1157 840 1168 821.5 c 128,-1,40
 1179 803 1179 803 1169 747 c 0,41,42
 1164 719 1164 719 1157.5 701 c 128,-1,43
 1151 683 1151 683 1141.5 673 c 128,-1,44
 1132 663 1132 663 1119.5 659 c 128,-1,45
 1107 655 1107 655 1090 655 c 2,46,-1
 911 655 l 1,47,-1
 793 512 l 1,48,-1
 1045 512 l 2,49,50
 1079 512 1079 512 1090 493.5 c 128,-1,51
 1101 475 1101 475 1091 419 c 0,52,53
 1086 391 1086 391 1079.5 373 c 128,-1,54
 1073 355 1073 355 1063.5 345 c 128,-1,55
 1054 335 1054 335 1041.5 331 c 128,-1,56
 1029 327 1029 327 1012 327 c 2,57,-1
 726 327 l 1,58,-1
 705 205 l 1,59,-1
 911 205 l 2,60,61
 928 205 928 205 939 201 c 128,-1,62
 950 197 950 197 955.5 185.5 c 128,-1,63
 961 174 961 174 961 154 c 128,-1,64
 961 134 961 134 955 102 c 256,65,66
 949 70 949 70 942.5 50 c 128,-1,67
 936 30 936 30 926.5 19 c 128,-1,68
 917 8 917 8 904.5 4 c 128,-1,69
 892 0 892 0 875 0 c 2,70,-1
 233 0 l 2,71,72
 216 0 216 0 204.5 4 c 128,-1,73
 193 8 193 8 187.5 19 c 128,-1,74
 182 30 182 30 181.5 50 c 128,-1,75
 181 70 181 70 187 102 c 256,76,77
 193 134 193 134 200 154 c 128,-1,78
 207 174 207 174 216.5 185.5 c 128,-1,79
 226 197 226 197 239 201 c 128,-1,80
 252 205 252 205 269 205 c 2,81,-1
 455 205 l 1,82,-1
 476 327 l 1,83,-1
 190 327 l 2,84,85
 156 327 156 327 144.5 345 c 128,-1,86
 133 363 133 363 143 419 c 0,87,88
 148 447 148 447 155 465 c 128,-1,89
 162 483 162 483 171.5 493.5 c 128,-1,90
 181 504 181 504 193.5 508 c 128,-1,91
 206 512 206 512 223 512 c 2,92,-1
 479 512 l 1,93,-1
 411 655 l 1,94,-1
 228 655 l 2,95,96
 194 655 194 655 182.5 673 c 128,-1,97
 171 691 171 691 181 747 c 256,98,99
 191 803 191 803 209 821.5 c 128,-1,100
 227 840 227 840 261 840 c 2,101,-1
 323 840 l 1,102,-1
 256 982 l 1,103,-1
 206 982 l 2,104,105
 189 982 189 982 178 986 c 128,-1,106
 167 990 167 990 161 1001 c 128,-1,107
 155 1012 155 1012 155 1032 c 128,-1,108
 155 1052 155 1052 161 1084 c 256,109,110
 167 1116 167 1116 174 1136 c 128,-1,111
 181 1156 181 1156 190.5 1167.5 c 128,-1,112
 200 1179 200 1179 212.5 1183 c 128,-1,113
 225 1187 225 1187 242 1187 c 2,114,-1
 626 1187 l 2,0,1
EndSplineSet
EndChar
StartChar: brokenbar
Encoding: 166 166 159
Width: 1228
Flags: W
LayerCount: 2
Back
Fore
SplineSet
466 271 m 2,0,1
 472 305 472 305 508.5 319.5 c 128,-1,2
 545 334 545 334 609 334 c 256,3,4
 673 334 673 334 697.5 319.5 c 128,-1,5
 722 305 722 305 716 271 c 2,6,-1
 606 -352 l 2,7,8
 600 -386 600 -386 563.5 -400.5 c 128,-1,9
 527 -415 527 -415 463 -415 c 256,10,11
 399 -415 399 -415 374.5 -400.5 c 128,-1,12
 350 -386 350 -386 356 -352 c 2,13,-1
 466 271 l 2,0,1
643 1271 m 2,14,15
 649 1305 649 1305 685.5 1319.5 c 128,-1,16
 722 1334 722 1334 786 1334 c 256,17,18
 850 1334 850 1334 874.5 1319.5 c 128,-1,19
 899 1305 899 1305 893 1271 c 2,20,-1
 783 648 l 2,21,22
 777 614 777 614 740.5 599.5 c 128,-1,23
 704 585 704 585 640 585 c 256,24,25
 576 585 576 585 551.5 599.5 c 128,-1,26
 527 614 527 614 533 648 c 2,27,-1
 643 1271 l 2,14,15
EndSplineSet
EndChar
StartChar: section
Encoding: 167 167 98
Width: 1228
Flags: W
LayerCount: 2
Back
Fore
SplineSet
557 -35 m 2,0,1
 586 -35 586 -35 605.5 -27 c 128,-1,2
 625 -19 625 -19 637 -6 c 128,-1,3
 649 7 649 7 654.5 24.5 c 128,-1,4
 660 42 660 42 660 62 c 0,5,6
 660 88 660 88 647.5 109 c 128,-1,7
 635 130 635 130 602 148 c 2,8,-1
 336 293 l 2,9,10
 267 331 267 331 228 393 c 128,-1,11
 189 455 189 455 189 534 c 0,12,13
 189 627 189 627 231.5 700.5 c 128,-1,14
 274 774 274 774 348 828 c 1,15,16
 346 838 346 838 346 847.5 c 128,-1,17
 346 857 346 857 346 868 c 0,18,19
 346 922 346 922 364.5 979 c 128,-1,20
 383 1036 383 1036 423.5 1082 c 128,-1,21
 464 1128 464 1128 529.5 1157.5 c 128,-1,22
 595 1187 595 1187 688 1187 c 2,23,-1
 1092 1187 l 2,24,25
 1127 1187 1127 1187 1139 1172 c 128,-1,26
 1151 1157 1151 1157 1145 1122 c 2,27,-1
 1099 860 l 2,28,29
 1093 826 1093 826 1061.5 811.5 c 128,-1,30
 1030 797 1030 797 966 797 c 256,31,32
 902 797 902 797 882.5 811.5 c 128,-1,33
 863 826 863 826 869 860 c 2,34,-1
 892 992 l 1,35,-1
 699 992 l 2,36,37
 670 992 670 992 650.5 984 c 128,-1,38
 631 976 631 976 619 963 c 128,-1,39
 607 950 607 950 601.5 932 c 128,-1,40
 596 914 596 914 596 895 c 0,41,42
 596 869 596 869 608.5 848 c 128,-1,43
 621 827 621 827 654 809 c 2,44,-1
 920 664 l 2,45,46
 989 626 989 626 1028 564 c 128,-1,47
 1067 502 1067 502 1067 423 c 0,48,49
 1067 330 1067 330 1024.5 256 c 128,-1,50
 982 182 982 182 907 128 c 1,51,52
 910 108 910 108 910 89 c 0,53,54
 910 35 910 35 891.5 -22 c 128,-1,55
 873 -79 873 -79 832.5 -125 c 128,-1,56
 792 -171 792 -171 726.5 -200.5 c 128,-1,57
 661 -230 661 -230 568 -230 c 2,58,-1
 164 -230 l 2,59,60
 129 -230 129 -230 117 -215 c 128,-1,61
 105 -200 105 -200 111 -165 c 2,62,-1
 157 97 l 2,63,64
 163 131 163 131 194.5 145.5 c 128,-1,65
 226 160 226 160 290 160 c 256,66,67
 354 160 354 160 373.5 145.5 c 128,-1,68
 393 131 393 131 387 97 c 2,69,-1
 364 -35 l 1,70,-1
 557 -35 l 2,0,1
505 622 m 2,71,72
 484 632 484 632 466 646 c 1,73,74
 439 613 439 613 439 565 c 0,75,76
 439 535 439 535 455 511.5 c 128,-1,77
 471 488 471 488 509 467 c 2,78,-1
 751 335 l 2,79,80
 772 323 772 323 790 311 c 1,81,82
 817 345 817 345 817 392 c 0,83,84
 817 422 817 422 801 445.5 c 128,-1,85
 785 469 785 469 747 490 c 2,86,-1
 505 622 l 2,71,72
EndSplineSet
EndChar
StartChar: dieresis
Encoding: 168 168 106
Width: 1228
Flags: W
LayerCount: 2
Back
Fore
SplineSet
375 1202 m 256,0,1
 381 1233 381 1233 396 1259.5 c 128,-1,2
 411 1286 411 1286 433.5 1305 c 128,-1,3
 456 1324 456 1324 484.5 1334.5 c 128,-1,4
 513 1345 513 1345 544 1345 c 0,5,6
 576 1345 576 1345 602.5 1332 c 128,-1,7
 629 1319 629 1319 646.5 1297.5 c 128,-1,8
 664 1276 664 1276 671.5 1247.5 c 128,-1,9
 679 1219 679 1219 673 1188 c 256,10,11
 667 1157 667 1157 652 1130.5 c 128,-1,12
 637 1104 637 1104 614.5 1085 c 128,-1,13
 592 1066 592 1066 564 1055.5 c 128,-1,14
 536 1045 536 1045 505 1045 c 0,15,16
 473 1045 473 1045 446.5 1058 c 128,-1,17
 420 1071 420 1071 402 1092.5 c 128,-1,18
 384 1114 384 1114 376.5 1142.5 c 128,-1,19
 369 1171 369 1171 375 1202 c 256,0,1
835 1202 m 256,20,21
 841 1233 841 1233 856 1259.5 c 128,-1,22
 871 1286 871 1286 893.5 1305 c 128,-1,23
 916 1324 916 1324 944.5 1334.5 c 128,-1,24
 973 1345 973 1345 1004 1345 c 0,25,26
 1036 1345 1036 1345 1062.5 1332 c 128,-1,27
 1089 1319 1089 1319 1106.5 1297.5 c 128,-1,28
 1124 1276 1124 1276 1131.5 1247.5 c 128,-1,29
 1139 1219 1139 1219 1133 1188 c 256,30,31
 1127 1157 1127 1157 1112 1130.5 c 128,-1,32
 1097 1104 1097 1104 1074.5 1085 c 128,-1,33
 1052 1066 1052 1066 1024 1055.5 c 128,-1,34
 996 1045 996 1045 965 1045 c 0,35,36
 933 1045 933 1045 906.5 1058 c 128,-1,37
 880 1071 880 1071 862 1092.5 c 128,-1,38
 844 1114 844 1114 836.5 1142.5 c 128,-1,39
 829 1171 829 1171 835 1202 c 256,20,21
EndSplineSet
EndChar
StartChar: copyright
Encoding: 169 169 103
Width: 1228
Flags: W
LayerCount: 2
Back
Fore
SplineSet
643 422 m 0,0,1
 678 422 678 422 713.5 430 c 128,-1,2
 749 438 749 438 786 450 c 0,3,4
 813 459 813 459 824.5 446 c 128,-1,5
 836 433 836 433 847 395 c 0,6,7
 858 354 858 354 853 330 c 128,-1,8
 848 306 848 306 816 292 c 0,9,10
 769 271 769 271 719 260 c 128,-1,11
 669 249 669 249 622 249 c 0,12,13
 559 249 559 249 506 268.5 c 128,-1,14
 453 288 453 288 415.5 324 c 128,-1,15
 378 360 378 360 357 411.5 c 128,-1,16
 336 463 336 463 336 528 c 0,17,18
 336 563 336 563 342.5 603 c 128,-1,19
 349 643 349 643 363.5 682.5 c 128,-1,20
 378 722 378 722 399.5 759.5 c 128,-1,21
 421 797 421 797 451 828 c 0,22,23
 503 882 503 882 573 909.5 c 128,-1,24
 643 937 643 937 724 937 c 0,25,26
 771 937 771 937 817 926 c 128,-1,27
 863 915 863 915 902 894 c 0,28,29
 929 880 929 880 931.5 857 c 128,-1,30
 934 834 934 834 916 792 c 0,31,32
 884 718 884 718 836 736 c 0,33,34
 804 748 804 748 771 756 c 128,-1,35
 738 764 738 764 703 764 c 0,36,37
 624 764 624 764 574 711 c 0,38,39
 545 680 545 680 530 637 c 128,-1,40
 515 594 515 594 515 549 c 0,41,42
 515 487 515 487 548.5 454.5 c 128,-1,43
 582 422 582 422 643 422 c 0,0,1
566 131 m 0,44,45
 645 131 645 131 714 153 c 128,-1,46
 783 175 783 175 841 214 c 128,-1,47
 899 253 899 253 945 306.5 c 128,-1,48
 991 360 991 360 1022.5 422 c 128,-1,49
 1054 484 1054 484 1071 553 c 128,-1,50
 1088 622 1088 622 1088 692 c 0,51,52
 1088 773 1088 773 1064 840 c 128,-1,53
 1040 907 1040 907 994 955 c 128,-1,54
 948 1003 948 1003 881 1029.5 c 128,-1,55
 814 1056 814 1056 729 1056 c 0,56,57
 650 1056 650 1056 581 1034 c 128,-1,58
 512 1012 512 1012 453.5 973 c 128,-1,59
 395 934 395 934 349 880.5 c 128,-1,60
 303 827 303 827 271.5 765 c 128,-1,61
 240 703 240 703 223 634 c 128,-1,62
 206 565 206 565 206 495 c 0,63,64
 206 415 206 415 230 348 c 128,-1,65
 254 281 254 281 300 233 c 128,-1,66
 346 185 346 185 413 158 c 128,-1,67
 480 131 480 131 566 131 c 0,44,45
549 -22 m 0,68,69
 436 -22 436 -22 345 17.5 c 128,-1,70
 254 57 254 57 189.5 126 c 128,-1,71
 125 195 125 195 90 289 c 128,-1,72
 55 383 55 383 55 493 c 0,73,74
 55 583 55 583 77 671 c 128,-1,75
 99 759 99 759 141.5 838.5 c 128,-1,76
 184 918 184 918 244.5 986 c 128,-1,77
 305 1054 305 1054 381.5 1103.5 c 128,-1,78
 458 1153 458 1153 550 1181 c 128,-1,79
 642 1209 642 1209 746 1209 c 0,80,81
 858 1209 858 1209 949 1170 c 128,-1,82
 1040 1131 1040 1131 1104.5 1062.5 c 128,-1,83
 1169 994 1169 994 1204 899.5 c 128,-1,84
 1239 805 1239 805 1239 694 c 0,85,86
 1239 604 1239 604 1217 516 c 128,-1,87
 1195 428 1195 428 1153 348.5 c 128,-1,88
 1111 269 1111 269 1050.5 201 c 128,-1,89
 990 133 990 133 913.5 83.5 c 128,-1,90
 837 34 837 34 745 6 c 128,-1,91
 653 -22 653 -22 549 -22 c 0,68,69
EndSplineSet
EndChar
StartChar: ordfeminine
Encoding: 170 170 116
Width: 1228
Flags: W
LayerCount: 2
Back
Fore
SplineSet
830 580 m 1,0,1
 773 520 773 520 708 492.5 c 128,-1,2
 643 465 643 465 576 465 c 0,3,4
 508 465 508 465 455.5 489 c 128,-1,5
 403 513 403 513 366 555 c 128,-1,6
 329 597 329 597 310 653 c 128,-1,7
 291 709 291 709 291 774 c 0,8,9
 291 847 291 847 315 924 c 128,-1,10
 339 1001 339 1001 387.5 1064.5 c 128,-1,11
 436 1128 436 1128 510 1168.5 c 128,-1,12
 584 1209 584 1209 683 1209 c 0,13,14
 758 1209 758 1209 815.5 1174.5 c 128,-1,15
 873 1140 873 1140 902 1079 c 1,16,-1
 914 1151 l 2,17,18
 919 1177 919 1177 942 1188.5 c 128,-1,19
 965 1200 965 1200 1009 1200 c 0,20,21
 1052 1200 1052 1200 1066 1188.5 c 128,-1,22
 1080 1177 1080 1177 1075 1151 c 2,23,-1
 997 705 l 2,24,25
 991 674 991 674 1001 657 c 128,-1,26
 1011 640 1011 640 1036 640 c 2,27,-1
 1058 640 l 2,28,29
 1084 640 1084 640 1092.5 624.5 c 128,-1,30
 1101 609 1101 609 1092 560 c 0,31,32
 1088 536 1088 536 1082.5 520.5 c 128,-1,33
 1077 505 1077 505 1070 496.5 c 128,-1,34
 1063 488 1063 488 1053.5 485 c 128,-1,35
 1044 482 1044 482 1031 482 c 2,36,-1
 958 482 l 2,37,38
 935 482 935 482 914 487 c 128,-1,39
 893 492 893 492 875.5 503.5 c 128,-1,40
 858 515 858 515 846 534 c 128,-1,41
 834 553 834 553 830 580 c 1,0,1
622 640 m 0,42,43
 674 640 674 640 714 662 c 128,-1,44
 754 684 754 684 781.5 719 c 128,-1,45
 809 754 809 754 823.5 797.5 c 128,-1,46
 838 841 838 841 838 883 c 0,47,48
 838 958 838 958 796 996.5 c 128,-1,49
 754 1035 754 1035 691 1035 c 0,50,51
 638 1035 638 1035 601 1009.5 c 128,-1,52
 564 984 564 984 540.5 946 c 128,-1,53
 517 908 517 908 506 864 c 128,-1,54
 495 820 495 820 495 783 c 0,55,56
 495 716 495 716 528 678 c 128,-1,57
 561 640 561 640 622 640 c 0,42,43
EndSplineSet
EndChar
StartChar: guillemotleft
Encoding: 171 171 126
Width: 1228
Flags: W
LayerCount: 2
Back
Fore
SplineSet
566 266 m 2,0,1
 572 252 572 252 567 238 c 128,-1,2
 562 224 562 224 549.5 211.5 c 128,-1,3
 537 199 537 199 519 188 c 128,-1,4
 501 177 501 177 480 170 c 0,5,6
 459 162 459 162 437.5 158.5 c 128,-1,7
 416 155 416 155 397 156.5 c 128,-1,8
 378 158 378 158 364 165 c 128,-1,9
 350 172 350 172 344 186 c 2,10,-1
 196 530 l 2,11,12
 185 556 185 556 205 581 c 2,13,-1
 475 925 l 2,14,15
 485 938 485 938 501 943.5 c 128,-1,16
 517 949 517 949 535.5 948 c 128,-1,17
 554 947 554 947 573 940 c 128,-1,18
 592 933 592 933 610 922 c 256,19,20
 628 911 628 911 642 896.5 c 128,-1,21
 656 882 656 882 664 866.5 c 128,-1,22
 672 851 672 851 672 835 c 128,-1,23
 672 819 672 819 661 805 c 2,24,-1
 450 536 l 1,25,-1
 566 266 l 2,0,1
1006 266 m 2,26,27
 1012 252 1012 252 1007 238 c 128,-1,28
 1002 224 1002 224 989.5 211.5 c 128,-1,29
 977 199 977 199 959 188 c 128,-1,30
 941 177 941 177 920 170 c 0,31,32
 899 162 899 162 877.5 158.5 c 128,-1,33
 856 155 856 155 837 156.5 c 128,-1,34
 818 158 818 158 804 165 c 128,-1,35
 790 172 790 172 784 186 c 2,36,-1
 636 530 l 2,37,38
 625 556 625 556 645 581 c 2,39,-1
 915 925 l 2,40,41
 925 938 925 938 941 943.5 c 128,-1,42
 957 949 957 949 975.5 948 c 128,-1,43
 994 947 994 947 1013 940 c 128,-1,44
 1032 933 1032 933 1050 922 c 256,45,46
 1068 911 1068 911 1082 896.5 c 128,-1,47
 1096 882 1096 882 1104 866.5 c 128,-1,48
 1112 851 1112 851 1112 835 c 128,-1,49
 1112 819 1112 819 1101 805 c 2,50,-1
 890 536 l 1,51,-1
 1006 266 l 2,26,27
EndSplineSet
EndChar
StartChar: logicalnot
Encoding: 172 172 122
Width: 1228
Flags: W
LayerCount: 2
Back
Fore
SplineSet
224 630 m 2,0,1
 207 630 207 630 196 634 c 128,-1,2
 185 638 185 638 179.5 650 c 128,-1,3
 174 662 174 662 174 683 c 128,-1,4
 174 704 174 704 180 738 c 256,5,6
 186 772 186 772 193 793 c 128,-1,7
 200 814 200 814 209.5 825.5 c 128,-1,8
 219 837 219 837 231.5 841 c 128,-1,9
 244 845 244 845 261 845 c 2,10,-1
 1111 845 l 2,11,12
 1146 845 1146 845 1158.5 830 c 128,-1,13
 1171 815 1171 815 1165 780 c 2,14,-1
 1089 348 l 2,15,16
 1083 314 1083 314 1050.5 299.5 c 128,-1,17
 1018 285 1018 285 946 285 c 0,18,19
 910 285 910 285 888 288.5 c 128,-1,20
 866 292 866 292 854 299.5 c 128,-1,21
 842 307 842 307 839 319 c 128,-1,22
 836 331 836 331 839 348 c 2,23,-1
 889 630 l 1,24,-1
 224 630 l 2,0,1
EndSplineSet
EndChar
StartChar: registered
Encoding: 174 174 102
Width: 1228
Flags: W
LayerCount: 2
Back
Fore
SplineSet
446 854 m 2,0,1
 452 888 452 888 469 902.5 c 128,-1,2
 486 917 486 917 520 917 c 2,3,-1
 746 917 l 2,4,5
 795 917 795 917 834.5 900 c 128,-1,6
 874 883 874 883 901.5 854 c 128,-1,7
 929 825 929 825 943.5 786.5 c 128,-1,8
 958 748 958 748 958 706 c 0,9,10
 958 634 958 634 918 574.5 c 128,-1,11
 878 515 878 515 795 478 c 1,12,-1
 860 385 l 2,13,14
 878 359 878 359 870 336.5 c 128,-1,15
 862 314 862 314 816 288 c 0,16,17
 793 275 793 275 777 269 c 128,-1,18
 761 263 761 263 749.5 264 c 128,-1,19
 738 265 738 265 729 272.5 c 128,-1,20
 720 280 720 280 712 294 c 2,21,-1
 623 443 l 1,22,-1
 544 443 l 1,23,-1
 525 335 l 2,24,25
 522 318 522 318 516.5 305.5 c 128,-1,26
 511 293 511 293 500 285 c 128,-1,27
 489 277 489 277 472 273.5 c 128,-1,28
 455 270 455 270 428 270 c 0,29,30
 375 270 375 270 361.5 285 c 128,-1,31
 348 300 348 300 355 335 c 2,32,-1
 446 854 l 2,0,1
598 752 m 1,33,-1
 571 598 l 1,34,-1
 670 598 l 2,35,36
 702 598 702 598 723 607 c 128,-1,37
 744 616 744 616 756.5 630 c 128,-1,38
 769 644 769 644 774 659.5 c 128,-1,39
 779 675 779 675 779 689 c 0,40,41
 779 718 779 718 760.5 735 c 128,-1,42
 742 752 742 752 706 752 c 2,43,-1
 598 752 l 1,33,-1
566 131 m 0,44,45
 645 131 645 131 714 153 c 128,-1,46
 783 175 783 175 841 214 c 128,-1,47
 899 253 899 253 945 306.5 c 128,-1,48
 991 360 991 360 1022.5 422 c 128,-1,49
 1054 484 1054 484 1071 553 c 128,-1,50
 1088 622 1088 622 1088 692 c 0,51,52
 1088 773 1088 773 1064 840 c 128,-1,53
 1040 907 1040 907 994 955 c 128,-1,54
 948 1003 948 1003 881 1029.5 c 128,-1,55
 814 1056 814 1056 729 1056 c 0,56,57
 650 1056 650 1056 581 1034 c 128,-1,58
 512 1012 512 1012 453.5 973 c 128,-1,59
 395 934 395 934 349 880.5 c 128,-1,60
 303 827 303 827 271.5 765 c 128,-1,61
 240 703 240 703 223 634 c 128,-1,62
 206 565 206 565 206 495 c 0,63,64
 206 415 206 415 230 348 c 128,-1,65
 254 281 254 281 300 233 c 128,-1,66
 346 185 346 185 413 158 c 128,-1,67
 480 131 480 131 566 131 c 0,44,45
549 -22 m 0,68,69
 436 -22 436 -22 345 17.5 c 128,-1,70
 254 57 254 57 189.5 126 c 128,-1,71
 125 195 125 195 90 289 c 128,-1,72
 55 383 55 383 55 493 c 0,73,74
 55 583 55 583 77 671 c 128,-1,75
 99 759 99 759 141.5 838.5 c 128,-1,76
 184 918 184 918 244.5 986 c 128,-1,77
 305 1054 305 1054 381.5 1103.5 c 128,-1,78
 458 1153 458 1153 550 1181 c 128,-1,79
 642 1209 642 1209 746 1209 c 0,80,81
 858 1209 858 1209 949 1170 c 128,-1,82
 1040 1131 1040 1131 1104.5 1062.5 c 128,-1,83
 1169 994 1169 994 1204 899.5 c 128,-1,84
 1239 805 1239 805 1239 694 c 0,85,86
 1239 604 1239 604 1217 516 c 128,-1,87
 1195 428 1195 428 1153 348.5 c 128,-1,88
 1111 269 1111 269 1050.5 201 c 128,-1,89
 990 133 990 133 913.5 83.5 c 128,-1,90
 837 34 837 34 745 6 c 128,-1,91
 653 -22 653 -22 549 -22 c 0,68,69
EndSplineSet
EndChar
StartChar: macron
Encoding: 175 175 145
Width: 1228
Flags: W
LayerCount: 2
Back
Fore
SplineSet
1049 1275 m 2,0,1
 1066 1275 1066 1275 1077 1271 c 128,-1,2
 1088 1267 1088 1267 1094 1255.5 c 128,-1,3
 1100 1244 1100 1244 1100 1224 c 128,-1,4
 1100 1204 1100 1204 1094 1172 c 256,5,6
 1088 1140 1088 1140 1081 1120 c 128,-1,7
 1074 1100 1074 1100 1064.5 1089 c 128,-1,8
 1055 1078 1055 1078 1042.5 1074 c 128,-1,9
 1030 1070 1030 1070 1013 1070 c 2,10,-1
 451 1070 l 2,11,12
 434 1070 434 1070 423 1074 c 128,-1,13
 412 1078 412 1078 406 1089 c 128,-1,14
 400 1100 400 1100 400 1120 c 128,-1,15
 400 1140 400 1140 406 1172 c 256,16,17
 412 1204 412 1204 419 1224 c 128,-1,18
 426 1244 426 1244 435.5 1255.5 c 128,-1,19
 445 1267 445 1267 457.5 1271 c 128,-1,20
 470 1275 470 1275 487 1275 c 2,21,-1
 1049 1275 l 2,0,1
EndSplineSet
EndChar
StartChar: degree
Encoding: 176 176 95
Width: 1228
Flags: W
LayerCount: 2
Back
Fore
SplineSet
581 565 m 0,0,1
 521 565 521 565 470.5 587 c 128,-1,2
 420 609 420 609 382.5 647 c 128,-1,3
 345 685 345 685 324 735.5 c 128,-1,4
 303 786 303 786 303 844 c 0,5,6
 303 910 303 910 330.5 975.5 c 128,-1,7
 358 1041 358 1041 407.5 1092.5 c 128,-1,8
 457 1144 457 1144 525.5 1176.5 c 128,-1,9
 594 1209 594 1209 675 1209 c 0,10,11
 735 1209 735 1209 785.5 1187 c 128,-1,12
 836 1165 836 1165 873.5 1127 c 128,-1,13
 911 1089 911 1089 932 1038.5 c 128,-1,14
 953 988 953 988 953 930 c 0,15,16
 953 860 953 860 924 794 c 128,-1,17
 895 728 895 728 844.5 677 c 128,-1,18
 794 626 794 626 726 595.5 c 128,-1,19
 658 565 658 565 581 565 c 0,0,1
608 776 m 0,20,21
 633 776 633 776 657 786.5 c 128,-1,22
 681 797 681 797 699.5 815 c 128,-1,23
 718 833 718 833 729.5 856.5 c 128,-1,24
 741 880 741 880 741 906 c 0,25,26
 741 945 741 945 714.5 971.5 c 128,-1,27
 688 998 688 998 647 998 c 0,28,29
 622 998 622 998 598 987.5 c 128,-1,30
 574 977 574 977 555.5 959 c 128,-1,31
 537 941 537 941 526 917 c 128,-1,32
 515 893 515 893 515 867 c 0,33,34
 515 829 515 829 541 802.5 c 128,-1,35
 567 776 567 776 608 776 c 0,20,21
EndSplineSet
EndChar
StartChar: plusminus
Encoding: 177 177 110
Width: 1228
Flags: W
LayerCount: 2
Back
Fore
SplineSet
272 620 m 2,0,1
 255 620 255 620 244 624 c 128,-1,2
 233 628 233 628 227.5 640 c 128,-1,3
 222 652 222 652 222.5 674 c 128,-1,4
 223 696 223 696 229 732 c 256,5,6
 235 768 235 768 242 790 c 128,-1,7
 249 812 249 812 259 824 c 128,-1,8
 269 836 269 836 281.5 840.5 c 128,-1,9
 294 845 294 845 311 845 c 2,10,-1
 579 845 l 1,11,-1
 618 1063 l 2,12,13
 621 1080 621 1080 627.5 1092 c 128,-1,14
 634 1104 634 1104 647.5 1111.5 c 128,-1,15
 661 1119 661 1119 683.5 1122.5 c 128,-1,16
 706 1126 706 1126 742 1126 c 256,17,18
 778 1126 778 1126 799 1122.5 c 128,-1,19
 820 1119 820 1119 831 1111.5 c 128,-1,20
 842 1104 842 1104 844 1092 c 128,-1,21
 846 1080 846 1080 843 1063 c 2,22,-1
 804 845 l 1,23,-1
 1073 845 l 2,24,25
 1090 845 1090 845 1101 840.5 c 128,-1,26
 1112 836 1112 836 1117.5 824 c 128,-1,27
 1123 812 1123 812 1123 790 c 128,-1,28
 1123 768 1123 768 1117 732 c 256,29,30
 1111 696 1111 696 1103.5 674 c 128,-1,31
 1096 652 1096 652 1086 640 c 128,-1,32
 1076 628 1076 628 1063.5 624 c 128,-1,33
 1051 620 1051 620 1034 620 c 2,34,-1
 765 620 l 1,35,-1
 726 401 l 2,36,37
 723 384 723 384 717 372 c 128,-1,38
 711 360 711 360 697.5 352.5 c 128,-1,39
 684 345 684 345 661.5 341.5 c 128,-1,40
 639 338 639 338 603 338 c 256,41,42
 567 338 567 338 545.5 341.5 c 128,-1,43
 524 345 524 345 513 352.5 c 128,-1,44
 502 360 502 360 500 372 c 128,-1,45
 498 384 498 384 501 401 c 2,46,-1
 540 620 l 1,47,-1
 272 620 l 2,0,1
964 225 m 2,48,49
 981 225 981 225 992 220.5 c 128,-1,50
 1003 216 1003 216 1008.5 204 c 128,-1,51
 1014 192 1014 192 1013.5 170 c 128,-1,52
 1013 148 1013 148 1007 112 c 256,53,54
 1001 76 1001 76 993.5 54 c 128,-1,55
 986 32 986 32 976.5 20 c 128,-1,56
 967 8 967 8 954.5 4 c 128,-1,57
 942 0 942 0 925 0 c 2,58,-1
 163 0 l 2,59,60
 146 0 146 0 134.5 4 c 128,-1,61
 123 8 123 8 117.5 20 c 128,-1,62
 112 32 112 32 112.5 54 c 128,-1,63
 113 76 113 76 119 112 c 256,64,65
 125 148 125 148 132.5 170 c 128,-1,66
 140 192 140 192 150 204 c 128,-1,67
 160 216 160 216 172.5 220.5 c 128,-1,68
 185 225 185 225 202 225 c 2,69,-1
 964 225 l 2,48,49
EndSplineSet
EndChar
StartChar: twosuperior
Encoding: 178 178 166
Width: 1228
Flags: W
LayerCount: 2
Back
Fore
SplineSet
607 1047 m 2,0,1
 605 1035 605 1035 599.5 1026 c 128,-1,2
 594 1017 594 1017 583.5 1011 c 128,-1,3
 573 1005 573 1005 556 1002 c 128,-1,4
 539 999 539 999 513 999 c 0,5,6
 460 999 460 999 438.5 1011 c 128,-1,7
 417 1023 417 1023 422 1047 c 2,8,-1
 454 1225 l 2,9,10
 458 1254 458 1254 493 1270 c 0,11,12
 565 1303 565 1303 643 1318.5 c 128,-1,13
 721 1334 721 1334 796 1334 c 0,14,15
 860 1334 860 1334 910 1316 c 128,-1,16
 960 1298 960 1298 994 1266 c 128,-1,17
 1028 1234 1028 1234 1045.5 1190 c 128,-1,18
 1063 1146 1063 1146 1063 1094 c 0,19,20
 1063 1060 1063 1060 1055 1030 c 128,-1,21
 1047 1000 1047 1000 1030 968 c 0,22,23
 1006 923 1006 923 956.5 882 c 128,-1,24
 907 841 907 841 839 794 c 2,25,-1
 635 653 l 1,26,-1
 853 653 l 1,27,-1
 861 699 l 2,28,29
 863 711 863 711 868 720 c 128,-1,30
 873 729 873 729 883.5 735 c 128,-1,31
 894 741 894 741 911.5 744 c 128,-1,32
 929 747 929 747 955 747 c 0,33,34
 1008 747 1008 747 1029 735 c 128,-1,35
 1050 723 1050 723 1046 699 c 2,36,-1
 1016 529 l 2,37,38
 1011 504 1011 504 999 493.5 c 128,-1,39
 987 483 987 483 962 483 c 2,40,-1
 367 483 l 2,41,42
 343 483 343 483 332.5 506.5 c 128,-1,43
 322 530 322 530 331 583 c 0,44,45
 336 613 336 613 348.5 633.5 c 128,-1,46
 361 654 361 654 377 665 c 2,47,-1
 724 908 l 2,48,49
 752 928 752 928 772 943.5 c 128,-1,50
 792 959 792 959 806.5 971.5 c 128,-1,51
 821 984 821 984 830 995 c 128,-1,52
 839 1006 839 1006 845 1017 c 0,53,54
 859 1042 859 1042 859 1072 c 0,55,56
 859 1111 859 1111 833.5 1136 c 128,-1,57
 808 1161 808 1161 759 1161 c 0,58,59
 726 1161 726 1161 690.5 1154.5 c 128,-1,60
 655 1148 655 1148 623 1135 c 1,61,-1
 607 1047 l 2,0,1
EndSplineSet
EndChar
StartChar: threesuperior
Encoding: 179 179 167
Width: 1228
Flags: W
LayerCount: 2
Back
Fore
SplineSet
590 1077 m 2,0,1
 588 1065 588 1065 583 1056 c 128,-1,2
 578 1047 578 1047 567.5 1041 c 128,-1,3
 557 1035 557 1035 539.5 1032 c 128,-1,4
 522 1029 522 1029 496 1029 c 0,5,6
 443 1029 443 1029 422 1041 c 128,-1,7
 401 1053 401 1053 405 1077 c 2,8,-1
 433 1235 l 2,9,10
 436 1250 436 1250 445.5 1262 c 128,-1,11
 455 1274 455 1274 472 1280 c 0,12,13
 541 1306 541 1306 616.5 1320 c 128,-1,14
 692 1334 692 1334 767 1334 c 0,15,16
 840 1334 840 1334 895 1317.5 c 128,-1,17
 950 1301 950 1301 987.5 1272 c 128,-1,18
 1025 1243 1025 1243 1044 1202 c 128,-1,19
 1063 1161 1063 1161 1063 1112 c 0,20,21
 1063 1034 1063 1034 1023 981 c 128,-1,22
 983 928 983 928 907 897 c 1,23,24
 957 874 957 874 983.5 833.5 c 128,-1,25
 1010 793 1010 793 1010 739 c 0,26,27
 1010 718 1010 718 1005.5 694 c 128,-1,28
 1001 670 1001 670 992 646 c 128,-1,29
 983 622 983 622 970 599.5 c 128,-1,30
 957 577 957 577 939 559 c 0,31,32
 848 465 848 465 634 465 c 0,33,34
 597 465 597 465 558.5 469 c 128,-1,35
 520 473 520 473 483.5 480 c 128,-1,36
 447 487 447 487 414 497 c 128,-1,37
 381 507 381 507 355 519 c 0,38,39
 306 540 306 540 337 623 c 0,40,41
 352 664 352 664 374 681 c 128,-1,42
 396 698 396 698 413 690 c 0,43,44
 461 669 461 669 520 653.5 c 128,-1,45
 579 638 579 638 636 638 c 0,46,47
 687 638 687 638 721 648 c 128,-1,48
 755 658 755 658 774 676 c 0,49,50
 788 689 788 689 794.5 707.5 c 128,-1,51
 801 726 801 726 801 744 c 0,52,53
 801 811 801 811 708 811 c 2,54,-1
 615 811 l 2,55,56
 592 811 592 811 582.5 830 c 128,-1,57
 573 849 573 849 582 897 c 0,58,59
 590 945 590 945 606 964 c 128,-1,60
 622 983 622 983 645 983 c 2,61,-1
 719 983 l 2,62,63
 801 983 801 983 836 1024 c 0,64,65
 846 1036 846 1036 853 1053 c 128,-1,66
 860 1070 860 1070 860 1088 c 0,67,68
 860 1122 860 1122 830.5 1141.5 c 128,-1,69
 801 1161 801 1161 741 1161 c 0,70,71
 676 1161 676 1161 601 1135 c 1,72,-1
 590 1077 l 2,0,1
EndSplineSet
EndChar
StartChar: acute
Encoding: 180 180 105
Width: 1228
Flags: W
LayerCount: 2
Back
Fore
SplineSet
959 1392 m 2,0,1
 987 1408 987 1408 1018 1388.5 c 128,-1,2
 1049 1369 1049 1369 1079 1301 c 0,3,4
 1109 1232 1109 1232 1105.5 1198.5 c 128,-1,5
 1102 1165 1102 1165 1076 1158 c 2,6,-1
 596 1033 l 2,7,8
 572 1026 572 1026 554 1037.5 c 128,-1,9
 536 1049 536 1049 528 1072 c 0,10,11
 520 1094 520 1094 525.5 1113.5 c 128,-1,12
 531 1133 531 1133 551 1145 c 2,13,-1
 959 1392 l 2,0,1
EndSplineSet
EndChar
StartChar: paragraph
Encoding: 182 182 100
Width: 1228
Flags: W
LayerCount: 2
Back
Fore
SplineSet
742 982 m 1,0,-1
 506 -352 l 2,1,2
 500 -386 500 -386 470 -400.5 c 128,-1,3
 440 -415 440 -415 383 -415 c 0,4,5
 327 -415 327 -415 308.5 -400.5 c 128,-1,6
 290 -386 290 -386 296 -352 c 2,7,-1
 436 440 l 1,8,9
 373 450 373 450 324 476.5 c 128,-1,10
 275 503 275 503 240.5 543.5 c 128,-1,11
 206 584 206 584 188 636.5 c 128,-1,12
 170 689 170 689 170 751 c 0,13,14
 170 837 170 837 200 916 c 128,-1,15
 230 995 230 995 290.5 1055 c 128,-1,16
 351 1115 351 1115 442.5 1151 c 128,-1,17
 534 1187 534 1187 658 1187 c 2,18,-1
 1214 1187 l 2,19,20
 1231 1187 1231 1187 1242 1183 c 128,-1,21
 1253 1179 1253 1179 1259 1167.5 c 128,-1,22
 1265 1156 1265 1156 1265 1136 c 128,-1,23
 1265 1116 1265 1116 1259 1084 c 256,24,25
 1253 1052 1253 1052 1246 1032 c 128,-1,26
 1239 1012 1239 1012 1229.5 1001 c 128,-1,27
 1220 990 1220 990 1207.5 986 c 128,-1,28
 1195 982 1195 982 1178 982 c 2,29,-1
 1112 982 l 1,30,-1
 876 -352 l 2,31,32
 870 -386 870 -386 840 -400.5 c 128,-1,33
 810 -415 810 -415 753 -415 c 0,34,35
 697 -415 697 -415 678.5 -400.5 c 128,-1,36
 660 -386 660 -386 666 -352 c 2,37,-1
 902 982 l 1,38,-1
 742 982 l 1,0,-1
EndSplineSet
EndChar
StartChar: periodcentered
Encoding: 183 183 138
Width: 1228
Flags: W
LayerCount: 2
Back
Fore
SplineSet
621 378 m 0,0,1
 581 378 581 378 547.5 392.5 c 128,-1,2
 514 407 514 407 489.5 432 c 128,-1,3
 465 457 465 457 451.5 490 c 128,-1,4
 438 523 438 523 438 561 c 0,5,6
 438 611 438 611 457.5 653.5 c 128,-1,7
 477 696 477 696 510 727.5 c 128,-1,8
 543 759 543 759 585.5 776.5 c 128,-1,9
 628 794 628 794 674 794 c 0,10,11
 714 794 714 794 747.5 779.5 c 128,-1,12
 781 765 781 765 805 740.5 c 128,-1,13
 829 716 829 716 842.5 682.5 c 128,-1,14
 856 649 856 649 856 612 c 0,15,16
 856 562 856 562 836.5 519.5 c 128,-1,17
 817 477 817 477 785 445.5 c 128,-1,18
 753 414 753 414 710 396 c 128,-1,19
 667 378 667 378 621 378 c 0,0,1
EndSplineSet
EndChar
StartChar: cedilla
Encoding: 184 184 149
Width: 1228
Flags: W
LayerCount: 2
Back
Fore
SplineSet
618 28 m 1,0,-1
 597 -93 l 1,1,2
 646 -92 646 -92 683 -103 c 128,-1,3
 720 -114 720 -114 744 -135 c 128,-1,4
 768 -156 768 -156 780 -185.5 c 128,-1,5
 792 -215 792 -215 792 -250 c 0,6,7
 792 -282 792 -282 781 -321 c 128,-1,8
 770 -360 770 -360 744 -389 c 0,9,10
 673 -472 673 -472 487 -472 c 0,11,12
 415 -472 415 -472 351.5 -461.5 c 128,-1,13
 288 -451 288 -451 239 -431 c 0,14,15
 219 -423 219 -423 220 -399.5 c 128,-1,16
 221 -376 221 -376 235 -346 c 0,17,18
 248 -317 248 -317 266 -298.5 c 128,-1,19
 284 -280 284 -280 304 -288 c 0,20,21
 340 -303 340 -303 375.5 -312.5 c 128,-1,22
 411 -322 411 -322 461 -322 c 0,23,24
 517 -322 517 -322 537 -302.5 c 128,-1,25
 557 -283 557 -283 557 -258 c 0,26,27
 557 -226 557 -226 523 -219 c 128,-1,28
 489 -212 489 -212 439 -221 c 0,29,30
 425 -223 425 -223 413.5 -214.5 c 128,-1,31
 402 -206 402 -206 407 -180 c 2,32,-1
 443 28 l 1,33,-1
 618 28 l 1,0,-1
EndSplineSet
EndChar
StartChar: onesuperior
Encoding: 185 185 165
Width: 1228
Flags: W
LayerCount: 2
Back
Fore
SplineSet
667 1108 m 1,0,-1
 509 1058 l 2,1,2
 480 1049 480 1049 460.5 1059 c 128,-1,3
 441 1069 441 1069 428 1117 c 0,4,5
 406 1198 406 1198 472 1219 c 2,6,-1
 817 1329 l 2,7,8
 834 1334 834 1334 849 1334 c 128,-1,9
 864 1334 864 1334 874.5 1328 c 128,-1,10
 885 1322 885 1322 890 1309 c 128,-1,11
 895 1296 895 1296 891 1275 c 2,12,-1
 782 653 l 1,13,-1
 973 653 l 2,14,15
 1001 653 1001 653 1009.5 633 c 128,-1,16
 1018 613 1018 613 1010 568 c 256,17,18
 1002 523 1002 523 986.5 503 c 128,-1,19
 971 483 971 483 943 483 c 2,20,-1
 379 483 l 2,21,22
 350 483 350 483 342.5 503 c 128,-1,23
 335 523 335 523 343 568 c 256,24,25
 351 613 351 613 366 633 c 128,-1,26
 381 653 381 653 409 653 c 2,27,-1
 587 653 l 1,28,-1
 667 1108 l 1,0,-1
EndSplineSet
EndChar
